<?xml version="1.0" encoding="utf-8"?>
<!-- Generator: Adobe Illustrator 16.0.3, SVG Export Plug-In . SVG Version: 6.00 Build 0)  -->
<!DOCTYPE svg PUBLIC "-//W3C//DTD SVG 1.1//EN" "http://www.w3.org/Graphics/SVG/1.1/DTD/svg11.dtd">
<svg version="1.1" id="layer" xmlns="http://www.w3.org/2000/svg" xmlns:xlink="http://www.w3.org/1999/xlink" x="0px" y="0px"
	 width="160.474px" height="173.779px" viewBox="0 0 160.474 173.779" enable-background="new 0 0 160.474 173.779"
	 xml:space="preserve">
<g>
	<path fill="#FF3621" d="M151.468,71.58l-71.671,40.629L3.652,68.932l-3.561,1.917v31.407l79.797,45.468l71.672-40.629v16.708
		l-71.672,40.629L3.652,121.156l-3.561,1.917v5.296l79.797,45.468l80.07-45.468V96.962l-3.561-1.918L79.797,138.32L8.4,97.692
		V81.258l71.397,40.354l80.07-45.468v-30.95l-4.107-2.191L79.797,86.006L12.234,47.567L79.797,9.404l55.785,31.407l5.021-2.647
		v-3.835L79.797,0L0,45.285v4.839l79.797,45.468l71.671-40.629V71.58z"/>
</g>
</svg>
