<?xml version="1.0" encoding="utf-8"?>
<!-- Generator: Adobe Illustrator 16.0.3, SVG Export Plug-In . SVG Version: 6.00 Build 0)  -->
<!DOCTYPE svg PUBLIC "-//W3C//DTD SVG 1.1//EN" "http://www.w3.org/Graphics/SVG/1.1/DTD/svg11.dtd">
<svg version="1.1" id="Capa_1" xmlns="http://www.w3.org/2000/svg" xmlns:xlink="http://www.w3.org/1999/xlink" x="0px" y="0px"
	 width="463.14px" height="596.445px" viewBox="0 0 463.14 596.445" enable-background="new 0 0 463.14 596.445"
	 xml:space="preserve">
<g>
	<path fill="#2ba675" d="M209.841,0h97.338v450.553c-49.934,9.487-86.595,13.277-126.409,13.277C61.942,463.825,0,410.11,0,307.081
		c0-99.235,65.737-163.703,167.493-163.703c15.803,0,27.811,1.266,42.349,5.056V0z M209.841,226.787
		c-11.375-3.79-20.858-5.051-32.866-5.051c-49.297,0-77.745,30.337-77.745,83.429c0,51.831,27.183,80.27,77.117,80.27
		c10.738,0,19.588-0.633,33.494-2.521V226.787z"/>
	<path fill="#2ba675" d="M462.017,150.312v225.644c0,77.745-5.691,115.033-22.756,147.268
		c-15.803,30.978-36.66,50.565-79.637,72.057l-90.385-42.977c42.981-20.23,63.834-37.917,77.108-65.109
		c13.904-27.806,18.338-60.039,18.338-144.736V150.312H462.017z M364.679,0.515h97.338v99.868h-97.338V0.515z"/>
</g>
</svg>
