<?xml version="1.0" encoding="utf-8"?>
<!-- Generator: Adobe Illustrator 16.0.3, SVG Export Plug-In . SVG Version: 6.00 Build 0)  -->
<!DOCTYPE svg PUBLIC "-//W3C//DTD SVG 1.1//EN" "http://www.w3.org/Graphics/SVG/1.1/DTD/svg11.dtd">
<svg version="1.1" id="Capa_1" xmlns="http://www.w3.org/2000/svg" xmlns:xlink="http://www.w3.org/1999/xlink" x="0px" y="0px"
	 width="591.14px" height="341px" viewBox="0 249.445 591.14 341" enable-background="new 0 249.445 591.14 341"
	 xml:space="preserve">
<path fill="#3A4D54" d="M343.216,359.556h52.553v53.482h26.508c12.092,0,24.648-2.325,36.275-6.046
	c5.58-1.86,12.092-4.65,17.672-7.906c-7.441-9.766-11.162-21.857-12.092-33.949c-1.395-16.277,1.861-37.67,13.021-50.227
	l5.582-6.511l6.51,5.115c16.742,13.487,30.23,31.624,33.02,53.018c19.998-6.046,43.252-4.65,60.924,5.58l6.977,4.186l-3.721,7.441
	c-14.883,28.834-46.041,38.136-76.271,36.275c-45.576,113.01-144.17,166.492-264.155,166.492
	c-61.853,0-118.591-23.253-151.145-78.131l-0.465-0.93l-4.65-9.767c-11.162-24.183-14.417-50.691-12.092-77.2l0.93-7.906h44.646
	v-53.018h52.552v-52.087h104.639v-52.552h62.784V359.556z"/>
<path fill="#00AADA" d="M513.429,379.554c3.721-27.438-16.742-48.831-29.764-59.063c-14.418,16.742-16.742,61.388,6.045,79.99
	c-13.021,11.162-39.529,21.858-67.434,21.858H86.501c-2.79,28.834,2.326,55.343,13.952,78.131l3.72,6.976
	c2.326,4.186,5.116,7.906,7.906,12.092c13.952,0.93,26.509,1.395,38.135,0.93c22.788-0.465,41.391-3.255,55.808-7.906
	c2.325-0.93,4.186,0.466,5.116,2.326c0.93,2.325-0.465,4.186-2.326,5.115c-1.86,0.465-3.72,1.396-6.045,1.86
	c-11.162,3.255-23.253,5.115-38.601,6.046h-2.79c-6.046,0.465-12.557,0.465-19.533,0.465c-7.441,0-14.417,0-22.788-0.465
	c27.904,31.624,71.62,50.227,126.497,50.227c116.265,0,214.858-51.622,258.11-166.958c31.158,3.256,60.922-4.65,74.41-31.159
	C557.146,367.463,529.242,371.648,513.429,379.554z"/>
<path fill="#28B8EB" d="M513.429,379.554c3.721-27.438-16.742-48.831-29.764-59.063c-14.418,16.742-16.742,61.388,6.045,79.99
	c-13.021,11.162-39.529,21.858-67.434,21.858H106.034c-1.395,44.181,14.882,77.665,44.181,97.663
	c22.788-0.465,41.391-3.256,55.808-7.906c2.325-0.93,4.186,0.465,5.116,2.325c0.93,2.325-0.465,4.186-2.326,5.116
	c-1.86,0.465-3.72,1.395-6.045,1.86c-11.162,3.255-24.184,5.58-39.531,6.511l-0.465-0.465c39.53,20.462,96.733,19.997,162.772-5.116
	c73.479-28.369,142.309-82.316,190.211-143.704C514.824,379.09,513.894,379.09,513.429,379.554L513.429,379.554z"/>
<path fill="#028BB8" d="M86.967,457.22c1.86,15.347,6.511,29.764,13.487,43.251l3.72,6.976c2.326,4.186,5.116,7.906,7.906,12.092
	c13.952,0.93,26.509,1.395,38.135,0.93c22.788-0.465,41.391-3.255,55.808-7.906c2.325-0.93,4.186,0.466,5.116,2.326
	c0.93,2.325-0.465,4.186-2.326,5.115c-1.86,0.465-3.72,1.396-6.045,1.86c-11.162,3.255-24.184,5.581-39.531,6.511h-1.86
	c-6.046,0.465-12.557,0.465-19.068,0.465c-7.441,0-14.882,0-22.788-0.465c27.904,31.624,72.085,50.227,126.962,50.227
	c99.524,0,186.026-37.67,236.252-120.916H86.967V457.22L86.967,457.22z"/>
<path fill="#019BC6" d="M109.29,457.22c6.046,26.974,19.998,48.366,40.926,62.783c22.788-0.465,41.391-3.256,55.808-7.906
	c2.325-0.93,4.186,0.465,5.116,2.325c0.93,2.325-0.465,4.186-2.326,5.116c-1.86,0.465-3.72,1.395-6.045,1.86
	c-11.162,3.255-24.184,5.58-39.996,6.511c39.53,20.463,96.733,19.998,162.308-5.116c39.529-15.347,78.129-38.135,112.545-65.573
	H109.29L109.29,457.22z"/>
<path fill="#00ACD3" d="M132.078,368.393h45.576v45.576h-45.576V368.393L132.078,368.393z M135.798,372.113h3.72v37.671h-3.72
	V372.113z M142.309,372.113h3.721v37.671h-3.721V372.113z M149.285,372.113h3.721v37.671h-3.721V372.113z M156.261,372.113h3.72
	v37.671h-3.72V372.113z M163.237,372.113h3.721v37.671h-3.721V372.113z M170.213,372.113h3.721v37.671h-3.721V372.113z
	 M184.165,316.306h45.576v45.576h-45.576V316.306z M188.351,320.026h3.72v37.671h-3.72V320.026L188.351,320.026z M194.861,320.026
	h3.721v37.671h-3.721V320.026L194.861,320.026z M201.837,320.026h3.72v37.671h-3.72V320.026L201.837,320.026z M208.813,320.026
	h3.721v37.671h-3.721V320.026L208.813,320.026z M215.324,320.026h3.72v37.671h-3.72V320.026L215.324,320.026z M222.3,320.026h3.721
	v37.671H222.3V320.026L222.3,320.026z"/>
<path fill="#23C2EE" d="M184.165,368.393h45.576v45.576h-45.576V368.393z M188.351,372.113h3.72v37.671h-3.72V372.113z
	 M194.861,372.113h3.721v37.671h-3.721V372.113z M201.837,372.113h3.72v37.671h-3.72V372.113z M208.813,372.113h3.721v37.671h-3.721
	V372.113z M215.324,372.113h3.72v37.671h-3.72V372.113z M222.3,372.113h3.721v37.671H222.3V372.113z"/>
<path fill="#00ACD3" d="M236.717,368.393h45.576v45.576h-45.576V368.393z M240.438,372.113h3.72v37.671h-3.72V372.113z
	 M247.414,372.113h3.72v37.671h-3.72V372.113z M254.389,372.113h3.721v37.671h-3.721V372.113z M260.9,372.113h3.72v37.671h-3.72
	V372.113z M267.876,372.113h3.721v37.671h-3.721V372.113z M274.852,372.113h3.721v37.671h-3.721V372.113z"/>
<path fill="#23C2EE" d="M236.717,316.306h45.576v45.576h-45.576V316.306z M240.438,320.026h3.72v37.671h-3.72V320.026
	L240.438,320.026z M247.414,320.026h3.72v37.671h-3.72V320.026L247.414,320.026z M254.389,320.026h3.721v37.671h-3.721V320.026
	L254.389,320.026z M260.9,320.026h3.72v37.671h-3.72V320.026L260.9,320.026z M267.876,320.026h3.721v37.671h-3.721V320.026
	L267.876,320.026z M274.852,320.026h3.721v37.671h-3.721V320.026L274.852,320.026z M289.269,368.393h45.576v45.576h-45.576V368.393z
	 M292.989,372.113h3.721v37.671h-3.721V372.113L292.989,372.113z M299.966,372.113h3.719v37.671h-3.719V372.113L299.966,372.113z
	 M306.476,372.113h3.721v37.671h-3.721V372.113L306.476,372.113z M313.453,372.113h3.721v37.671h-3.721V372.113L313.453,372.113z
	 M320.429,372.113h3.719v37.671h-3.719V372.113L320.429,372.113z M327.404,372.113h3.721v37.671h-3.721V372.113L327.404,372.113z"/>
<path fill="#00ACD3" d="M289.269,316.306h45.576v45.576h-45.576V316.306z M292.989,320.026h3.721v37.671h-3.721V320.026
	L292.989,320.026z M299.966,320.026h3.719v37.671h-3.719V320.026L299.966,320.026z M306.476,320.026h3.721v37.671h-3.721V320.026
	L306.476,320.026z M313.453,320.026h3.721v37.671h-3.721V320.026L313.453,320.026z M320.429,320.026h3.719v37.671h-3.719V320.026
	L320.429,320.026z M327.404,320.026h3.721v37.671h-3.721V320.026L327.404,320.026z"/>
<path fill="#23C2EE" d="M289.269,263.754h45.576v45.576h-45.576V263.754z M292.989,267.474h3.721v37.67h-3.721V267.474z
	 M299.966,267.474h3.719v37.67h-3.719V267.474z M306.476,267.474h3.721v37.67h-3.721V267.474z M313.453,267.474h3.721v37.67h-3.721
	V267.474z M320.429,267.474h3.719v37.67h-3.719V267.474z M327.404,267.474h3.721v37.67h-3.721V267.474z"/>
<path fill="#00ACD3" d="M341.822,368.393h45.576v45.576h-45.576V368.393z M345.542,372.113h3.719v37.671h-3.719V372.113z
	 M352.052,372.113h3.721v37.671h-3.721V372.113z M359.029,372.113h3.721v37.671h-3.721V372.113z M366.003,372.113h3.721v37.671
	h-3.721V372.113z M372.98,372.113h3.721v37.671h-3.721V372.113z M379.957,372.113h3.721v37.671h-3.721V372.113z"/>
<path fill="#D4EEF1" d="M226.951,487.449c6.976,0,12.557,5.581,12.557,12.557c0,6.977-5.581,12.557-12.557,12.557
	s-12.557-5.58-12.557-12.557C214.394,493.03,219.975,487.449,226.951,487.449"/>
<path fill="#3A4D54" d="M226.951,491.17c0.93,0,2.325,0,3.255,0.465c-0.93,0.466-1.86,1.86-1.86,3.256
	c0,1.86,1.86,3.721,3.721,3.721c1.395,0,2.79-0.931,3.255-1.86c0.465,0.93,0.465,2.325,0.465,3.255c0,5.116-4.186,8.837-8.836,8.837
	c-5.116,0-8.836-4.186-8.836-8.837C218.114,495.355,221.835,491.17,226.951,491.17 M5.116,461.871h583.188
	c-12.557-3.256-39.996-7.441-35.811-24.184c-23.252,26.509-78.594,18.603-93.012,5.581c-15.813,22.788-106.965,13.952-113.01-3.721
	c-19.533,23.253-80.457,23.253-99.989,0c-6.511,17.673-97.663,26.509-113.01,3.721c-13.952,13.021-69.76,20.928-93.013-5.581
	C45.576,453.965,17.672,458.615,5.116,461.871"/>
<path fill="#BFDBE0" d="M260.435,578.136c-31.159-14.882-47.901-34.88-57.667-56.737c-11.627,3.255-25.579,5.58-41.391,6.511
	c-6.046,0.465-12.557,0.465-19.068,0.465c-7.906,0-15.812,0-24.183-0.465c27.904,27.903,63.249,49.762,127.892,50.227H260.435
	L260.435,578.136z"/>
<path fill="#D4EEF1" d="M214.394,541.396c-4.186-6.046-8.371-13.021-11.626-19.997c-11.627,3.255-25.579,5.58-41.391,6.511
	C172.073,533.49,187.885,539.071,214.394,541.396z"/>
</svg>
