<?xml version="1.0" encoding="utf-8"?>
<!-- Generator: Adobe Illustrator 16.0.3, SVG Export Plug-In . SVG Version: 6.00 Build 0)  -->
<!DOCTYPE svg PUBLIC "-//W3C//DTD SVG 1.1//EN" "http://www.w3.org/Graphics/SVG/1.1/DTD/svg11.dtd">
<svg version="1.1" id="Capa_1" xmlns="http://www.w3.org/2000/svg" xmlns:xlink="http://www.w3.org/1999/xlink" x="0px" y="0px"
	 width="580.14px" height="216.445px" viewBox="0 0 580.14 216.445" enable-background="new 0 0 580.14 216.445"
	 xml:space="preserve">
<g>
	<path fill="#00ACD7" d="M43.689,65.488c-1.13,0-1.409-0.567-0.846-1.408l5.92-7.613c0.558-0.847,1.972-1.409,3.098-1.409h100.625
		c1.13,0,1.409,0.846,0.846,1.692l-4.79,7.33c-0.563,0.841-1.972,1.688-2.818,1.688L43.689,65.488z M1.127,91.416
		c-1.125,0-1.409-0.558-0.846-1.409l5.92-7.608c0.563-0.847,1.972-1.409,3.102-1.409h128.525c1.125,0,1.693,0.847,1.409,1.692
		l-2.256,6.763c-0.279,1.13-1.409,1.692-2.535,1.692L1.127,91.416z M69.333,117.348c-1.125,0-1.404-0.847-0.842-1.693l3.944-7.046
		c0.567-0.847,1.693-1.688,2.823-1.688h56.366c1.13,0,1.693,0.842,1.693,1.973l-0.558,6.762c0,1.13-1.13,1.977-1.977,1.977
		L69.333,117.348z M361.905,60.415c-17.762,4.511-29.881,7.892-47.354,12.398c-4.232,1.13-4.51,1.409-8.176-2.818
		c-4.227-4.79-7.328-7.892-13.245-10.71c-17.761-8.734-34.955-6.199-51.018,4.231c-19.166,12.398-29.029,30.718-28.75,53.548
		c0.279,22.551,15.785,41.153,38.052,44.255c19.165,2.535,35.233-4.231,47.916-18.602c2.535-3.103,4.789-6.483,7.607-10.432H252.54
		c-5.916,0-7.325-3.665-5.353-8.455c3.665-8.738,10.427-23.393,14.371-30.723c0.851-1.692,2.823-4.511,7.05-4.511h102.594
		c-0.559,7.613-0.559,15.222-1.689,22.835c-3.102,20.291-10.709,38.894-23.113,55.24c-20.295,26.778-46.785,43.404-80.331,47.915
		c-27.62,3.665-53.268-1.692-75.814-18.603c-20.858-15.784-32.694-36.642-35.796-62.569c-3.665-30.723,5.353-58.347,23.956-82.586
		c20.012-26.211,46.506-42.842,78.921-48.762c26.495-4.79,51.859-1.688,74.689,13.813c14.938,9.863,25.648,23.393,32.693,39.739
		c1.693,2.539,0.568,3.948-2.818,4.79L361.905,60.415z"/>
	<path fill="#00ACD7" d="M455.196,216.281c-25.648-0.567-49.045-7.893-68.773-24.807c-16.631-14.37-27.057-32.694-30.438-54.398
		c-5.074-31.848,3.66-60.035,22.83-85.116c20.574-27.062,45.375-41.153,78.92-47.073c28.746-5.069,55.809-2.251,80.326,14.375
		c22.268,15.222,36.074,35.796,39.74,62.853c4.789,38.052-6.199,69.058-32.416,95.553c-18.602,18.881-41.432,30.722-67.643,36.074
		C470.133,215.15,462.52,215.434,455.196,216.281L455.196,216.281z M522.276,102.41c-0.277-3.665-0.277-6.483-0.846-9.302
		c-5.068-27.903-30.723-43.688-57.496-37.483c-26.215,5.915-43.125,22.546-49.324,49.041c-5.074,21.983,5.637,44.251,25.928,53.269
		c15.506,6.767,31.006,5.92,45.943-1.688C508.749,144.689,520.868,126.649,522.276,102.41L522.276,102.41z"/>
</g>
</svg>
