<?xml version="1.0" encoding="utf-8"?>
<!-- Generator: Adobe Illustrator 16.0.3, SVG Export Plug-In . SVG Version: 6.00 Build 0)  -->
<!DOCTYPE svg PUBLIC "-//W3C//DTD SVG 1.1//EN" "http://www.w3.org/Graphics/SVG/1.1/DTD/svg11.dtd">
<svg version="1.1" id="Capa_1" xmlns="http://www.w3.org/2000/svg" xmlns:xlink="http://www.w3.org/1999/xlink" x="0px" y="0px"
	 width="89.333px" height="100.167px" viewBox="0 0 89.333 100.167" enable-background="new 0 0 89.333 100.167"
	 xml:space="preserve">
<title>Hotjar</title>
<g>
	<path fill="#FF3C00" d="M89.311,35.185c0,18.514-8.252,28.265-17.202,34.678l-1.739,1.201l0,0l-1.744,1.127l0,0l-1.737,1.061l0,0
		l-1.718,1.004l0,0l-6.497,3.646c-0.338,0.192-0.671,0.385-1,0.576l-1.913,1.152c-6.793,4.242-11.114,8.818-11.477,19.182
		l-0.025,1.449H25.032c0-17.916,7.73-27.627,16.34-34.047l1.732-1.242c0.29-0.2,0.58-0.397,0.871-0.591l1.744-1.126l0,0l1.737-1.061
		l0,0l3.404-1.958l0,0l4.81-2.691l0,0l1.972-1.153c7.334-4.413,12.04-8.924,12.419-19.757l0.024-1.449H89.311z M64.28,0.144
		c0,17.915-7.729,27.625-16.339,34.047l-1.731,1.242c-0.29,0.2-0.581,0.397-0.871,0.591l-1.744,1.126l0,0l-1.737,1.061l0,0
		l-3.405,1.959l0,0l-4.81,2.691l0,0l-1.972,1.153c-0.319,0.192-0.633,0.384-0.941,0.577l-1.791,1.169
		c-5.756,3.952-9.357,8.592-9.687,18.012l-0.025,1.449H0C0,46.11,8.793,36.337,18.07,29.933l1.743-1.163l0,0l1.742-1.092l0,0
		l1.729-1.031l0,0l7.353-4.142l0,0l1.972-1.153c7.334-4.414,12.04-8.924,12.419-19.757l0.024-1.45H64.28z"/>
</g>
</svg>
