<?xml version="1.0" encoding="utf-8"?>
<!-- Generator: Adobe Illustrator 16.0.3, SVG Export Plug-In . SVG Version: 6.00 Build 0)  -->
<!DOCTYPE svg PUBLIC "-//W3C//DTD SVG 1.1//EN" "http://www.w3.org/Graphics/SVG/1.1/DTD/svg11.dtd">
<svg version="1.1" id="Capa_1" xmlns="http://www.w3.org/2000/svg" xmlns:xlink="http://www.w3.org/1999/xlink" x="0px" y="0px"
	 width="431.14px" height="581px" viewBox="0 128.445 431.14 581" enable-background="new 0 128.445 431.14 581"
	 xml:space="preserve">
<g>
	<path fill="#0074BD" d="M137.88,577.385c0,0-22.17,12.9,15.798,17.254c46.004,5.255,69.513,4.502,120.196-5.078
		c0,0,13.352,8.348,31.963,15.584C192.181,653.836,48.621,602.321,137.88,577.385L137.88,577.385z M123.984,513.834
		c0,0-24.871,18.412,13.129,22.346c49.144,5.074,87.943,5.488,155.117-7.44c0,0,9.27,9.417,23.867,14.561
		C178.708,583.481,25.684,546.463,123.984,513.834L123.984,513.834z"/>
	<path fill="#EA2D2E" d="M241.054,406.013c28.021,32.252-7.348,61.249-7.348,61.249s71.104-36.698,38.457-82.675
		c-30.504-42.855-53.887-64.142,72.711-137.565C344.875,247.027,146.149,296.644,241.054,406.013z"/>
	<path fill="#0074BD" d="M391.367,624.397c0,0,16.412,13.534-18.08,23.993c-65.584,19.867-273.021,25.857-330.633,0.795
		c-20.699-9.013,18.133-21.509,30.351-24.146c12.737-2.758,20.012-2.256,20.012-2.256c-23.035-16.217-148.881,31.856-63.914,45.646
		C260.802,705.988,451.458,651.515,391.367,624.397L391.367,624.397z M148.553,447.976c0,0-105.504,25.063-37.358,34.173
		c28.778,3.851,86.12,2.967,139.57-1.517c43.67-3.669,87.492-11.506,87.492-11.506s-15.385,6.6-26.527,14.199
		C204.57,511.513-2.392,498.385,57.197,469.569C107.572,445.205,148.553,447.976,148.553,447.976L148.553,447.976z M337.82,553.764
		c108.922-56.585,58.557-110.965,23.402-103.64c-8.594,1.79-12.449,3.349-12.449,3.349s3.199-5.019,9.301-7.176
		c69.541-24.439,123.014,72.099-22.43,110.336C335.644,556.624,337.314,555.113,337.82,553.764z"/>
	<path fill="#EA2D2E" d="M272.164,128.445c0,0,60.309,60.347-57.217,153.113c-94.251,74.438-21.491,116.87-0.033,165.371
		c-55.021-49.636-95.38-93.338-68.309-134.008C186.359,253.235,296.49,224.285,272.164,128.445z"/>
	<path fill="#0074BD" d="M159.259,707.141c104.527,6.684,265.086-3.721,268.885-53.185c0,0-7.305,18.752-86.395,33.629
		c-89.227,16.798-199.298,14.84-264.56,4.064C77.19,691.655,90.56,702.723,159.259,707.141L159.259,707.141z"/>
</g>
</svg>
