<?xml version="1.0" encoding="utf-8"?>
<!-- Generator: Adobe Illustrator 16.0.3, SVG Export Plug-In . SVG Version: 6.00 Build 0)  -->
<!DOCTYPE svg PUBLIC "-//W3C//DTD SVG 1.1//EN" "http://www.w3.org/Graphics/SVG/1.1/DTD/svg11.dtd">
<svg version="1.1" id="Capa_1" xmlns="http://www.w3.org/2000/svg" xmlns:xlink="http://www.w3.org/1999/xlink" x="0px" y="0px"
	 width="48.042px" height="24px" viewBox="0 0 48.042 24" enable-background="new 0 0 48.042 24" xml:space="preserve">
<path d="M2.251,21.094c-3.002-2.977-3.002-7.801,0-10.778l8.153-8.083c2.538-2.516,6.408-2.905,9.358-1.167
	c0.913,0.538,0.904,1.771,0.154,2.515c-0.75,0.744-1.975,0.68-2.994,0.385c-1.304-0.378-2.771-0.058-3.8,0.962L4.969,13.01
	c-1.501,1.488-1.501,3.902,0,5.39c1.501,1.488,3.935,1.488,5.436,0L26.71,2.232c3.002-2.977,7.869-2.977,10.871,0l8.153,8.083
	c3.002,2.976,3.002,7.801,0,10.778s-7.869,2.977-10.871,0l-2.718-2.694l-3.397,3.368c-2.538,2.516-6.408,2.905-9.358,1.168
	c-0.912-0.538-0.904-1.771-0.154-2.516s1.976-0.68,2.994-0.385c1.304,0.379,2.771,0.059,3.8-0.962l3.494-3.464
	c1.447-1.436,3.794-1.436,5.241,0l2.815,2.79c1.501,1.488,3.934,1.488,5.435,0c1.501-1.487,1.501-3.901,0-5.39l-8.153-8.083
	c-1.501-1.488-3.935-1.488-5.436,0L13.122,21.094C10.12,24.07,5.253,24.07,2.251,21.094z"/>
</svg>
