<svg width="122" height="124" viewBox="0 0 122 124" fill="none" xmlns="http://www.w3.org/2000/svg">
<g clip-path="url(#clip0_125_6)">
<path d="M46.33 60H75.489C83.606 60 90 53.132 90 44.981V17.183C90 9.27101 83.368 3.32701 75.445 2.00701C70.431 1.17201 65.25 0.792009 60.258 0.816009C55.268 0.839009 50.646 1.26401 46.453 2.00701C34.098 4.18801 32 8.75801 32 17.183V28H61V32H20.776C12.292 32 4.86202 37.108 2.53902 46.811C-0.141984 57.931 -0.260984 64.73 2.53902 76.341C4.61402 84.983 9.56902 91 18.054 91H28V77.952C28 68.315 36.428 60 46.33 60ZM44.492 20.89C41.466 20.89 39.014 18.411 39.014 15.345C39.014 12.266 41.465 9.76401 44.492 9.76401C47.507 9.76401 49.971 12.266 49.971 15.345C49.97 18.411 47.506 20.89 44.492 20.89Z" fill="#1A80D6"/>
<path d="M119.281 46.811C117.183 38.363 113.178 32 104.682 32H94V44.981C94 55.031 85.206 63 75.489 63H46.33C38.342 63 32 70.326 32 78.326V106.126C32 114.036 38.745 118.69 46.462 120.96C55.704 123.677 64.456 124.168 75.513 120.96C82.862 118.831 90 114.549 90 106.126V95H61V91H104.682C113.166 91 116.329 85.224 119.281 76.34C122.328 67.195 122.197 58.541 119.281 46.811ZM77.326 102.417C80.353 102.417 82.805 104.896 82.805 107.964C82.805 111.04 80.354 113.543 77.326 113.543C74.311 113.543 71.848 111.041 71.848 107.964C71.848 104.896 74.311 102.417 77.326 102.417Z" fill="#FFD845"/>
</g>
<defs>
<clipPath id="clip0_125_6">
<rect width="122" height="124" fill="white"/>
</clipPath>
</defs>
</svg>
