<?xml version="1.0" encoding="utf-8"?>
<!-- Generator: Adobe Illustrator 16.0.3, SVG Export Plug-In . SVG Version: 6.00 Build 0)  -->
<!DOCTYPE svg PUBLIC "-//W3C//DTD SVG 1.1//EN" "http://www.w3.org/Graphics/SVG/1.1/DTD/svg11.dtd">
<svg version="1.1" id="Capa_1" xmlns="http://www.w3.org/2000/svg" xmlns:xlink="http://www.w3.org/1999/xlink" x="0px" y="0px"
	 width="595.281px" height="596.445px" viewBox="0 0 595.281 596.445" enable-background="new 0 0 595.281 596.445"
	 xml:space="preserve">
<path fill="#FFFFFF" d="M292.804,1.124c-1.079,0.628-5.595,7.106-10.045,14.403c-11.162,18.323-11.283,18.332-26.276,2.558
	c-9.757-10.269-12.115-12.147-15.254-12.124c-2.046,0.009-4.627,0.707-5.744,1.544s-4.26,7.497-6.995,14.803
	c-6.26,16.742-6.557,17.277-10.026,17.951c-2.14,0.4-6.246-1.893-16.105-8.971c-7.278-5.232-14.417-9.511-15.863-9.511
	c-6.004,0-7.697,3.283-10.557,20.463c-3.627,21.844-3.507,21.77-23.197,12.826c-7.953-3.608-15.487-6.558-16.756-6.558
	c-1.274,0-3.684,1.363-5.348,3.032c-3.032,3.032-3.037,3.047-2.209,19.747l0.828,16.719l-3.163,1.693
	c-2.799,1.497-4.729,1.315-17.133-1.619c-16.184-3.822-19.607-3.72-22.881,0.698l-2.4,3.223l3.218,13.784
	c1.767,7.581,3.465,14.882,3.786,16.217c0.312,1.335-0.232,3.47-1.209,4.744c-1.619,2.083-3.335,2.278-18.324,2.046
	c-25.355-0.399-26.792,1.776-16.324,24.648c3.339,7.255,6.069,13.858,6.069,14.649c0,4.177-3.335,5.692-17.645,8.031
	c-8.009,1.303-14.966,2.372-15.468,2.372c-0.498,0-2,1.093-3.334,2.428c-4.357,4.354-3.121,8.445,6.757,22.388
	c12.306,17.37,12.287,17.44-8.045,25.212c-23.118,8.845-23.588,11.021-5.985,27.718c16.394,15.551,16.417,15.323-2.144,26.992
	c-14.063,8.826-14.277,9.04-14.635,13.83c-0.433,5.828-0.331,5.931,16.454,16.185c16.603,10.139,16.603,10.445,0.312,25.857
	c-17.523,16.575-16.984,18.993,6.153,27.723c20.216,7.627,20.244,7.72,7.916,25.086c-6.985,9.845-9.213,13.951-9.213,16.988
	c0,5.688,2.962,7.139,20.649,10.11c14.91,2.512,18.23,3.985,18.23,8.097c0,0.847-2.735,7.497-6.079,14.775
	c-10.399,22.648-9.213,24.532,15.394,24.532c22.928,0,22.318-0.698,17.379,19.97c-3.72,15.579-3.781,18.565-0.409,21.928
	c2.577,2.586,7.441,2.297,22.648-1.344c11.622-2.772,13.659-2.963,16.352-1.525l3.069,1.646l-0.823,16.715
	c-0.828,16.71-0.823,16.719,2.209,19.756c1.665,1.674,4.111,3.032,5.418,3.032c1.312,0,8.85-2.93,16.761-6.529
	c19.625-8.911,19.505-8.985,23.127,12.789c2.87,17.258,4.544,20.463,10.668,20.463c1.521,0,8.511-4.093,15.533-9.106
	c12.343-8.804,15.542-10.185,18.831-8.092c0.846,0.535,4.139,7.767,7.311,16.067c4.665,12.208,6.372,15.394,8.971,16.631
	c4.939,2.372,7.999,0.465,19.616-12.185c14.026-15.282,14.603-15.207,26.053,3.349c12.649,20.49,15.923,20.444,28.89-0.414
	c11.17-17.97,11.039-17.961,26.141-2.186c10.031,10.464,12.166,12.138,15.547,12.138c2.158,0,4.738-0.813,5.721-1.804
	c0.994-0.991,4.277-8.307,7.291-16.259c3.02-7.953,6.145-14.882,6.953-15.394c3.195-2.028,6.502-0.604,18.826,8.147
	c7.256,5.153,14.082,9.115,15.705,9.115c6.027,0,8.203-4.278,10.705-21.091c2.141-14.333,2.578-15.709,5.395-17.137
	c2.773-1.405,4.438-0.931,17.441,4.976c7.91,3.581,15.453,6.521,16.76,6.521c1.313,0,3.795-1.404,5.506-3.125l3.127-3.116
	l-0.857-16.035c-0.822-15.301-0.744-16.129,1.693-18.338c2.512-2.27,2.771-2.26,16.813,0.949c17.002,3.883,20.174,3.985,23.369,0.79
	c3.121-3.115,3.088-3.804-1.182-21.812c-4.789-20.211-5.432-19.485,17.58-19.485c15.691,0,17.439-0.229,19.439-2.433
	c3.34-3.688,2.543-7.915-4.166-22.226c-3.391-7.208-6.141-13.766-6.117-14.579c0.111-4.251,3.455-5.707,18.906-8.218
	c9.453-1.53,16.523-3.303,17.807-4.465c4.293-3.874,2.715-8.92-7.084-22.662c-12.285-17.222-12.23-17.385,7.438-24.635
	c23.551-8.678,24.225-11.571,6.6-28.322c-16.324-15.51-16.334-15.426,1.549-26.401c21.615-13.269,21.648-16.259,0.381-29.462
	c-18.291-11.348-18.277-11.189-1.885-26.756c17.58-16.709,17.105-18.896-6.021-27.74c-20.406-7.809-20.473-7.999-8.068-25.021
	c7.385-10.139,9.217-13.501,9.217-16.975c0-6.074-2.725-7.432-20.631-10.325c-14.955-2.418-18.248-3.883-18.248-8.139
	c0-0.809,2.734-7.319,6.078-14.477c6.539-14.013,7.459-19.626,3.758-22.975c-1.99-1.8-4.65-2.061-18.914-1.823
	c-14.92,0.252-16.826,0.037-18.896-2.041c-2.26-2.27-2.232-2.591,1.293-17.324c4.33-18.044,4.35-18.486,0.791-21.83
	c-3.613-3.395-5.869-3.339-22.443,0.563c-12.078,2.846-14.078,3.036-16.822,1.567l-3.115-1.675l0.861-16.658l0.863-16.649
	l-3.115-3.116c-1.717-1.721-4.145-3.115-5.408-3.115c-1.256,0-8.762,2.976-16.664,6.608c-13.197,6.073-14.617,6.478-17.473,4.985
	c-2.846-1.488-3.32-2.963-5.752-17.808c-2.805-17.175-4.543-20.519-10.641-20.519c-1.447,0-8.617,4.302-15.934,9.558
	c-12.018,8.631-13.625,9.449-16.621,8.403c-2.479-0.865-3.92-2.744-5.678-7.437c-1.303-3.45-3.801-10.101-5.553-14.775
	c-3.545-9.431-5.521-11.542-10.828-11.542c-2.961,0-5.641,2.13-15.254,12.109c-15.113,15.696-15.166,15.691-26.275-2.534
	c-4.441-7.283-9.082-13.784-10.314-14.445C298.63-0.373,295.361-0.373,292.804,1.124 M306.57,55.992
	c13.16,9.366,6.166,31.392-9.971,31.392c-15.664,0-23.551-18.867-12.371-29.578c6.316-6.046,15.366-6.785,22.346-1.813
	 M290.027,114.157c8.627,3.279,12.166,1.312,31.867-17.672l14.797-14.277l6.266,0.837c19.648,2.604,58.723,19.765,81.176,35.651
	c20.631,14.604,48.051,44.339,59.738,64.783l2.496,4.381l-11.068,24.946c-6.092,13.72-11.078,26.383-11.078,28.15
	c0,4.083,2.68,10.543,5.256,12.678c1.088,0.906,11.426,5.883,22.969,11.059l20.975,9.418l0.828,5.339
	c1.07,6.952,1.209,24.03,0.242,28.881l-0.758,3.795h-11.977c-13.891,0-12.816-1.242-13.57,15.793
	c-0.549,12.353-3.533,19.18-10.324,23.603c-11.055,7.213-29.316,5.906-37.064-2.651c-1.186-1.32-3.498-7.93-5.139-14.696
	c-4.791-19.783-11.223-30.88-24.152-41.692c-4.082-3.409-7.418-6.595-7.418-7.078c0-0.475,4.488-4.256,9.977-8.386
	c19.988-15.067,31.484-32.61,32.74-49.98c2.414-33.14-23.988-64.024-63.258-74.037c-9.311-2.372-13.287-2.446-128.469-2.446
	c-65.374,0-118.87-0.429-118.87-0.949c0-1.223,14.533-15.324,23.09-22.397c23.504-19.431,54.031-34.717,85.651-42.879l10.929-2.837
	l15.533,15.752C279.963,105.907,288.339,113.52,290.027,114.157 M94.408,215.509c7.157,4.688,10.092,16.463,5.86,23.541
	c-6.534,10.957-23.095,11.418-29.639,0.828C61.114,224.489,79.442,205.7,94.408,215.509 M516.089,216.113
	c18.723,11.412,4.213,39.498-15.83,30.629c-13.381-5.92-13.813-24.211-0.721-30.88c5.459-2.791,11.732-2.693,16.555,0.246
	 M149.578,286.011v69.854h-61.76l-2.446-10.627c-4.818-20.928-6.846-42.581-5.632-60.314l0.846-12.459l21.23-9.52
	c13.319-5.967,21.886-10.521,22.988-12.208c4.827-7.367,4.372-12.627-2.409-27.593l-3.162-6.984h30.336v69.852 M327.357,219.192
	c13.223,3.441,20.207,10.44,20.227,20.253c0.01,7.209-3.559,11.72-12.418,15.719c-6.268,2.837-7.264,2.907-46.799,3.293
	l-40.395,0.391v-41.483h36.191C312.429,217.364,321.888,217.763,327.357,219.192 M313.712,319.431
	c6.559,1.823,14.305,7.516,18.277,13.432c4.176,6.218,6.617,14.305,12.402,41.093c4.885,22.648,8.033,30.043,16.836,39.679
	c10.906,11.934,8.371,11.469,62.85,11.469c26.09,0,47.426,0.418,47.426,0.93c0,0.916-17.965,22.156-18.742,22.156
	c-0.223,0-9.607-1.963-20.854-4.367c-31.758-6.781-32.902-5.985-40.189,28.053l-4.688,21.867l-4.232,2.083
	c-7.061,3.488-30.012,10.659-41.902,13.115c-19.664,4.046-41.057,5.403-59.859,3.818c-32.057-2.721-74.503-15.157-76.163-22.323
	c-0.349-1.521-2.488-11.361-4.734-21.877c-2.255-10.511-4.995-20.481-6.092-22.155c-5.255-8.018-10.78-8.511-35.098-3.135
	c-9.208,2.046-17.245,3.702-17.858,3.702c-1.153,0-18.245-19.761-18.245-21.091c0-0.419,40.591-0.902,90.204-1.069l90.2-0.308
	l0.324-32.042c0.232-22.626-0.084-32.541-1.068-33.718c-1.09-1.32-6.907-1.665-27.956-1.665h-26.578v-38.879l30.68,0.005
	C295.515,318.213,311.298,318.761,313.712,319.431 M174.724,465.154c14.342,8.743,7.464,31.643-9.501,31.624
	c-17.393,0-23.844-22.694-9.022-31.745C161.107,462.043,169.725,462.103,174.724,465.154 M437.392,466.112
	c7.031,5.153,9.371,15.873,5.018,23.021c-11.441,18.761-40.051,3.847-30.494-15.9c4.697-9.696,17.184-13.193,25.477-7.115"/>
</svg>
