<svg width="91" height="91" viewBox="0 0 91 91" fill="none" xmlns="http://www.w3.org/2000/svg">
<g clip-path="url(#clip0_134_3297)">
<path d="M45.4502 45.45H90.9002C90.9002 51.4185 89.7246 57.3287 87.4405 62.8429C85.1564 68.3572 81.8086 73.3675 77.5882 77.5879C73.3678 81.8084 68.3574 85.1562 62.8432 87.4403C57.3289 89.7243 51.4188 90.8999 45.4502 90.8999V45.45Z" fill="#5854FF"/>
<path d="M45.45 0H0V45.45C0 57.5041 4.78846 69.0644 13.312 77.588C21.8355 86.1115 33.3959 90.9 45.45 90.9V0Z" fill="#FF3666"/>
<path d="M68.1752 45.45C80.7258 45.45 90.9002 35.2757 90.9002 22.725C90.9002 10.1743 80.7258 0 68.1752 0C55.6245 0 45.4502 10.1743 45.4502 22.725C45.4502 35.2757 55.6245 45.45 68.1752 45.45Z" fill="#FFC329"/>
</g>
<defs>
<clipPath id="clip0_134_3297">
<rect width="90.9" height="90.9" fill="white"/>
</clipPath>
</defs>
</svg>
