<svg width="26" height="32" viewBox="0 0 26 32" fill="none" xmlns="http://www.w3.org/2000/svg">
<path fill-rule="evenodd" clip-rule="evenodd" d="M5.11707 0H20.1164C22.9152 0 25.1163 2.2009 25.0107 4.90249V21.302C25.0107 23.9993 22.8138 26.2002 20.112 26.2002H16.8124L18.6137 31.9991L9.91489 26.2002H5.11707C2.31829 26.2002 0.117188 23.9993 0.117188 21.2009V4.90249C0.117188 2.2009 2.31829 0 5.11707 0ZM10.9424 17.9988C10.4318 17.7185 10.0237 17.3085 9.71802 16.7689C9.41278 16.2296 9.26016 15.5836 9.26016 14.8309V6.08851C9.26005 5.95367 9.22987 5.85076 9.16961 5.77979C9.10934 5.70882 9.00826 5.67334 8.86634 5.67334H6.63061C6.57986 5.67248 6.52957 5.68305 6.48345 5.70425C6.43734 5.72546 6.39658 5.75676 6.36419 5.79584C6.29344 5.8767 6.25547 5.98109 6.25775 6.08851V14.7885C6.25786 16.1799 6.54355 17.3477 7.11483 18.2917C7.68567 19.236 8.45373 19.9389 9.419 20.4002C10.3843 20.8615 11.4596 21.0921 12.6449 21.0921C13.8373 21.0921 14.9144 20.8668 15.8763 20.4161C16.8381 19.9653 17.6046 19.2697 18.176 18.329C18.7474 17.3884 19.0331 16.2188 19.0331 14.8202V6.09916C19.0346 6.04336 19.025 5.98781 19.0049 5.93574C18.9848 5.88368 18.9545 5.83612 18.9159 5.79584C18.8378 5.71417 18.7314 5.67334 18.5966 5.67334H16.4678C16.3398 5.67334 16.2368 5.71242 16.1588 5.7906C16.0807 5.86878 16.0417 5.97163 16.0417 6.09916V14.8309C16.0417 15.5337 15.8908 16.1585 15.5891 16.7052C15.2876 17.2519 14.8778 17.6742 14.3596 17.9723C13.8414 18.2704 13.27 18.4194 12.6454 18.4194C12.0207 18.4194 11.453 18.2792 10.9424 17.9988Z" fill="#315CFD"/>
</svg>
