<svg width="126" height="25" viewBox="0 0 126 25" fill="none" xmlns="http://www.w3.org/2000/svg">
<path d="M21.9646 11.4271L17.7459 15.0674L19.0312 20.5115C19.1021 20.807 19.0838 21.117 18.9787 21.4021C18.8736 21.6873 18.6863 21.9349 18.4405 22.1137C18.1947 22.2924 17.9015 22.3943 17.5978 22.4065C17.2941 22.4187 16.9936 22.3406 16.7343 22.1821L11.9999 19.2684L7.26275 22.1821C7.00347 22.3397 6.70335 22.4171 6.4002 22.4044C6.09704 22.3918 5.8044 22.2897 5.55913 22.1111C5.31386 21.9325 5.12692 21.6853 5.02185 21.4007C4.91679 21.116 4.89829 20.8066 4.96869 20.5115L6.25869 15.0674L2.03994 11.4271C1.81053 11.2289 1.64462 10.9674 1.56293 10.6754C1.48123 10.3834 1.48737 10.0738 1.58058 9.78526C1.67379 9.49672 1.84994 9.24205 2.08703 9.05303C2.32412 8.86401 2.61164 8.74903 2.91369 8.72244L8.44494 8.27619L10.5787 3.11244C10.6942 2.83102 10.8908 2.5903 11.1434 2.42088C11.3961 2.25147 11.6934 2.16101 11.9976 2.16101C12.3018 2.16101 12.5991 2.25147 12.8518 2.42088C13.1044 2.5903 13.301 2.83102 13.4165 3.11244L15.5493 8.27619L21.0806 8.72244C21.3832 8.74804 21.6716 8.86238 21.9095 9.05114C22.1475 9.23989 22.3244 9.49467 22.4182 9.78356C22.512 10.0724 22.5185 10.3826 22.4368 10.6751C22.3551 10.9676 22.1889 11.2296 21.959 11.4281L21.9646 11.4271Z" fill="url(#paint0_linear_1997_12305)"/>
<path d="M47.4646 11.4271L43.2459 15.0674L44.5312 20.5115C44.6021 20.807 44.5838 21.117 44.4787 21.4021C44.3736 21.6873 44.1863 21.9349 43.9405 22.1137C43.6947 22.2924 43.4015 22.3943 43.0978 22.4065C42.7941 22.4187 42.4936 22.3406 42.2343 22.1821L37.4999 19.2684L32.7628 22.1821C32.5035 22.3397 32.2034 22.4171 31.9002 22.4044C31.597 22.3918 31.3044 22.2897 31.0591 22.1111C30.8139 21.9325 30.6269 21.6853 30.5219 21.4007C30.4168 21.116 30.3983 20.8066 30.4687 20.5115L31.7587 15.0674L27.5399 11.4271C27.3105 11.2289 27.1446 10.9674 27.0629 10.6754C26.9812 10.3834 26.9874 10.0738 27.0806 9.78526C27.1738 9.49672 27.3499 9.24205 27.587 9.05303C27.8241 8.86401 28.1116 8.74903 28.4137 8.72244L33.9449 8.27619L36.0787 3.11244C36.1942 2.83102 36.3908 2.5903 36.6434 2.42088C36.8961 2.25147 37.1934 2.16101 37.4976 2.16101C37.8018 2.16101 38.0991 2.25147 38.3518 2.42088C38.6044 2.5903 38.801 2.83102 38.9165 3.11244L41.0493 8.27619L46.5806 8.72244C46.8832 8.74804 47.1716 8.86238 47.4095 9.05114C47.6475 9.23989 47.8244 9.49467 47.9182 9.78356C48.012 10.0724 48.0185 10.3826 47.9368 10.6751C47.8551 10.9676 47.6889 11.2296 47.459 11.4281L47.4646 11.4271Z" fill="url(#paint1_linear_1997_12305)"/>
<path d="M72.9646 11.4271L68.7459 15.0674L70.0312 20.5115C70.1021 20.807 70.0838 21.117 69.9787 21.4021C69.8736 21.6873 69.6863 21.9349 69.4405 22.1137C69.1947 22.2924 68.9015 22.3943 68.5978 22.4065C68.2941 22.4187 67.9936 22.3406 67.7343 22.1821L62.9999 19.2684L58.2628 22.1821C58.0035 22.3397 57.7034 22.4171 57.4002 22.4044C57.097 22.3918 56.8044 22.2897 56.5591 22.1111C56.3139 21.9325 56.1269 21.6853 56.0219 21.4007C55.9168 21.116 55.8983 20.8066 55.9687 20.5115L57.2587 15.0674L53.0399 11.4271C52.8105 11.2289 52.6446 10.9674 52.5629 10.6754C52.4812 10.3834 52.4874 10.0738 52.5806 9.78526C52.6738 9.49672 52.8499 9.24205 53.087 9.05303C53.3241 8.86401 53.6116 8.74903 53.9137 8.72244L59.4449 8.27619L61.5787 3.11244C61.6942 2.83102 61.8908 2.5903 62.1434 2.42088C62.3961 2.25147 62.6934 2.16101 62.9976 2.16101C63.3018 2.16101 63.5991 2.25147 63.8518 2.42088C64.1044 2.5903 64.301 2.83102 64.4165 3.11244L66.5493 8.27619L72.0806 8.72244C72.3832 8.74804 72.6716 8.86238 72.9095 9.05114C73.1475 9.23989 73.3244 9.49467 73.4182 9.78356C73.512 10.0724 73.5185 10.3826 73.4368 10.6751C73.3551 10.9676 73.1889 11.2296 72.959 11.4281L72.9646 11.4271Z" fill="url(#paint2_linear_1997_12305)"/>
<path d="M98.4646 11.4271L94.2459 15.0674L95.5312 20.5115C95.6021 20.807 95.5838 21.117 95.4787 21.4021C95.3736 21.6873 95.1863 21.9349 94.9405 22.1137C94.6947 22.2924 94.4015 22.3943 94.0978 22.4065C93.7941 22.4187 93.4936 22.3406 93.2343 22.1821L88.4999 19.2684L83.7628 22.1821C83.5035 22.3397 83.2034 22.4171 82.9002 22.4044C82.597 22.3918 82.3044 22.2897 82.0591 22.1111C81.8139 21.9325 81.6269 21.6853 81.5219 21.4007C81.4168 21.116 81.3983 20.8066 81.4687 20.5115L82.7587 15.0674L78.5399 11.4271C78.3105 11.2289 78.1446 10.9674 78.0629 10.6754C77.9812 10.3834 77.9874 10.0738 78.0806 9.78526C78.1738 9.49672 78.3499 9.24205 78.587 9.05303C78.8241 8.86401 79.1116 8.74903 79.4137 8.72244L84.9449 8.27619L87.0787 3.11244C87.1942 2.83102 87.3908 2.5903 87.6434 2.42088C87.8961 2.25147 88.1934 2.16101 88.4976 2.16101C88.8018 2.16101 89.0991 2.25147 89.3518 2.42088C89.6044 2.5903 89.801 2.83102 89.9165 3.11244L92.0493 8.27619L97.5806 8.72244C97.8832 8.74804 98.1716 8.86238 98.4095 9.05114C98.6475 9.23989 98.8244 9.49467 98.9182 9.78356C99.012 10.0724 99.0185 10.3826 98.9368 10.6751C98.8551 10.9676 98.6889 11.2296 98.459 11.4281L98.4646 11.4271Z" fill="url(#paint3_linear_1997_12305)"/>
<path d="M123.965 11.4271L119.746 15.0674L121.031 20.5115C121.102 20.807 121.084 21.117 120.979 21.4021C120.874 21.6873 120.686 21.9349 120.441 22.1137C120.195 22.2924 119.901 22.3943 119.598 22.4065C119.294 22.4187 118.994 22.3406 118.734 22.1821L114 19.2684L109.263 22.1821C109.003 22.3397 108.703 22.4171 108.4 22.4044C108.097 22.3918 107.804 22.2897 107.559 22.1111C107.314 21.9325 107.127 21.6853 107.022 21.4007C106.917 21.116 106.898 20.8066 106.969 20.5115L108.259 15.0674L104.04 11.4271C103.811 11.2289 103.645 10.9674 103.563 10.6754C103.481 10.3834 103.487 10.0738 103.581 9.78526C103.674 9.49672 103.85 9.24205 104.087 9.05303C104.324 8.86401 104.612 8.74903 104.914 8.72244L110.445 8.27619L112.579 3.11244C112.694 2.83102 112.891 2.5903 113.143 2.42088C113.396 2.25147 113.693 2.16101 113.998 2.16101C114.302 2.16101 114.599 2.25147 114.852 2.42088C115.104 2.5903 115.301 2.83102 115.417 3.11244L117.549 8.27619L123.081 8.72244C123.383 8.74804 123.672 8.86238 123.91 9.05114C124.147 9.23989 124.324 9.49467 124.418 9.78356C124.512 10.0724 124.518 10.3826 124.437 10.6751C124.355 10.9676 124.189 11.2296 123.959 11.4281L123.965 11.4271Z" fill="url(#paint4_linear_1997_12305)"/>
<defs>
<linearGradient id="paint0_linear_1997_12305" x1="22.4936" y1="2.16101" x2="2.25997" y2="23.1352" gradientUnits="userSpaceOnUse">
<stop stop-color="#D837F8"/>
<stop offset="1" stop-color="#3747F8"/>
</linearGradient>
<linearGradient id="paint1_linear_1997_12305" x1="47.9936" y1="2.16101" x2="27.76" y2="23.1352" gradientUnits="userSpaceOnUse">
<stop stop-color="#D837F8"/>
<stop offset="1" stop-color="#3747F8"/>
</linearGradient>
<linearGradient id="paint2_linear_1997_12305" x1="73.4936" y1="2.16101" x2="53.26" y2="23.1352" gradientUnits="userSpaceOnUse">
<stop stop-color="#D837F8"/>
<stop offset="1" stop-color="#3747F8"/>
</linearGradient>
<linearGradient id="paint3_linear_1997_12305" x1="98.9936" y1="2.16101" x2="78.76" y2="23.1352" gradientUnits="userSpaceOnUse">
<stop stop-color="#D837F8"/>
<stop offset="1" stop-color="#3747F8"/>
</linearGradient>
<linearGradient id="paint4_linear_1997_12305" x1="124.494" y1="2.16101" x2="104.26" y2="23.1352" gradientUnits="userSpaceOnUse">
<stop stop-color="#D837F8"/>
<stop offset="1" stop-color="#3747F8"/>
</linearGradient>
</defs>
</svg>
