<svg width="10" height="10" viewBox="0 0 10 10" fill="none" xmlns="http://www.w3.org/2000/svg">
<path d="M4.97982 9.50409C4.89182 8.98409 4.65982 8.42409 4.28382 7.82409C3.90782 7.21609 3.37182 6.65209 2.67582 6.13209C1.98782 5.61209 1.29982 5.28009 0.611816 5.13609V4.63209C1.29182 4.47209 1.94382 4.17609 2.56782 3.74409C3.19982 3.30409 3.72782 2.77609 4.15182 2.16009C4.58382 1.52809 4.85982 0.904086 4.97982 0.288086H5.48382C5.55582 0.688086 5.69982 1.10009 5.91582 1.52409C6.13182 1.94009 6.40782 2.34009 6.74382 2.72409C7.08782 3.10009 7.47182 3.44009 7.89582 3.74409C8.52782 4.19209 9.17182 4.48809 9.82782 4.63209V5.13609C9.38782 5.22409 8.93182 5.40409 8.45982 5.67609C7.99582 5.94809 7.56382 6.27209 7.16382 6.64809C6.76382 7.01609 6.43582 7.40409 6.17982 7.81209C5.80382 8.41209 5.57182 8.97609 5.48382 9.50409H4.97982Z" fill="url(#paint0_linear_16_4)"/>
<defs>
<linearGradient id="paint0_linear_16_4" x1="7" y1="2.5" x2="3.49987" y2="7.49991" gradientUnits="userSpaceOnUse">
<stop stop-color="#D837F8"/>
<stop offset="1" stop-color="#3747F8"/>
</linearGradient>
</defs>
</svg>
