<svg width="1008" height="781" viewBox="0 0 1008 781" fill="none" xmlns="http://www.w3.org/2000/svg">
<path fill-rule="evenodd" clip-rule="evenodd" d="M695.8 0.700195H311.8C285.3 0.800195 263.9 22.2002 263.8 48.7002V432.7C263.9 459.2 285.3 480.6 311.8 480.7H695.8C722.3 480.6 743.7 459.2 743.8 432.7V48.7002C743.7 22.3002 722.3 0.900195 695.8 0.700195ZM460.6 269.1C450.9 290.3 425.9 299.7 404.7 290C383.5 280.3 374.1 255.3 383.8 234.1C393.5 212.9 418.5 203.5 439.7 213.2C449 217.4 456.4 224.8 460.6 234.1H493.8C484.1 194.5 444.2 170.2 404.6 179.9C365 189.6 340.7 229.5 350.4 269.1C360.1 308.7 400 333 439.6 323.3C466.4 316.8 487.3 295.9 493.8 269.1H460.6ZM578.4 177.701H583.8C605.3 177.701 625.7 187.101 639.7 203.401C666.1 234.201 662.4 280.601 631.6 306.901C625.3 312.301 618.1 316.601 610.4 319.501C587.9 328.201 562.6 325.401 542.6 311.901V319.501H512.4V108.101H542.4V190.301C553.1 183.101 565.5 178.701 578.4 177.701ZM625.8 259.101C625.9 258.601 625.9 258.201 625.8 257.701V256.701C626.5 255.101 627.1 253.501 627.6 251.901C627.6 228.501 608.6 209.501 585.2 209.501H581C566.3 211.001 553.4 220.101 547 233.501C544.3 239.101 543 245.301 543 251.501C543 257.301 544.1 263.101 546.4 268.501C546.709 269.194 547.195 269.859 547.677 270.516C548.445 271.564 549.2 272.594 549.2 273.701C551.2 277.001 553.7 280.101 556.6 282.701C559.4 285.301 562.6 287.501 566 289.101C569.4 290.701 573.1 291.901 576.8 292.501H578.2H583.8H590.4H594.4C597.2 291.801 600 290.801 602.6 289.501C611.4 285.401 618.5 278.301 622.6 269.501C623.4 267.801 624.1 266.101 624.6 264.301C625.2 262.601 625.6 260.901 625.8 259.101Z" fill="white"/>
<path d="M1007.4 662.3C1007.4 633.1 987.5 616.1 961.3 616.1C936.1 615.2 914.9 634.9 913.9 660.2C913.9 661.4 913.9 662.6 913.9 663.9C912.8 689.4 932.6 711 958.1 712.1C959.1 712.1 960.2 712.2 961.2 712.1C970.9 712.2 980.4 709.8 988.8 705.1C997.6 700.1 1003.9 691.8 1006.5 682H987.3C982.6 690.5 974.2 694.6 962.3 694.6C946.2 694.6 934.3 682 934.3 670H1007.2C1007.4 666.7 1007.4 664.5 1007.4 662.3ZM934 653.1C936.7 640.8 947.9 632.4 960.5 633.2C974.3 633.2 985.6 641.5 987.3 653.1H934.3H934Z" fill="white"/>
<path d="M73.6 675.901C67.1 689.701 50.6 695.701 36.8 689.201C23 682.701 17 666.201 23.5 652.401C30 638.601 46.5 632.601 60.3 639.101C66.4 642.001 71.2 646.901 73.9 653.101H95.3C89 627.201 62.9 611.301 37 617.601C11.1 623.901 -4.79999 650.001 1.50001 675.901C7.80001 701.801 33.9 717.701 59.8 711.401C77.3 707.101 91 693.401 95.3 675.901H73.9H73.6Z" fill="white"/>
<path d="M171.8 620.2C165.8 617.4 159.2 616 152.5 616.1C145.6 616.2 138.9 618.2 133.1 622.1V619.4H113.4V708.9H133.2V666C132.9 660.2 133.3 654.3 134.4 648.6V648.2C135.6 644.3 138.2 641.1 141.8 639.2C148.3 635 156.7 635 163.2 639.2L171.8 620.2Z" fill="white"/>
<path d="M246.7 619.4V662.3C247 668.1 246.6 674 245.5 679.7V680.1C244.3 683.9 241.7 687.1 238.2 689C231.7 693.2 223.3 693.2 216.8 689C213.3 687.1 210.7 683.9 209.5 680.1V679.7C208.4 674 208 668.1 208.3 662.3V619.4H188.5V668.2C188 676.2 189.2 684.2 191.9 691.7C195 698.9 200.7 704.7 208 707.8C214 710.6 220.6 712 227.3 711.9C234.2 711.8 240.9 709.8 246.7 705.9V708.8H266.3V619.3H246.7V619.4Z" fill="white"/>
<path d="M310.4 708.901V666C310.1 660.1 310.6 654.3 311.7 648.5V648.101C312.9 644.301 315.5 641.1 319 639.2C325.5 635 333.9 635 340.4 639.2C343.9 641.1 346.5 644.301 347.7 648.101V648.5C348.8 654.3 349.2 660.1 348.8 666V708.901H368.5V660.101C369 652.101 367.9 644.101 365.3 636.601C362.2 629.401 356.5 623.6 349.2 620.5C343.2 617.7 336.6 616.301 329.9 616.401C323 616.501 316.3 618.501 310.5 622.401V619.7H290.7V708.901H310.4Z" fill="white"/>
<path d="M459.9 675.901C453.4 689.701 436.9 695.701 423.1 689.201C409.3 682.701 403.3 666.201 409.8 652.401C416.3 638.601 432.8 632.601 446.6 639.101C452.7 642.001 457.5 646.901 460.2 653.101H481.6C475.3 627.201 449.2 611.301 423.3 617.601C397.4 623.901 381.5 650.001 387.8 675.901C394.1 701.801 420.2 717.701 446.1 711.401C463.6 707.101 477.3 693.401 481.6 675.901H460.2H459.9Z" fill="white"/>
<path d="M519.5 708.9V666C519.2 660.2 519.6 654.3 520.7 648.6V648.2C521.9 644.3 524.5 641.1 528.1 639.2C534.6 635 543 635 549.5 639.2C553 641.1 555.6 644.3 556.8 648.1V648.5C557.9 654.2 558.3 660.1 558 665.9V708.8H577.7V660C578.2 652 577 644 574.3 636.5C571.2 629.3 565.5 623.5 558.2 620.4C552.2 617.6 545.6 616.2 538.9 616.3C532 616.4 525.3 618.4 519.5 622.3V570.7H499.7V708.9H519.5Z" fill="white"/>
<path d="M648.7 616.1H645.2C636.7 616.7 628.6 619.6 621.6 624.4V570.7H602V708.9H621.7V703.9C643.5 719.2 673.6 714 688.9 692.2C704.2 670.4 699 640.3 677.2 625C668.8 619.1 658.9 616 648.7 616.1ZM676.3 667.8V668.7C676.1 669.8 675.9 671 675.5 672.1C675.1 673.3 674.7 674.5 674.2 675.6V676C670.5 683.8 663.3 689.4 654.8 691.2L652.2 691.6H651.6C650.6 691.7 649.6 691.7 648.6 691.6C647.3 691.6 646.1 691.5 644.8 691.3H643.9C641.5 690.9 639.1 690.2 636.9 689.2H636.4C634.1 688.1 632.1 686.7 630.2 685C628.3 683.3 626.7 681.3 625.3 679.2C624.6 678.1 624 677 623.5 675.8C620.3 668.5 620.4 660.2 623.8 653C627.9 644.2 636.4 638.3 646 637.3C646.9 637.3 647.9 637.3 648.8 637.3C663.7 637.5 675.7 649.4 676.1 664.2C676.4 665.4 676.4 666.6 676.3 667.8Z" fill="white"/>
<path d="M898 646.201V645.701C898 631.101 886.8 616.301 861.8 616.001C836.8 615.701 826 630.701 825.7 645.101V646.201C826.2 654.601 831.1 665.301 849.7 669.701L866.3 673.501C870.6 674.501 877.9 676.901 878.5 682.301C878.5 689.901 868.8 693.801 861.8 693.801C853.8 693.801 845.1 689.301 845.1 682.201V681.801H825.6V682.101C825.6 696.701 836.8 711.501 861.8 711.801C886.8 712.101 898 696.701 898 682.101V681.801C897.6 673.301 893 662.401 874 658.001L857.4 654.201C853.8 653.401 845.2 650.901 845.2 645.501C845.2 637.001 853.8 634.001 861.9 634.001C870 634.001 878.6 638.501 878.6 645.601V646.101H898V646.201Z" fill="white"/>
<path d="M712.8 664.1C713 690.8 734.9 712.2 761.5 711.9C770.9 711.8 780.1 709 787.9 703.8V708.9H807.6V619.4H788V624.8C781 620 772.9 617.1 764.4 616.5H760.9C734.5 616.6 713.1 637.8 712.8 664.1ZM733.1 664.1C733.1 648.8 745.5 636.5 760.8 636.4C761.7 636.4 762.7 636.4 763.6 636.4C773.2 637.4 781.7 643.4 785.8 652.1C789.2 659.3 789.3 667.6 786.1 674.9C785.6 676.1 785 677.2 784.3 678.3C782.9 680.5 781.3 682.4 779.4 684.1C777.5 685.8 775.4 687.2 773.2 688.3H772.7C770.5 689.3 768.1 690 765.7 690.4H764.8C763.6 690.6 762.3 690.7 761 690.7C760 690.8 759 690.8 758 690.7H757.6L755 690.3C746.7 688.4 739.8 682.9 736.1 675.2V674.8C735.6 673.7 735.1 672.5 734.8 671.3C734.5 670.2 734.2 669.1 734 667.9V667C733.7 666.2 733.4 665.2 733.1 664.1Z" fill="white"/>
</svg>
