<?xml version="1.0" encoding="UTF-8"?>
<svg id="Layer_1" data-name="Layer 1" xmlns="http://www.w3.org/2000/svg" version="1.1" viewBox="0 0 2192.6 480">
  <defs>
    <style>
      .cls-1 {
        fill-rule: evenodd;
      }

      .cls-1, .cls-2 {
        fill: #fff;
        stroke-width: 0px;
      }
    </style>
  </defs>
  <path class="cls-1" d="M432,0H48C21.5,0,.1,21.5,0,48v384c.1,26.5,21.5,47.9,48,48h384c26.5-.1,47.9-21.5,48-48V48c0-26.4-21.5-47.8-48-48ZM196.8,268.4c-9.7,21.2-34.7,30.6-55.9,20.9-21.2-9.7-30.6-34.7-20.9-55.9,9.7-21.2,34.7-30.6,55.9-20.9,9.3,4.2,16.7,11.6,20.9,20.9h33.2c-9.7-39.6-49.6-63.9-89.2-54.2-39.6,9.7-63.9,49.6-54.2,89.2,9.7,39.6,49.6,63.9,89.2,54.2,26.8-6.5,47.7-27.4,54.2-54.2h-33.2ZM314.6,177h5.4c21.5,0,41.9,9.4,55.9,25.7,26.4,30.8,22.7,77.2-8.1,103.5-6.3,5.4-13.5,9.7-21.2,12.6-22.5,8.7-47.8,5.9-67.8-7.6v7.6h-30.2V107.4h30v82.2c10.7-7.2,23.1-11.6,36-12.6ZM362,258.4c.1-.5.1-.9,0-1.4v-1c.7-1.6,1.3-3.2,1.8-4.8,0-23.4-19-42.4-42.4-42.4h-4.2c-14.7,1.5-27.6,10.6-34,24-2.7,5.6-4,11.8-4,18s1.1,11.6,3.4,17c.3.7.8,1.4,1.3,2,.8,1,1.5,2.1,1.5,3.2,2,3.3,4.5,6.4,7.4,9,2.8,2.6,6,4.8,9.4,6.4,3.4,1.6,7.1,2.8,10.8,3.4h17.6c2.8-.7,5.6-1.7,8.2-3,8.8-4.1,15.9-11.2,20-20,.8-1.7,1.5-3.4,2-5.2.6-1.7,1-3.4,1.2-5.2Z"/>
  <g>
    <path class="cls-2" d="M2192.6,249.3c0-45.1-30.7-71.3-71.1-71.3-38.9-1.4-71.6,29-73.1,68.1v5.7c-1.7,39.4,28.9,72.7,68.2,74.4,1.5,0,3.2.2,4.8,0,15,.2,29.6-3.5,42.6-10.8,13.6-7.7,23.3-20.5,27.3-35.6h-29.6c-7.3,13.1-20.2,19.4-38.6,19.4s-43.2-19.4-43.2-38h112.5c.3-5.1.3-8.5.3-11.9ZM2079.3,235.1c4.2-19,21.4-31.9,40.9-30.7,21.3,0,38.7,12.8,41.4,30.7h-82.2Z"/>
    <path class="cls-2" d="M751.6,270.2c-10,21.3-35.5,30.6-56.8,20.5s-30.6-35.5-20.5-56.8c10-21.3,35.5-30.6,56.8-20.5,9.4,4.5,16.8,12,21,21.6h33c-9.7-40-50-64.5-90-54.8-40,9.7-64.5,50-54.8,90,9.7,40,50,64.5,90,54.8,27-6.6,48.1-27.8,54.8-54.8h-33.5Z"/>
    <path class="cls-2" d="M903.1,184.3c-9.3-4.3-19.4-6.5-29.8-6.3-10.6.2-21,3.2-29.9,9.3v-4.2h-30.4v138.1h30.6v-66.2c-.5-9,.2-18.1,1.9-26.9v-.6c1.9-6,5.9-11,11.4-13.9,10-6.5,23-6.5,33,0l13.3-29.3Z"/>
    <path class="cls-2" d="M1018.7,183.1v66.2c.5,9-.2,18.1-1.9,26.9v.6c-1.9,5.9-5.9,10.8-11.3,13.7-10,6.5-23,6.5-33,0-5.4-2.9-9.4-7.9-11.3-13.7v-.6c-1.7-8.8-2.3-17.9-1.9-26.9v-66.2h-30.6v75.3c-.8,12.3,1.1,24.7,5.2,36.3,4.8,11.1,13.6,20.1,24.8,24.8,9.3,4.3,19.4,6.5,29.8,6.3,10.6-.2,21-3.2,29.9-9.3v4.5h30.2v-138.1h-30.2v.2Z"/>
    <path class="cls-2" d="M1117,321.2v-66.2c-.5-9.1.3-18.1,2-27v-.6c1.9-5.9,5.9-10.8,11.3-13.7,10-6.5,23-6.5,33,0,5.4,2.9,9.4,7.9,11.3,13.7v.6c1.7,9,2.3,17.9,1.7,27v66.2h30.4v-75.3c.8-12.3-.9-24.7-4.9-36.3-4.8-11.1-13.6-20.1-24.8-24.8-9.3-4.3-19.4-6.5-29.8-6.3-10.6.2-21,3.2-29.9,9.3v-4.2h-30.6v137.6h30.4Z"/>
    <path class="cls-2" d="M1347.7,270.2c-10,21.3-35.5,30.6-56.8,20.5-21.3-10-30.6-35.5-20.5-56.8,10-21.3,35.5-30.6,56.8-20.5,9.4,4.5,16.8,12,21,21.6h33c-9.7-40-50-64.5-90-54.8-40,9.7-64.5,50-54.8,90,9.7,40,50,64.5,90,54.8,27-6.6,48.1-27.8,54.8-54.8h-33.5Z"/>
    <path class="cls-2" d="M1439.7,321.2v-66.2c-.5-9,.2-18.1,1.9-26.9v-.6c1.9-6,5.9-11,11.4-13.9,10-6.5,23-6.5,33,0,5.4,2.9,9.4,7.9,11.3,13.7v.6c1.7,8.8,2.3,17.9,1.9,26.9v66.2h30.4v-75.3c.8-12.3-1.1-24.7-5.2-36.3-4.8-11.1-13.6-20.1-24.8-24.8-9.3-4.3-19.4-6.5-29.8-6.3-10.6.2-21,3.2-29.9,9.3v-79.6h-30.6v213.3h30.6Z"/>
    <path class="cls-2" d="M1639,178h-5.4c-13.1.9-25.6,5.4-36.4,12.8v-82.9h-30.2v213.3h30.4v-7.7c33.6,23.6,80.1,15.6,103.7-18.1,23.6-33.6,15.6-80.1-18.1-103.7-13-9.1-28.2-13.9-44-13.7ZM1681.6,257.7v1.4c-.3,1.7-.6,3.5-1.2,5.2-.6,1.9-1.2,3.7-2,5.4v.6c-5.7,12-16.8,20.7-29.9,23.5l-4,.6h-.9c-1.5.2-3.1.2-4.6,0-2,0-3.9-.2-5.9-.5h-1.4c-3.7-.6-7.4-1.7-10.8-3.2h-.8c-3.5-1.7-6.6-3.9-9.6-6.5-2.9-2.6-5.4-5.7-7.6-9-1.1-1.7-2-3.4-2.8-5.2-4.9-11.3-4.8-24.1.5-35.2,6.3-13.6,19.4-22.7,34.3-24.2h4.3c23,.3,41.5,18.7,42.1,41.5.5,1.9.5,3.7.3,5.6Z"/>
    <path class="cls-2" d="M2023.7,224.4v-.8c0-22.5-17.3-45.4-55.9-45.8-38.6-.5-55.2,22.7-55.7,44.9v1.7c.8,13,8.3,29.5,37,36.3l25.6,5.9c6.6,1.5,17.9,5.2,18.8,13.6,0,11.7-15,17.7-25.8,17.7s-25.8-6.9-25.8-17.9v-.6h-30.1v.5c0,22.5,17.3,45.4,55.9,45.8,38.6.5,55.9-23.3,55.9-45.8v-.5c-.6-13.1-7.7-29.9-37-36.7l-25.6-5.9c-5.6-1.2-18.8-5.1-18.8-13.4,0-13.1,13.3-17.7,25.8-17.7s25.8,6.9,25.8,17.9v.8h29.9v.2Z"/>
    <path class="cls-2" d="M1737.9,252c.3,41.2,34.1,74.2,75.2,73.8,14.5-.2,28.7-4.5,40.7-12.5v7.9h30.4v-138.1h-30.2v8.3c-10.8-7.4-23.3-11.9-36.4-12.8h-5.4c-40.7.2-73.8,32.9-74.2,73.5ZM1769.3,252c0-23.6,19.1-42.6,42.7-42.7h4.3c14.8,1.5,27.9,10.8,34.3,24.2,5.2,11.1,5.4,23.9.5,35.2-.8,1.9-1.7,3.5-2.8,5.2-2.2,3.4-4.6,6.3-7.6,9-2.9,2.6-6.2,4.8-9.6,6.5h-.8c-3.4,1.5-7.1,2.6-10.8,3.2h-1.4c-1.9.3-3.9.5-5.9.5-1.5.2-3.1.2-4.6,0h-.6l-4-.6c-12.8-2.9-23.5-11.4-29.2-23.3v-.6c-.8-1.7-1.5-3.5-2-5.4-.5-1.7-.9-3.4-1.2-5.2v-1.4c-.5-1.2-.9-2.8-1.4-4.5Z"/>
  </g>
</svg>