<svg width="122" height="69" viewBox="0 0 122 69" fill="none" xmlns="http://www.w3.org/2000/svg">
<path d="M15.8852 38.8764C15.8852 42.0275 13.7283 44.1502 8.95373 44.1502H0.000488281V24.6182H8.68828C12.8336 24.6182 15.0572 26.4989 15.0572 29.7047C15.0572 31.992 13.73 33.5846 11.6419 34.1143C14.3917 34.7084 15.901 36.5464 15.901 38.8764H15.8852ZM5.37089 32.7413H7.46152C8.85413 32.7413 9.71543 32.2117 9.71543 30.8845C9.71543 29.5573 8.85413 29.0277 7.46152 29.0277H5.37089V32.7413ZM5.37089 39.674H8.19031C9.55086 39.674 10.3126 39.0769 10.3126 37.9484C10.3126 36.82 9.55044 36.2245 8.19031 36.2245H5.37089V39.674Z" fill="white"/>
<path d="M27.6714 41.2962C27.2401 43.3189 25.6804 44.5465 23.0627 44.5465C20.2754 44.5465 18.3198 42.8226 18.3198 39.2069V28.8286H23.6902V38.0814C23.6902 39.6202 24.1177 40.5179 25.3573 40.5345C26.7494 40.5345 27.6125 39.2736 27.6125 36.7871V28.8281H32.9854V44.1498H28.1767L27.6714 41.2962Z" fill="white"/>
<path d="M39.6579 38.8765C39.9592 40.1588 40.9402 40.8 42.0943 40.8C43.0565 40.8 43.7178 40.4683 43.7178 39.8058C43.7178 39.1432 43.1561 38.8462 42.0614 38.6136L40.0041 38.1811C37.2219 37.5848 35.7617 36.1584 35.7617 33.6386C35.7617 29.9237 38.9449 28.4648 42.3602 28.4648C46.0409 28.4648 48.2589 30.0036 48.8146 32.841L43.9392 33.5677C43.7708 32.7059 43.2424 32.2097 42.2136 32.2097C41.4502 32.2097 40.9193 32.5734 40.9193 33.1719C40.9193 33.7703 41.3467 34.0695 42.1589 34.1994L44.2136 34.5841C47.5981 35.1398 49.0437 36.9778 49.0437 39.5604C49.0437 43.1723 45.8913 44.5658 42.111 44.5658C38.629 44.5658 36.3089 43.3053 35.4463 40.5863L39.6579 38.8765Z" fill="white"/>
<path d="M53.9165 22.1974C55.5092 22.1974 56.8659 23.3087 56.8659 25.0151C56.8659 26.7394 55.5079 27.8358 53.9152 27.8358C52.3252 27.8358 50.9646 26.7398 50.9646 25.0151C50.9659 23.2959 52.3192 22.1846 53.9007 22.1974H53.9165ZM56.6043 28.8287V44.1505H51.2642V28.8287H56.6043Z" fill="white"/>
<path d="M64.9771 31.7792C65.7704 29.4933 67.5627 28.4648 69.8495 28.4648C72.2056 28.4648 74.3376 29.8754 74.3376 33.371V44.1507H68.9976V35.427C68.9976 33.8699 68.533 32.9073 67.1724 32.9073C66.0136 32.9073 65.0181 33.6053 65.0181 35.9592V44.1503H59.6785V28.8286H64.4872L64.9771 31.7792Z" fill="white"/>
<path d="M86.556 38.6136L91.0023 40.005C90.1372 43.2865 87.4182 44.547 84.368 44.547C79.8242 44.547 76.5085 41.6613 76.5085 36.6547C76.5085 31.4809 79.4259 28.4648 84.235 28.4648C88.7787 28.4648 91.1169 31.3715 91.1169 35.6288C91.1169 36.1845 91.1169 36.8539 91.0506 37.5519H81.7007C81.8003 39.4326 82.7266 40.4585 84.3081 40.4683C85.4302 40.479 86.1726 39.9661 86.5573 38.6136H86.556ZM86.0277 34.8367C86.0277 33.5095 85.5631 32.3507 84.07 32.3507C82.7783 32.3507 81.9486 33.4099 81.8161 34.8367H86.0277Z" fill="white"/>
<path d="M97.228 38.8765C97.5268 40.1588 98.5104 40.8 99.6645 40.8C100.627 40.8 101.29 40.4683 101.29 39.8058C101.29 39.1432 100.727 38.8462 99.6316 38.6136L97.5764 38.1811C94.789 37.5848 93.3315 36.1584 93.3315 33.6386C93.3315 29.9237 96.5142 28.4648 99.9299 28.4648C103.611 28.4648 105.829 30.0036 106.384 32.841L101.509 33.5677C101.343 32.7059 100.812 32.2097 99.7837 32.2097C99.0203 32.2097 98.492 32.5734 98.492 33.1719C98.492 33.7703 98.9194 34.0695 99.7316 34.1994L101.788 34.5841C105.171 35.1398 106.576 36.9778 106.576 39.5604C106.576 43.1723 103.426 44.5658 99.6457 44.5658C96.1637 44.5658 93.8435 43.3053 92.981 40.5863L97.228 38.8765Z" fill="white"/>
<path d="M112.638 38.8765C112.937 40.1588 113.92 40.8 115.074 40.8C116.034 40.8 116.698 40.4683 116.698 39.8058C116.698 39.1432 116.134 38.8462 115.039 38.6136L112.984 38.1811C110.199 37.5848 108.739 36.1584 108.739 33.6386C108.739 29.9237 111.922 28.4648 115.337 28.4648C119.018 28.4648 121.236 30.0036 121.792 32.841L116.916 33.5677C116.75 32.7059 116.219 32.2097 115.194 32.2097C114.43 32.2097 113.9 32.5734 113.9 33.1719C113.9 33.7703 114.327 34.0695 115.139 34.1994L117.194 34.5841C120.576 35.1398 122.024 36.9778 122.024 39.5604C122.024 43.1723 118.874 44.5658 115.091 44.5658C111.61 44.5658 109.289 43.3053 108.427 40.5863L112.638 38.8765Z" fill="white"/>
<path d="M10.9435 67.8048C10.313 67.2739 10.0805 66.5439 9.84837 65.6159L9.25123 63.1935C8.92081 61.8026 8.35659 61.5372 7.09691 61.5372H5.40466V67.8048H0.000488281V48.2715H8.35616C12.7336 48.2715 15.7509 49.9813 15.7509 54.4066C15.7509 57.4914 13.7599 59.0178 11.6056 59.379C13.3949 59.7637 14.2985 60.5331 14.7687 62.2429L15.6979 65.5932C15.9292 66.4481 16.2109 67.132 16.8948 67.8151H10.9435V67.8048ZM5.40423 57.158H7.49486C9.38502 57.158 10.2134 56.3963 10.2134 55.005C10.2134 53.6115 9.38502 52.8468 7.49486 52.8468H5.40423V57.158Z" fill="white"/>
<path d="M27.2629 62.2654L31.7067 63.6593C30.8436 66.9408 28.1255 68.2017 25.074 68.2017C20.5303 68.2017 17.2146 65.3186 17.2146 60.309C17.2146 55.1352 20.1336 52.1191 24.9411 52.1191C29.4869 52.1191 31.8229 55.0258 31.8229 59.2831C31.8229 59.8388 31.8229 60.5082 31.7567 61.2066H22.3888C22.4884 63.0873 23.4147 64.1132 24.9962 64.1226C26.1349 64.1166 26.8864 63.6464 27.2711 62.2654H27.2629ZM26.7333 58.4744C26.7333 57.1472 26.2674 55.9884 24.7757 55.9884C23.4839 55.9884 22.6547 57.048 22.5217 58.4744H26.7333Z" fill="white"/>
<path d="M32.5696 52.4824H38.208L39.9665 58.6509C40.5944 60.8736 40.9496 62.4124 40.9496 62.4004H41.0159C41.0159 62.4004 41.3476 60.8714 42.0443 58.6509L44.0353 52.4824H49.2399L43.6677 67.8041H37.9096L32.5696 52.4824Z" fill="white"/>
<path d="M53.5998 45.8486C55.195 45.8486 56.5491 46.96 56.5491 48.6693C56.5491 50.3787 55.1937 51.49 53.5985 51.49C52.0084 51.49 50.6504 50.3941 50.6504 48.6693C50.6504 46.9446 52.0097 45.8644 53.6015 45.8486H53.5998ZM56.2905 52.4826V67.8043H50.9479V52.4826H56.2905Z" fill="white"/>
<path d="M68.7493 62.2654L73.196 63.6593C72.3308 66.9408 69.6144 68.2017 66.5595 68.2017C62.0183 68.2017 58.7026 65.3186 58.7026 60.309C58.7026 55.1352 61.6199 52.1191 66.4291 52.1191C70.9703 52.1191 73.311 55.0258 73.311 59.2831C73.311 59.8388 73.311 60.5082 73.2447 61.2066H63.8897C63.9888 63.0873 64.9155 64.1132 66.4971 64.1226C67.6213 64.1166 68.3911 63.6464 68.733 62.2654H68.7493ZM68.2214 58.4744C68.2214 57.1472 67.7568 55.9884 66.2663 55.9884C64.9694 55.9884 64.1423 57.048 64.0098 58.4744H68.2214Z" fill="white"/>
<path d="M88.792 52.4824L89.8871 57.822C90.4483 60.5577 90.742 62.6522 90.742 62.6325H90.8083C90.8083 62.6325 91.14 60.6098 91.7709 57.8883L92.9959 52.4824H98.203L94.0581 67.8041H88.0568L87.1275 63.3267C86.6633 61.0732 86.2983 58.4183 86.2983 58.4183H86.2346C86.2346 58.4183 85.8696 61.0732 85.4054 63.3339L84.4761 67.8114H78.5128L74.3679 52.4897H79.7717L80.9967 57.8956C81.6276 60.6312 81.9798 62.6398 81.9798 62.6398H82.0461C82.0461 62.6398 82.3449 60.5812 82.9065 57.8293L84.0068 52.4897H88.792V52.4824Z" fill="white"/>
<path d="M33.8612 15.4543C33.8612 16.181 34.0749 16.5657 34.6306 16.5828C34.9601 16.5828 35.2944 16.4498 35.5928 16.284V20.0643C34.8627 20.5952 34.166 20.7931 32.9383 20.791C30.8832 20.791 29.7539 19.8647 29.1567 18.3712C28.298 19.9613 26.9375 20.8572 24.7485 20.8572C21.9291 20.8572 20.1719 19.1996 20.1719 16.5806C20.1719 13.2966 22.5267 11.6402 27.1354 11.6402H28.6947V10.6135C28.6947 9.61929 28.3617 8.92127 27.4021 8.92127C26.4728 8.92127 26.0428 9.48507 25.9753 10.7465L20.869 9.94885C21.1665 6.8003 23.6209 4.81055 27.5684 4.81055C31.9432 4.81055 33.8518 6.73404 33.8518 10.0839V15.4543H33.8612ZM28.6883 14.3609H27.9915C26.068 14.3609 25.4059 14.9568 25.4059 15.9536C25.4059 16.6802 25.9189 17.2359 26.8165 17.2449C27.7111 17.2449 28.6733 16.7807 28.6733 15.3573V14.3609H28.6883Z" fill="white"/>
<path d="M48.097 11.2098C47.469 10.9777 47.1014 10.8127 46.241 10.8127C44.98 10.8127 43.4536 11.3094 43.4536 14.03V20.4955H38.114V5.17383H42.6932L43.2215 8.95414C43.6528 6.40145 45.8101 5.17383 48.4287 5.17383L48.097 11.2098Z" fill="white"/>
<path d="M49.95 5.17383H55.5909L57.3447 11.3423C57.9778 13.565 58.3278 15.1038 58.3278 15.0892H58.3941C58.3941 15.0892 58.7262 13.5654 59.423 11.3423L61.4114 5.17383H66.6185L61.049 20.4955H55.29L49.95 5.17383Z" fill="white"/>
<path d="M80.7283 15.4543C80.7283 16.181 80.942 16.5657 81.4977 16.5828C81.8294 16.5828 82.1615 16.4498 82.4603 16.284V20.0643C81.7302 20.5952 81.0335 20.7931 79.808 20.7931C77.7512 20.7931 76.6227 19.8668 76.0252 18.3733C75.1647 19.9634 73.8046 20.8593 71.6169 20.8525C68.7962 20.8525 67.0403 19.1949 67.0403 16.5759C67.0403 13.2919 69.3938 11.6355 74.0038 11.6355H75.5609V10.6135C75.5609 9.61929 75.2314 8.92127 74.2696 8.92127C73.3404 8.92127 72.9091 9.48507 72.8428 10.7465L67.7353 9.94885C68.0362 6.8003 70.4868 4.81055 74.4355 4.81055C78.8129 4.81055 80.7189 6.73404 80.7189 10.0839V15.4543H80.7283ZM75.5545 14.3609H74.8604C72.9356 14.3609 72.2718 14.9568 72.2718 15.9536C72.2718 16.6802 72.7847 17.2359 73.6823 17.2449C74.5761 17.2449 75.5383 16.7807 75.5383 15.3573V14.3609H75.5545Z" fill="white"/>
<path d="M94.972 11.2098C94.3411 10.9777 93.9765 10.8127 93.1135 10.8127C91.8551 10.8127 90.3283 11.3094 90.3283 14.03V20.4955H84.9912V5.17383H89.5653L90.0962 8.95414C90.5275 6.40145 92.6818 5.17383 95.3037 5.17383L94.972 11.2098Z" fill="white"/>
<path d="M107.839 0H113.209V20.4955H108.37L107.872 17.8432C107.308 19.8967 105.483 20.8922 103.162 20.8922C99.5813 20.8922 97.0286 18.1074 97.0286 13.1324C97.0286 7.99149 99.4817 4.8096 103.793 4.8096C105.751 4.8096 107.298 5.70723 107.854 7.1631V0H107.839ZM107.872 11.7389C107.872 9.78248 106.91 8.72327 105.353 8.72327C103.793 8.72327 102.466 9.88464 102.466 12.9336C102.466 15.4555 103.534 16.7806 105.287 16.7806C106.645 16.7806 107.873 15.7543 107.873 13.6649V11.7389H107.872Z" fill="white"/>
<path d="M0.000488281 20.4959V0.963867H5.43885V8.22314H12.1365V0.963867H17.5748V20.4959H12.1365V12.934H5.43885V20.4959H0.000488281Z" fill="white"/>
</svg>
