<svg width="727" height="438" viewBox="0 0 727 438" fill="none" xmlns="http://www.w3.org/2000/svg">
<g clip-path="url(#clip0_45_14)">
<path d="M88.6 193.2V151.1H114.8V45H88.6V0H220.8V45H194.6V151.1H220.8V193.2H88.6Z" fill="white"/>
<path d="M347.2 193.2V151.1H364.6V107.5C364.6 94.4 355.9 88.6 342.8 88.6C328.3 88.6 316.7 98.8 315.2 113.3V151.1H334.2V193.2H232.4V151.1H249.8V88.6H232.4V46.5H313.8V75.6L318.2 71.2C331.3 55.2 353.1 46.5 373.4 48C405.4 48 431.5 61.1 431.5 95.9V151.1H448.9V193.2H347.2Z" fill="white"/>
<path d="M617.4 107.5L560.7 113.3C560.7 97.3001 556.3 81.3001 537.5 81.3001C512.8 81.3001 511.3 101.6 511.3 120.5C511.3 140.8 512.8 161.2 537.5 161.2C549.1 162.7 560.7 153.9 562.2 140.9V138H618.9V142.4C610.2 188.9 568.1 196.1 539 196.1C492.5 196.1 446 172.9 446 120.6C446 68.3001 492.5 45.1001 539 45.1001C537.5 46.5001 611.6 42.1001 617.4 107.5Z" fill="white"/>
<path d="M660.9 170C660.9 182.8 650.5 193.2 637.7 193.2C624.9 193.2 614.5 182.8 614.5 170C614.5 157.2 624.9 146.8 637.7 146.8C650.4 146.7 660.8 156.9 660.9 169.6C661 169.6 661 169.8 660.9 170Z" fill="white"/>
<path d="M262.9 212.1C206.3 212.1 174.3 249.9 174.3 324C174.3 398.1 206.3 435.8 262.9 435.8C319.5 435.8 351.5 398 351.5 323.9C351.5 249.8 318.2 212.1 262.9 212.1ZM262.9 390.8C242.6 390.8 238.2 370.5 238.2 324C238.2 277.5 242.6 257.2 262.9 257.2C283.2 257.2 287.6 277.5 287.6 324C287.6 370.5 283.3 390.8 262.9 390.8Z" fill="white"/>
<path d="M450.3 212.1C393.6 212.1 361.7 249.9 361.7 324C361.7 398.1 393.7 435.8 450.3 435.8C506.9 435.8 538.9 398 538.9 323.9C538.9 249.8 505.5 212.1 450.3 212.1ZM450.3 390.8C430 390.8 425.6 370.5 425.6 324C425.6 277.5 430 257.2 450.3 257.2C470.6 257.2 475 277.5 475 324C475 370.5 470.7 390.8 450.3 390.8Z" fill="white"/>
<path d="M637.7 212.1C581 212.1 549.1 249.9 549.1 324C549.1 398.1 581.1 435.8 637.7 435.8C694.3 435.8 726.3 398 726.3 323.9C726.3 249.8 692.9 212.1 637.7 212.1ZM637.7 390.8C617.4 390.8 613 370.5 613 324C613 277.5 617.4 257.2 637.7 257.2C658 257.2 662.4 277.5 662.4 324C662.4 370.5 658 390.8 637.7 390.8Z" fill="white"/>
<path d="M148.2 302.1C133.7 290.5 116.2 283.2 97.4 284.7C82.9 284.7 66.9 289.1 56.7 299.2L61.1 264.3H152.6V213.5H18.9L4.39999 315.2L43.6 335.5C53.8 326.8 65.4 321 78.5 321C85.8 321 91.6 323.9 97.4 328.3C104.7 335.6 107.6 345.7 107.6 355.9C107.6 360.3 107.6 364.6 106.1 367.5C104.7 380.6 93 389.3 80 387.8C55.3 387.8 56.8 357.3 62.6 345.7L0 379.1C4.4 418.3 45 437.2 78.4 437.2C101.6 437.2 123.4 429.9 139.4 415.4C145.2 409.6 151 403.8 155.4 395.1C162.7 383.5 165.6 369 165.6 355.9C168.5 335.6 161.2 316.7 148.2 302.1Z" fill="white"/>
</g>
<defs>
<clipPath id="clip0_45_14">
<rect width="727" height="438" fill="white"/>
</clipPath>
</defs>
</svg>
