<svg width="369" height="210" viewBox="0 0 369 210" fill="none" xmlns="http://www.w3.org/2000/svg">
<g clip-path="url(#clip0_45_25)">
<path d="M0.635986 115.613V131.925C126.854 124.418 32.986 120.52 0.635986 115.613Z" fill="white"/>
<path d="M0.635986 142.564V158.581L1.69099 158.845C97.849 149.97 70.248 146.736 0.635986 142.564Z" fill="white"/>
<path d="M0.635986 0.674805V53.3448C79.774 50.6688 80.165 46.1828 39.124 40.7448L46.506 31.7818C97.176 39.5578 93.963 52.2938 57.578 58.6718C69.77 62.9588 112.985 70.9048 60.741 86.6148C69.243 88.9248 117.187 100.793 57.578 111.395C67.022 115.66 117.134 121.777 59.686 137.23C74.561 139.673 112.786 147.822 62.323 164.119C81.401 166.115 83.558 166.777 88.684 175.719V209.988H111.882V0.674805H0.635986Z" fill="white"/>
<path d="M0.635986 90.833V107.178C24.378 102.508 132.748 100.613 0.635986 90.833Z" fill="white"/>
<path d="M0.635986 62.9766V80.2876C74.827 76.2976 99.893 71.1286 0.635986 62.9766Z" fill="white"/>
<path d="M139.129 56.489H126.471V54H154.483V56.489H141.828V90.312H139.129V56.489Z" fill="white"/>
<path d="M161.332 54H164.03V70.808H187.27V54H189.968V90.312H187.27V73.296H164.03V90.312H161.332V54Z" fill="white"/>
<path d="M199.409 54H225.242V56.489H202.107V70.755H222.908V73.246H202.107V87.823H225.502V90.312H199.408L199.409 54Z" fill="white"/>
<path d="M128.349 111.184H140.399L147.573 134.993L155.509 111.069H165.327L173.26 134.993L180.434 111.184H192.251L178.495 152.629H168.559L160.328 128.94L152.04 152.629H142.104L128.349 111.184Z" fill="white"/>
<path d="M192.252 131.418V131.262C192.252 118.895 201.098 109.11 213.624 109.11C228.185 109.11 234.915 119.835 234.915 132.28C234.915 133.219 234.915 134.315 234.838 135.335H206.501C207.674 139.952 211.041 142.3 215.657 142.3C219.261 142.3 222 140.97 225.053 137.995L233.27 144.806C229.201 149.97 223.331 153.415 214.955 153.415C201.648 153.415 192.252 144.493 192.252 131.419V131.418ZM221.058 127.74C220.511 123.041 217.695 120.066 213.624 120.066C209.707 120.066 207.049 123.041 206.265 127.74H221.058Z" fill="white"/>
<path d="M243.004 111.184H264.109C269.283 111.184 272.927 112.477 275.338 114.83C276.982 116.533 277.982 118.709 277.982 121.531V121.648C277.982 126.41 275.277 129.232 271.632 130.82C276.631 132.465 279.806 135.287 279.806 140.873V140.988C279.806 148.045 274.044 152.336 264.226 152.336H243.002V111.184H243.004ZM266.754 123.883C266.754 121.59 264.934 120.356 261.583 120.356H254.115V127.586H261.289C264.758 127.586 266.754 126.41 266.754 124V123.883ZM262.815 135.58H254.115V143.164H262.933C266.459 143.164 268.402 141.812 268.402 139.402V139.285C268.402 137.051 266.635 135.58 262.815 135.58Z" fill="white"/>
<path d="M288.599 111.184H309.704C314.878 111.184 318.522 112.477 320.933 114.83C322.577 116.533 323.577 118.709 323.577 121.531V121.648C323.577 126.41 320.872 129.232 317.227 130.82C322.226 132.465 325.397 135.287 325.397 140.873V140.988C325.397 148.045 319.638 152.336 309.821 152.336H288.597V111.184H288.599ZM312.349 123.883C312.349 121.59 310.529 120.356 307.178 120.356H299.71V127.586H306.884C310.349 127.586 312.349 126.41 312.349 124V123.883ZM308.41 135.58H299.71V143.164H308.528C312.054 143.164 313.996 141.812 313.996 139.402V139.285C313.996 137.051 312.233 135.58 308.41 135.58Z" fill="white"/>
<path d="M341.095 136.934L325.399 111.184H338.393L346.857 126.174L355.381 111.184H368.141L352.498 136.758V152.336H341.096V136.934H341.095Z" fill="white"/>
<path d="M146.968 169.922H149.562L166.472 206.494H163.517L158.9 196.326H137.474L132.857 206.494H130.057L146.967 169.922H146.968ZM157.759 193.887L148.215 172.879L138.616 193.887H157.759Z" fill="white"/>
<path d="M166.263 170.182H169.272L180.684 202.5L191.32 170.076H193.393L204.029 202.5L215.441 170.182H218.241L205.066 206.754H202.887L192.251 175.213L181.616 206.754H179.437L166.262 170.182H166.263Z" fill="white"/>
<path d="M235.824 169.949H238.418L255.328 206.519H252.373L247.756 196.353H226.33L221.713 206.519H218.913L235.824 169.949ZM246.614 193.914L237.07 172.906L227.471 193.914H246.614Z" fill="white"/>
<path d="M261.569 170.182H276.821C281.283 170.182 284.863 171.582 287.042 173.76C288.754 175.473 289.791 177.91 289.791 180.504V180.607C289.791 186.675 285.278 190.154 279.155 190.982L291.138 206.494H287.713L276.146 191.451H264.267V206.494H261.569V170.182ZM276.511 189.012C282.58 189.012 287.092 185.951 287.092 180.713V180.608C287.092 175.733 283.256 172.671 276.666 172.671H264.268V189.013H276.511V189.012Z" fill="white"/>
<path d="M297.815 170.182H309.903C321.315 170.182 329.201 178.014 329.201 188.235V188.337C329.201 198.558 321.315 206.495 309.903 206.495H297.815V170.182ZM300.514 172.67V204.004H309.904C320.019 204.004 326.399 197.104 326.399 188.442V188.337C326.399 179.728 320.019 172.671 309.904 172.671H300.514V172.67Z" fill="white"/>
<path d="M334.178 201.203L335.942 199.18C339.94 202.864 343.622 204.574 348.964 204.574C354.408 204.574 358.144 201.514 358.144 197.365V197.26C358.144 193.422 356.124 191.192 347.877 189.532C339.163 187.768 335.63 184.811 335.63 179.311V179.208C335.63 173.813 340.562 169.665 347.303 169.665C352.598 169.665 356.071 171.116 359.752 174.073L358.043 176.2C354.618 173.243 351.193 172.1 347.201 172.1C341.858 172.1 338.332 175.162 338.332 178.948V179.053C338.332 182.891 340.305 185.225 348.91 186.988C357.312 188.699 360.845 191.709 360.845 197V197.103C360.845 202.964 355.813 207.011 348.808 207.011C342.999 207.011 338.535 205.093 334.177 201.202L334.178 201.203Z" fill="white"/>
</g>
<defs>
<clipPath id="clip0_45_25">
<rect width="369" height="210" fill="white"/>
</clipPath>
</defs>
</svg>
