<?xml version="1.0" encoding="UTF-8"?>
<svg id="Layer_1" data-name="Layer 1" xmlns="http://www.w3.org/2000/svg" version="1.1" viewBox="0 0 446.4 209.3">
  <defs>
    <style>
      .cls-1 {
        fill: #fff;
        stroke-width: 0px;
      }
    </style>
  </defs>
  <path class="cls-1" d="M0,114.9v16.3c126.2-7.5,32.4-11.4,0-16.3Z"/>
  <path class="cls-1" d="M0,141.9v16l1.1.3c96.2-8.9,68.6-12.1-1.1-16.3Z"/>
  <path class="cls-1" d="M0,0v52.7c79.1-2.7,79.5-7.2,38.5-12.6l7.4-9c50.7,7.8,47.5,20.5,11.1,26.9,12.2,4.3,55.4,12.2,3.2,27.9,8.5,2.3,56.4,14.2-3.2,24.8,9.4,4.3,59.6,10.4,2.1,25.8,14.9,2.4,53.1,10.6,2.6,26.9,19.1,2,21.2,2.7,26.4,11.6v34.3h23.2V0H0Z"/>
  <path class="cls-1" d="M0,90.2v16.3c23.7-4.7,132.1-6.6,0-16.3Z"/>
  <path class="cls-1" d="M0,62.3v17.3c74.2-4,99.3-9.2,0-17.3Z"/>
  <path class="cls-1" d="M142.6,6.7h-16.8v-3.3h37.2v3.3h-16.8v44.9h-3.6V6.7Z"/>
  <path class="cls-1" d="M172.1,3.4h3.6v22.3h30.8V3.4h3.6v48.2h-3.6v-22.6h-30.8v22.6h-3.6V3.4Z"/>
  <path class="cls-1" d="M222.6,3.4h34.3v3.3h-30.7v18.9h27.6v3.3h-27.6v19.3h31v3.3h-34.6V3.4Z"/>
  <path class="cls-1" d="M128.3,79.2h16l9.5,31.6,10.5-31.7h13l10.5,31.7,9.5-31.6h15.7l-18.2,55h-13.2l-10.9-31.4-11,31.4h-13.2l-18.2-55Z"/>
  <path class="cls-1" d="M213.1,106.1v-.2c0-16.4,11.7-29.4,28.3-29.4s28.2,14.2,28.2,30.7,0,2.7-.1,4.1h-37.6c1.6,6.1,6,9.2,12.1,9.2s8.4-1.8,12.5-5.7l10.9,9c-5.4,6.8-13.2,11.4-24.3,11.4-17.6,0-30.1-11.8-30.1-29.2h0ZM251.3,101.2c-.7-6.2-4.5-10.2-9.9-10.2s-8.7,3.9-9.8,10.2h19.6Z"/>
  <path class="cls-1" d="M280.4,79.2h28c6.9,0,11.7,1.7,14.9,4.8,2.2,2.3,3.5,5.1,3.5,8.9v.2c0,6.3-3.6,10.1-8.4,12.2,6.6,2.2,10.8,5.9,10.8,13.3v.2c0,9.4-7.6,15.1-20.7,15.1h-28.1v-54.6h0ZM311.9,96.1c0-3-2.4-4.7-6.9-4.7h-9.9v9.6h9.5c4.6,0,7.2-1.6,7.2-4.8v-.2ZM306.7,111.6h-11.5v10.1h11.7c4.7,0,7.3-1.8,7.3-5v-.2c0-3-2.3-4.9-7.4-4.9Z"/>
  <path class="cls-1" d="M340.9,79.2h28c6.9,0,11.7,1.7,14.9,4.8,2.2,2.3,3.5,5.1,3.5,8.9v.2c0,6.3-3.6,10.1-8.4,12.2,6.6,2.2,10.8,5.9,10.8,13.3v.2c0,9.4-7.6,15.1-20.7,15.1h-28.1v-54.6h0ZM372.4,96.1c0-3-2.4-4.7-6.9-4.7h-9.9v9.6h9.5c4.6,0,7.2-1.6,7.2-4.8v-.2ZM367.1,111.6h-11.5v10.1h11.7c4.7,0,7.3-1.8,7.3-5v-.2c0-3-2.3-4.9-7.4-4.9Z"/>
  <path class="cls-1" d="M410.5,113.4l-20.8-34.2h17.2l11.2,19.9,11.3-19.9h16.9l-20.7,33.9v20.7h-15.1v-20.4h0Z"/>
  <path class="cls-1" d="M153,157.1h3.4l22.4,48.5h-3.9l-6.1-13.5h-28.4l-6.1,13.5h-3.7l22.4-48.5h0ZM167.3,188.9l-12.7-27.9-12.7,27.9h25.4Z"/>
  <path class="cls-1" d="M178.6,157.5h4l15.1,42.9,14.1-43h2.7l14.1,43,15.1-42.9h3.7l-17.5,48.5h-2.9l-14.1-41.8-14.1,41.8h-2.9l-17.5-48.5h0Z"/>
  <path class="cls-1" d="M270.9,157.2h3.4l22.4,48.5h-3.9l-6.1-13.5h-28.4l-6.1,13.5h-3.7l22.4-48.5ZM285.2,189l-12.7-27.9-12.7,27.9h25.4Z"/>
  <path class="cls-1" d="M305,157.5h20.2c5.9,0,10.7,1.9,13.6,4.7,2.3,2.3,3.6,5.5,3.6,8.9h0c0,8.2-6,12.8-14.1,13.9l15.9,20.6h-4.5l-15.3-20h-15.8v20h-3.6v-48.2ZM324.8,182.5c8,0,14-4.1,14-11h0c0-6.6-5.1-10.7-13.8-10.7h-16.4v21.7h16.2Z"/>
  <path class="cls-1" d="M353.1,157.5h16c15.1,0,25.6,10.4,25.6,23.9h0c0,13.7-10.5,24.2-25.6,24.2h-16v-48.2ZM356.7,160.8v41.6h12.5c13.4,0,21.9-9.2,21.9-20.6h0c0-11.6-8.5-20.9-21.9-20.9h-12.5Z"/>
  <path class="cls-1" d="M401.3,198.6l2.3-2.7c5.3,4.9,10.2,7.2,17.3,7.2s12.2-4.1,12.2-9.6h0c0-5.2-2.7-8.2-13.6-10.4-11.6-2.3-16.2-6.3-16.2-13.6h0c0-7.3,6.5-12.8,15.5-12.8s11.6,1.9,16.5,5.8l-2.3,2.8c-4.5-3.9-9.1-5.4-14.4-5.4s-11.8,4.1-11.8,9.1h0c0,5.2,2.6,8.3,14,10.7,11.1,2.3,15.8,6.3,15.8,13.3h0c0,7.9-6.7,13.3-16,13.3s-13.6-2.5-19.4-7.7h0Z"/>
</svg>