<svg width="1660" height="332" viewBox="0 0 1660 332" fill="none" xmlns="http://www.w3.org/2000/svg">
<path d="M577.3 242.4V280.6H419.1V242.4H475.9V89.7001H419.1V51.5001H577.3V89.7001H520.5V242.4H577.3ZM308.7 51.5001H265.1L233.7 232.8H233.2L196.8 64.6001C194.5 53.2001 190.9 50.5001 180 50.5001H155.9C145.4 50.5001 141.4 53.2001 139.1 64.6001L102.7 232.8H101.8L70.9001 51.5001H24.1001L69.1001 269.2C70.9001 278.7 74.6001 281 85.0001 281H115.9C126.4 281 130 278.7 131.8 268.7L165.9 111H166.8L200.9 268.7C203.2 278.7 206.4 281 216.8 281H247.3C258.2 281 261.4 278.7 263.2 269.2L308.6 51.5001H308.7ZM332.3 331.9H0.600098V0.100098H332.4V331.9H332.3ZM879.5 221.9C879.7 241.5 881 261.1 883.6 280.5H929C927.6 268.2 926.3 247.8 925.4 218.7C924.5 189.6 913.6 179.6 889.9 175.1V174.2C916.3 170.1 927.6 157.4 927.6 116.9C927.6 76.4001 922.1 71.0001 913.1 61.9001C904 52.8001 894.5 51.9001 876.7 51.9001H737.2V280.5H784.5V191.4H849.9C863.5 191.4 869 192.3 872.6 195.9C876.2 199.5 879 203.6 879.4 221.8M784.6 154.2V90.6001H859.6C870.1 90.6001 873.2 91.5001 875.1 93.3001C877 95.1001 881.5 101.5 881.5 121.5C881.5 141.5 878.3 147.9 874.7 151C871.1 154.2 869.7 154.2 859.2 154.2H784.7H784.6ZM995.9 331.9H664.1V0.100098H995.9V331.9ZM1400.8 51.5001V280.6H1513.5C1545.8 280.6 1563.5 276.1 1577.6 263.8C1591.7 251.5 1601.7 222.9 1601.7 166.5C1601.7 110.1 1594 83.3001 1577.6 69.2001C1561.2 55.1001 1546.2 52.4001 1513.5 52.4001H1400.8V51.5001ZM1554.9 166C1554.9 215.1 1550.8 227.8 1542.2 234.6C1533.6 241.4 1527.2 241.4 1510.4 241.4H1448.1V90.5001H1510.4C1527.7 90.5001 1534.9 91.4001 1542.2 97.3001C1549.5 103.2 1554.9 116.8 1554.9 166.4M1659.5 331.9H1327.7V0.100098H1659.5V331.9ZM1056.8 89.6001V51.4001H1251.8V125H1210.9V89.5001H1131.8V144H1194.5V180.8H1131.8V242.2H1212.7V202.2H1254.1V280.4H1056.9V242.2H1087.8V89.5001H1056.9L1056.8 89.6001Z" fill="white"/>
</svg>
