<svg width="37" height="37" viewBox="0 0 37 37" fill="none" xmlns="http://www.w3.org/2000/svg">
<g id="Icons 2/Book Bookmark">
<path id="Icon" d="M29.584 3.64502H10.459C9.26551 3.64502 8.12092 4.11913 7.277 4.96304C6.43309 5.80695 5.95898 6.95155 5.95898 8.14502V31.77C5.95898 32.0684 6.07751 32.3545 6.28849 32.5655C6.49947 32.7765 6.78562 32.895 7.08398 32.895H27.334C27.6324 32.895 27.9185 32.7765 28.1295 32.5655C28.3405 32.3545 28.459 32.0684 28.459 31.77C28.459 31.4717 28.3405 31.1855 28.1295 30.9745C27.9185 30.7635 27.6324 30.645 27.334 30.645H8.20898C8.20898 30.0483 8.44604 29.476 8.86799 29.054C9.28995 28.6321 9.86225 28.395 10.459 28.395H29.584C29.8824 28.395 30.1685 28.2765 30.3795 28.0655C30.5905 27.8545 30.709 27.5684 30.709 27.27V4.77002C30.709 4.47165 30.5905 4.1855 30.3795 3.97452C30.1685 3.76355 29.8824 3.64502 29.584 3.64502ZM26.209 17.145L22.6076 14.445C22.5102 14.372 22.3918 14.3325 22.2701 14.3325C22.1484 14.3325 22.0299 14.372 21.9326 14.445L18.334 17.145V5.89502H26.209V17.145Z" fill="white"/>
</g>
</svg>
