<svg width="36" height="37" viewBox="0 0 36 37" fill="none" xmlns="http://www.w3.org/2000/svg">
<g id="Icons 2/Browsers">
<path id="Icon" d="M30.375 5.89502H10.125C9.52826 5.89502 8.95597 6.13207 8.53401 6.55403C8.11205 6.97599 7.875 7.54828 7.875 8.14502V10.395H5.625C5.02826 10.395 4.45597 10.6321 4.03401 11.054C3.61205 11.476 3.375 12.0483 3.375 12.645V28.395C3.375 28.9918 3.61205 29.5641 4.03401 29.986C4.45597 30.408 5.02826 30.645 5.625 30.645H25.875C26.4717 30.645 27.044 30.408 27.466 29.986C27.8879 29.5641 28.125 28.9918 28.125 28.395V26.145H30.375C30.9717 26.145 31.544 25.908 31.966 25.486C32.3879 25.0641 32.625 24.4918 32.625 23.895V8.14502C32.625 7.54828 32.3879 6.97599 31.966 6.55403C31.544 6.13207 30.9717 5.89502 30.375 5.89502ZM25.875 12.645V14.895H5.625V12.645H25.875ZM30.375 23.895H28.125V12.645C28.125 12.0483 27.8879 11.476 27.466 11.054C27.044 10.6321 26.4717 10.395 25.875 10.395H10.125V8.14502H30.375V23.895Z" fill="white"/>
</g>
</svg>
