<svg width="38" height="32" viewBox="0 0 38 32" fill="none" xmlns="http://www.w3.org/2000/svg">
<path d="M34.6537 7.75209V2.66567C34.6537 1.95869 34.3728 1.28067 33.8729 0.780756C33.373 0.280846 32.695 0 31.988 0H2.66567C1.95869 0 1.28067 0.280846 0.780756 0.780756C0.280846 1.28067 0 1.95869 0 2.66567V23.991C0 24.698 0.280846 25.376 0.780756 25.8759C1.28067 26.3758 1.95869 26.6567 2.66567 26.6567H22.6582V30.6552C22.6561 30.8901 22.7161 31.1215 22.8322 31.3258C22.9483 31.5301 23.1164 31.7 23.3194 31.8184C23.5223 31.9368 23.753 31.9995 23.988 32C24.223 32.0005 24.4539 31.9389 24.6574 31.8214L28.6559 29.5323L32.6544 31.8214C32.8579 31.9389 33.0889 32.0005 33.3238 32C33.5588 31.9995 33.7895 31.9368 33.9925 31.8184C34.1954 31.7 34.3635 31.5301 34.4796 31.3258C34.5957 31.1215 34.6558 30.8901 34.6537 30.6552V20.2374C35.4962 19.4306 36.1667 18.4615 36.6248 17.3887C37.0828 16.3158 37.319 15.1613 37.319 13.9948C37.319 12.8282 37.0828 11.6737 36.6248 10.6008C36.1667 9.52797 35.4962 8.55893 34.6537 7.75209ZM17.3268 17.3268H7.997C7.64351 17.3268 7.3045 17.1864 7.05455 16.9365C6.80459 16.6865 6.66417 16.3475 6.66417 15.994C6.66417 15.6405 6.80459 15.3015 7.05455 15.0515C7.3045 14.8016 7.64351 14.6612 7.997 14.6612H17.3268C17.6803 14.6612 18.0193 14.8016 18.2693 15.0515C18.5192 15.3015 18.6597 15.6405 18.6597 15.994C18.6597 16.3475 18.5192 16.6865 18.2693 16.9365C18.0193 17.1864 17.6803 17.3268 17.3268 17.3268ZM17.3268 11.9955H7.997C7.64351 11.9955 7.3045 11.8551 7.05455 11.6051C6.80459 11.3552 6.66417 11.0162 6.66417 10.6627C6.66417 10.3092 6.80459 9.97017 7.05455 9.72021C7.3045 9.47026 7.64351 9.32984 7.997 9.32984H17.3268C17.6803 9.32984 18.0193 9.47026 18.2693 9.72021C18.5192 9.97017 18.6597 10.3092 18.6597 10.6627C18.6597 11.0162 18.5192 11.3552 18.2693 11.6051C18.0193 11.8551 17.6803 11.9955 17.3268 11.9955ZM31.988 28.3577L29.3223 26.8316C29.1209 26.7165 28.8929 26.6559 28.6609 26.6559C28.4289 26.6559 28.2009 26.7165 27.9995 26.8316L25.3338 28.3577V21.9918C26.3894 22.4328 27.522 22.6598 28.6659 22.6598C29.8099 22.6598 30.9425 22.4328 31.998 21.9918L31.988 28.3577ZM28.6559 19.9925C27.4697 19.9925 26.3101 19.6407 25.3237 18.9817C24.3374 18.3227 23.5687 17.3859 23.1147 16.29C22.6608 15.194 22.542 13.9881 22.7734 12.8246C23.0048 11.6612 23.5761 10.5925 24.4149 9.7537C25.2537 8.9149 26.3224 8.34367 27.4858 8.11225C28.6493 7.88082 29.8552 7.9996 30.9512 8.45355C32.0471 8.90751 32.9838 9.67626 33.6429 10.6626C34.3019 11.6489 34.6537 12.8085 34.6537 13.9948C34.6537 14.7824 34.4985 15.5623 34.1971 16.29C33.8957 17.0177 33.4539 17.6789 32.897 18.2358C32.34 18.7927 31.6788 19.2345 30.9512 19.536C30.2235 19.8374 29.4436 19.9925 28.6559 19.9925Z" fill="#7537F8"/>
</svg>
