<?xml version="1.0" encoding="UTF-8"?>
<svg xmlns="http://www.w3.org/2000/svg" version="1.1" viewBox="0 0 38 32">
  <defs>
    <style>
      .cls-1 {
        fill: #fff;
      }
    </style>
  </defs>
  <!-- Generator: Adobe Illustrator 28.7.1, SVG Export Plug-In . SVG Version: 1.2.0 Build 142)  -->
  <g>
    <g id="Layer_1">
      <path class="cls-1" d="M34.7,7.8V2.7c0-.7-.3-1.4-.8-1.9-.5-.5-1.2-.8-1.9-.8H2.7c-.7,0-1.4.3-1.9.8-.5.5-.8,1.2-.8,1.9v21.3c0,.7.3,1.4.8,1.9.5.5,1.2.8,1.9.8h20v4c0,.2,0,.5.2.7.1.2.3.4.5.5.2.1.4.2.7.2.2,0,.5,0,.7-.2l4-2.3,4,2.3c.2.1.4.2.7.2.2,0,.5,0,.7-.2.2-.1.4-.3.5-.5s.2-.4.2-.7v-10.4c.8-.8,1.5-1.8,2-2.8.5-1.1.7-2.2.7-3.4s-.2-2.3-.7-3.4c-.5-1.1-1.1-2-2-2.8ZM17.3,17.3H8c-.4,0-.7-.1-.9-.4-.2-.2-.4-.6-.4-.9s.1-.7.4-.9c.2-.2.6-.4.9-.4h9.3c.4,0,.7.1.9.4.2.2.4.6.4.9s-.1.7-.4.9c-.2.2-.6.4-.9.4ZM17.3,12H8c-.4,0-.7-.1-.9-.4-.2-.2-.4-.6-.4-.9s.1-.7.4-.9c.2-.2.6-.4.9-.4h9.3c.4,0,.7.1.9.4.2.2.4.6.4.9s-.1.7-.4.9c-.2.2-.6.4-.9.4ZM32,28.4l-2.7-1.5c-.2-.1-.4-.2-.7-.2s-.5,0-.7.2l-2.7,1.5v-6.4c1.1.4,2.2.7,3.3.7s2.3-.2,3.3-.7v6.4ZM28.7,20c-1.2,0-2.3-.4-3.3-1-1-.7-1.8-1.6-2.2-2.7-.5-1.1-.6-2.3-.3-3.5.2-1.2.8-2.2,1.6-3.1.8-.8,1.9-1.4,3.1-1.6,1.2-.2,2.4-.1,3.5.3,1.1.5,2,1.2,2.7,2.2.7,1,1,2.1,1,3.3s-.2,1.6-.5,2.3c-.3.7-.7,1.4-1.3,1.9-.6.6-1.2,1-1.9,1.3-.7.3-1.5.5-2.3.5Z"/>
    </g>
  </g>
</svg>