<svg width="256" height="256" viewBox="0 0 256 256" fill="none" xmlns="http://www.w3.org/2000/svg">
<path d="M232 208C232 210.122 231.157 212.157 229.657 213.657C228.157 215.157 226.122 216 224 216H32C29.8783 216 27.8434 215.157 26.3431 213.657C24.8429 212.157 24 210.122 24 208C24 205.878 24.8429 203.843 26.3431 202.343C27.8434 200.843 29.8783 200 32 200H40V136C40 133.878 40.8429 131.843 42.3431 130.343C43.8434 128.843 45.8783 128 48 128H72C74.1217 128 76.1566 128.843 77.6569 130.343C79.1571 131.843 80 133.878 80 136V200H96V88C96 85.8783 96.8429 83.8434 98.3431 82.3431C99.8434 80.8429 101.878 80 104 80H136C138.122 80 140.157 80.8429 141.657 82.3431C143.157 83.8434 144 85.8783 144 88V200H160V40C160 37.8783 160.843 35.8434 162.343 34.3431C163.843 32.8429 165.878 32 168 32H208C210.122 32 212.157 32.8429 213.657 34.3431C215.157 35.8434 216 37.8783 216 40V200H224C226.122 200 228.157 200.843 229.657 202.343C231.157 203.843 232 205.878 232 208Z" fill="white"/>
</svg>
