<svg width="256" height="256" viewBox="0 0 256 256" fill="none" xmlns="http://www.w3.org/2000/svg">
<path d="M232 96C232 91.7565 230.314 87.6869 227.314 84.6863C224.313 81.6857 220.243 80 216 80H184V48C184 43.7565 182.314 39.6869 179.314 36.6863C176.313 33.6857 172.243 32 168 32H40C35.7565 32 31.6869 33.6857 28.6863 36.6863C25.6857 39.6869 24 43.7565 24 48V176C24.0047 177.505 24.4339 178.978 25.2382 180.25C26.0426 181.523 27.1895 182.542 28.5471 183.192C29.9048 183.841 31.4182 184.095 32.9134 183.923C34.4087 183.751 35.8251 183.161 37 182.22L72 154V184C72 188.243 73.6857 192.313 76.6863 195.314C79.6869 198.314 83.7565 200 88 200H181.59L219 230.22C220.416 231.365 222.179 231.993 224 232C226.122 232 228.157 231.157 229.657 229.657C231.157 228.157 232 226.122 232 224V96ZM189.45 185.78C188.034 184.635 186.271 184.007 184.45 184H88V152H168C172.243 152 176.313 150.314 179.314 147.314C182.314 144.313 184 140.243 184 136V96H216V207.25L189.45 185.78Z" fill="white"/>
</svg>
