<?xml version="1.0" encoding="UTF-8"?>
<svg xmlns="http://www.w3.org/2000/svg" version="1.1" viewBox="0 0 26 25">
  <defs>
    <style>
      .cls-1 {
        fill: #fff;
      }
    </style>
  </defs>
  <!-- Generator: Adobe Illustrator 28.7.1, SVG Export Plug-In . SVG Version: 1.2.0 Build 142)  -->
  <g>
    <g id="Layer_1">
      <path class="cls-1" d="M26,8c0-1.1-.9-2-2-2h-4V2c0-1.1-.9-2-2-2H2C.9,0,0,.9,0,2v16c0,.6.5,1,1,1s.4,0,.6-.2l4.4-3.5v3.8c0,1.1.9,2,2,2h11.7l4.7,3.8c.2.1.4.2.6.2.6,0,1-.4,1-1,0,0,0-16.1,0-16.1ZM20.7,19.2c-.2-.1-.4-.2-.6-.2h-12.1v-4h10c1.1,0,2-.9,2-2v-5h4v13.9s-3.3-2.7-3.3-2.7Z"/>
    </g>
  </g>
</svg>