<svg width="256" height="256" viewBox="0 0 256 256" fill="none" xmlns="http://www.w3.org/2000/svg">
<path d="M200 32H163.74C159.245 26.9672 153.738 22.9406 147.579 20.1836C141.42 17.4266 134.748 16.0014 128 16.0014C121.252 16.0014 114.58 17.4266 108.421 20.1836C102.262 22.9406 96.755 26.9672 92.26 32H56C51.7565 32 47.6869 33.6857 44.6863 36.6863C41.6857 39.6869 40 43.7565 40 48V216C40 220.243 41.6857 224.313 44.6863 227.314C47.6869 230.314 51.7565 232 56 232H200C204.243 232 208.313 230.314 211.314 227.314C214.314 224.313 216 220.243 216 216V48C216 43.7565 214.314 39.6869 211.314 36.6863C208.313 33.6857 204.243 32 200 32ZM128 32C136.487 32 144.626 35.3714 150.627 41.3726C156.629 47.3737 160 55.5131 160 64H96C96 55.5131 99.3714 47.3737 105.373 41.3726C111.374 35.3714 119.513 32 128 32ZM160 160H96C93.8783 160 91.8434 159.157 90.3431 157.657C88.8429 156.157 88 154.122 88 152C88 149.878 88.8429 147.843 90.3431 146.343C91.8434 144.843 93.8783 144 96 144H160C162.122 144 164.157 144.843 165.657 146.343C167.157 147.843 168 149.878 168 152C168 154.122 167.157 156.157 165.657 157.657C164.157 159.157 162.122 160 160 160ZM160 128H96C93.8783 128 91.8434 127.157 90.3431 125.657C88.8429 124.157 88 122.122 88 120C88 117.878 88.8429 115.843 90.3431 114.343C91.8434 112.843 93.8783 112 96 112H160C162.122 112 164.157 112.843 165.657 114.343C167.157 115.843 168 117.878 168 120C168 122.122 167.157 124.157 165.657 125.657C164.157 127.157 162.122 128 160 128Z" fill="white"/>
</svg>
