<?xml version="1.0" encoding="UTF-8"?>
<svg id="Layer_1" data-name="Layer 1" xmlns="http://www.w3.org/2000/svg" version="1.1" viewBox="0 0 26 22">
  <defs>
    <style>
      .cls-1 {
        fill: #7537f8;
        stroke-width: 0px;
      }
    </style>
  </defs>
  <path class="cls-1" d="M24,0H2C.9,0,0,.9,0,2v18c0,1.1.9,2,2,2h22c1.1,0,2-.9,2-2V2c0-1.1-.9-2-2-2ZM8.6,13.2c.4.3.5,1,.2,1.4-.3.4-1,.5-1.4.2l-4-3c-.4-.3-.5-1-.2-1.4,0,0,.1-.1.2-.2l4-3c.4-.3,1.1-.2,1.4.2.3.4.2,1.1-.2,1.4l-2.9,2.2,2.9,2.2ZM16,4.3l-4,14c-.1.5-.7.9-1.2.7-.5-.1-.9-.7-.7-1.2,0,0,0,0,0,0l4-14c.2-.5.7-.8,1.2-.7.5.2.8.7.7,1.2ZM22.6,11.8l-4,3c-.4.3-1.1.2-1.4-.2-.3-.4-.2-1.1.2-1.4h0l2.9-2.2-2.9-2.2c-.4-.3-.5-1-.2-1.4.3-.4,1-.5,1.4-.2l4,3c.4.3.5,1,.2,1.4,0,0-.1.1-.2.2Z"/>
</svg>