<?xml version="1.0" encoding="UTF-8"?>
<svg id="Layer_1" data-name="Layer 1" xmlns="http://www.w3.org/2000/svg" version="1.1" viewBox="0 0 240 176">
  <defs>
    <style>
      .cls-1 {
        fill: #fff;
        stroke-width: 0px;
      }
    </style>
  </defs>
  <path class="cls-1" d="M176,49.6v-5.6C176,18.9,138.2,0,88,0S0,18.9,0,44v40c0,20.9,26.2,37.5,64,42.5v5.5c0,25.1,37.8,44,88,44s88-18.9,88-44v-40c0-20.7-25.4-37.3-64-42.4ZM48,106.9c-19.6-5.5-32-14.5-32-22.9v-14.1c8.2,5.8,19.1,10.4,32,13.6v23.4ZM128,83.5c12.9-3.1,23.8-7.8,32-13.6v14.1c0,8.4-12.4,17.4-32,22.9,0,0,0-23.4,0-23.4ZM112,154.9c-19.6-5.5-32-14.5-32-22.9v-4.2c2.6.1,5.3.2,8,.2,3.9,0,7.7-.1,11.4-.4,4.1,1.5,8.3,2.7,12.6,3.8v23.5h0ZM112,110.2c-7.9,1.2-16,1.8-24,1.8s-16.1-.6-24-1.8v-23.8c8,1,16,1.6,24,1.5,8,0,16-.5,24-1.5v23.8ZM176,158.2c-15.9,2.3-32.1,2.3-48,0v-23.9c8,1.1,16,1.6,24,1.6s16-.5,24-1.5v23.8h0ZM224,132c0,8.4-12.4,17.4-32,22.9v-23.4c12.9-3.1,23.8-7.8,32-13.6v14.1Z"/>
</svg>