<svg width="256" height="256" viewBox="0 0 256 256" fill="none" xmlns="http://www.w3.org/2000/svg">
<path d="M232 136.66C230.3 156.42 222.992 175.283 210.936 191.031C198.88 206.778 182.577 218.755 163.945 225.552C145.314 232.349 125.128 233.683 105.764 229.397C86.3999 225.112 68.6625 215.385 54.6386 201.361C40.6148 187.337 30.8879 169.6 26.6024 150.236C22.3169 130.871 23.651 110.686 30.4479 92.0544C37.2447 73.4227 49.2214 57.1198 64.9689 45.0636C80.7165 33.0075 99.5798 25.6997 119.34 24.0001C120.39 23.9134 121.447 24.0345 122.451 24.3565C123.455 24.6784 124.386 25.195 125.19 25.8765C125.994 26.5581 126.656 27.3914 127.138 28.3289C127.62 29.2663 127.913 30.2895 128 31.3401C128.086 32.3907 127.965 33.448 127.643 34.4518C127.321 35.4556 126.805 36.3861 126.123 37.1902C125.442 37.9944 124.608 38.6564 123.671 39.1385C122.733 39.6207 121.71 39.9134 120.66 40.0001C103.935 41.437 87.9696 47.6208 74.6406 57.8237C61.3117 68.0267 51.1741 81.8244 45.4208 97.5933C39.6674 113.362 38.5377 130.446 42.1644 146.836C45.7911 163.225 54.0234 178.238 65.8928 190.107C77.7621 201.976 92.7746 210.208 109.164 213.835C125.553 217.462 142.637 216.332 158.406 210.579C174.175 204.825 187.973 194.688 198.176 181.359C208.379 168.03 214.563 152.064 216 135.34C216.175 133.218 217.185 131.253 218.809 129.877C220.433 128.5 222.538 127.825 224.66 128C226.781 128.175 228.747 129.186 230.123 130.81C231.5 132.434 232.175 134.538 232 136.66ZM160 48.0001C162.373 48.0001 164.693 47.2963 166.666 45.9777C168.64 44.6591 170.178 42.785 171.086 40.5923C171.994 38.3996 172.232 35.9868 171.769 33.659C171.306 31.3312 170.163 29.193 168.485 27.5148C166.807 25.8366 164.668 24.6937 162.341 24.2307C160.013 23.7676 157.6 24.0053 155.407 24.9135C153.215 25.8218 151.34 27.3598 150.022 29.3332C148.703 31.3066 148 33.6267 148 36.0001C148 39.1827 149.264 42.2349 151.514 44.4854C153.765 46.7358 156.817 48.0001 160 48.0001ZM196 72.0001C198.373 72.0001 200.693 71.2963 202.666 69.9777C204.64 68.6591 206.178 66.785 207.086 64.5923C207.994 62.3996 208.232 59.9868 207.769 57.659C207.306 55.3312 206.163 53.193 204.485 51.5148C202.807 49.8366 200.668 48.6937 198.341 48.2307C196.013 47.7676 193.6 48.0053 191.407 48.9135C189.215 49.8218 187.34 51.3598 186.022 53.3332C184.703 55.3066 184 57.6267 184 60.0001C184 63.1827 185.264 66.2349 187.514 68.4854C189.765 70.7358 192.817 72.0001 196 72.0001ZM220 108C222.373 108 224.693 107.296 226.666 105.978C228.64 104.659 230.178 102.785 231.086 100.592C231.994 98.3996 232.232 95.9868 231.769 93.659C231.306 91.3312 230.163 89.193 228.485 87.5148C226.807 85.8366 224.668 84.6937 222.341 84.2307C220.013 83.7676 217.6 84.0053 215.407 84.9135C213.215 85.8218 211.34 87.3598 210.022 89.3332C208.703 91.3066 208 93.6267 208 96.0001C208 99.1827 209.264 102.235 211.514 104.485C213.765 106.736 216.817 108 220 108ZM128 56.0001C142.24 56.0001 156.16 60.2228 168.001 68.1343C179.841 76.0457 189.069 87.2906 194.519 100.447C199.968 113.603 201.394 128.08 198.616 142.047C195.838 156.013 188.981 168.842 178.911 178.912C168.842 188.981 156.013 195.838 142.046 198.617C128.079 201.395 113.603 199.969 100.446 194.519C87.2901 189.07 76.0452 179.841 68.1337 168.001C60.2223 156.161 55.9995 142.24 55.9995 128C56.0207 108.911 63.6132 90.6098 77.1112 77.1118C90.6093 63.6138 108.91 56.0213 128 56.0001ZM120 128C120 130.122 120.842 132.157 122.343 133.657C123.843 135.157 125.878 136 128 136H176C178.121 136 180.156 135.157 181.656 133.657C183.157 132.157 184 130.122 184 128C184 125.878 183.157 123.844 181.656 122.343C180.156 120.843 178.121 120 176 120H136V80.0001C136 77.8783 135.157 75.8435 133.656 74.3432C132.156 72.8429 130.121 72.0001 128 72.0001C125.878 72.0001 123.843 72.8429 122.343 74.3432C120.842 75.8435 120 77.8783 120 80.0001V128Z" fill="white"/>
</svg>
