<svg width="256" height="256" viewBox="0 0 256 256" fill="none" xmlns="http://www.w3.org/2000/svg">
<path d="M104 104H152V152H104V104ZM240 152C240 154.122 239.157 156.157 237.657 157.657C236.157 159.157 234.122 160 232 160H216V200C216 204.243 214.314 208.313 211.314 211.314C208.313 214.314 204.243 216 200 216H160V232C160 234.122 159.157 236.157 157.657 237.657C156.157 239.157 154.122 240 152 240C149.878 240 147.843 239.157 146.343 237.657C144.843 236.157 144 234.122 144 232V216H112V232C112 234.122 111.157 236.157 109.657 237.657C108.157 239.157 106.122 240 104 240C101.878 240 99.8434 239.157 98.3431 237.657C96.8429 236.157 96 234.122 96 232V216H56C51.7565 216 47.6869 214.314 44.6863 211.314C41.6857 208.313 40 204.243 40 200V160H24C21.8783 160 19.8434 159.157 18.3431 157.657C16.8429 156.157 16 154.122 16 152C16 149.878 16.8429 147.843 18.3431 146.343C19.8434 144.843 21.8783 144 24 144H40V112H24C21.8783 112 19.8434 111.157 18.3431 109.657C16.8429 108.157 16 106.122 16 104C16 101.878 16.8429 99.8434 18.3431 98.3431C19.8434 96.8429 21.8783 96 24 96H40V56C40 51.7565 41.6857 47.6869 44.6863 44.6863C47.6869 41.6857 51.7565 40 56 40H96V24C96 21.8783 96.8429 19.8434 98.3431 18.3431C99.8434 16.8429 101.878 16 104 16C106.122 16 108.157 16.8429 109.657 18.3431C111.157 19.8434 112 21.8783 112 24V40H144V24C144 21.8783 144.843 19.8434 146.343 18.3431C147.843 16.8429 149.878 16 152 16C154.122 16 156.157 16.8429 157.657 18.3431C159.157 19.8434 160 21.8783 160 24V40H200C204.243 40 208.313 41.6857 211.314 44.6863C214.314 47.6869 216 51.7565 216 56V96H232C234.122 96 236.157 96.8429 237.657 98.3431C239.157 99.8434 240 101.878 240 104C240 106.122 239.157 108.157 237.657 109.657C236.157 111.157 234.122 112 232 112H216V144H232C234.122 144 236.157 144.843 237.657 146.343C239.157 147.843 240 149.878 240 152ZM168 96C168 93.8783 167.157 91.8434 165.657 90.3431C164.157 88.8429 162.122 88 160 88H96C93.8783 88 91.8434 88.8429 90.3431 90.3431C88.8429 91.8434 88 93.8783 88 96V160C88 162.122 88.8429 164.157 90.3431 165.657C91.8434 167.157 93.8783 168 96 168H160C162.122 168 164.157 167.157 165.657 165.657C167.157 164.157 168 162.122 168 160V96Z" fill="white"/>
</svg>
