<svg width="256" height="256" viewBox="0 0 256 256" fill="none" xmlns="http://www.w3.org/2000/svg">
<g clip-path="url(#clip0_11_72)">
<path d="M232 120H223.66C221.74 97.3944 211.888 76.196 195.846 60.1539C179.804 44.1119 158.606 34.2597 136 32.34V24C136 21.8783 135.157 19.8434 133.657 18.3431C132.157 16.8429 130.122 16 128 16C125.878 16 123.843 16.8429 122.343 18.3431C120.843 19.8434 120 21.8783 120 24V32.34C97.3944 34.2597 76.196 44.1119 60.1539 60.1539C44.1119 76.196 34.2597 97.3944 32.34 120H24C21.8783 120 19.8434 120.843 18.3431 122.343C16.8429 123.843 16 125.878 16 128C16 130.122 16.8429 132.157 18.3431 133.657C19.8434 135.157 21.8783 136 24 136H32.34C34.2597 158.606 44.1119 179.804 60.1539 195.846C76.196 211.888 97.3944 221.74 120 223.66V232C120 234.122 120.843 236.157 122.343 237.657C123.843 239.157 125.878 240 128 240C130.122 240 132.157 239.157 133.657 237.657C135.157 236.157 136 234.122 136 232V223.66C158.606 221.74 179.804 211.888 195.846 195.846C211.888 179.804 221.74 158.606 223.66 136H232C234.122 136 236.157 135.157 237.657 133.657C239.157 132.157 240 130.122 240 128C240 125.878 239.157 123.843 237.657 122.343C236.157 120.843 234.122 120 232 120ZM136 207.6V200C136 197.878 135.157 195.843 133.657 194.343C132.157 192.843 130.122 192 128 192C125.878 192 123.843 192.843 122.343 194.343C120.843 195.843 120 197.878 120 200V207.6C101.649 205.728 84.5051 197.582 71.4614 184.539C58.4177 171.495 50.2725 154.351 48.4 136H56C58.1217 136 60.1566 135.157 61.6569 133.657C63.1571 132.157 64 130.122 64 128C64 125.878 63.1571 123.843 61.6569 122.343C60.1566 120.843 58.1217 120 56 120H48.4C50.2725 101.649 58.4177 84.5051 71.4614 71.4614C84.5051 58.4177 101.649 50.2725 120 48.4V56C120 58.1217 120.843 60.1566 122.343 61.6569C123.843 63.1571 125.878 64 128 64C130.122 64 132.157 63.1571 133.657 61.6569C135.157 60.1566 136 58.1217 136 56V48.4C154.351 50.2725 171.495 58.4177 184.539 71.4614C197.582 84.5051 205.728 101.649 207.6 120H200C197.878 120 195.843 120.843 194.343 122.343C192.843 123.843 192 125.878 192 128C192 130.122 192.843 132.157 194.343 133.657C195.843 135.157 197.878 136 200 136H207.6C205.728 154.351 197.582 171.495 184.539 184.539C171.495 197.582 154.351 205.728 136 207.6ZM168 128C168 135.911 165.654 143.645 161.259 150.223C156.864 156.801 150.616 161.928 143.307 164.955C135.998 167.983 127.956 168.775 120.196 167.231C112.437 165.688 105.31 161.878 99.7157 156.284C94.1216 150.69 90.312 143.563 88.7686 135.804C87.2252 128.044 88.0173 120.002 91.0448 112.693C94.0723 105.384 99.1992 99.1365 105.777 94.7412C112.355 90.346 120.089 88 128 88C138.609 88 148.783 92.2143 156.284 99.7157C163.786 107.217 168 117.391 168 128Z" fill="white"/>
</g>
<defs>
<clipPath id="clip0_11_72">
<rect width="256" height="256" fill="white"/>
</clipPath>
</defs>
</svg>
