<?xml version="1.0" encoding="UTF-8"?>
<svg xmlns="http://www.w3.org/2000/svg" version="1.1" viewBox="0 0 32 32">
  <defs>
    <style>
      .cls-1 {
        fill: #fff;
      }
    </style>
  </defs>
  <!-- Generator: Adobe Illustrator 28.7.1, SVG Export Plug-In . SVG Version: 1.2.0 Build 142)  -->
  <g>
    <g id="Layer_1">
      <path class="cls-1" d="M30.9,11.1l-4.6,14.2c0,.1-.1.3-.2.4-.1.1-.2.2-.4.2-.1,0-.3,0-.4,0-.1,0-.3,0-.4-.1,0,0-3.2-1.9-8.8-1.9s-8.8,1.8-8.8,1.9c-.1,0-.3.1-.4.1-.1,0-.3,0-.4,0-.1,0-.3-.1-.4-.2-.1-.1-.2-.2-.2-.4L1.1,11.1c0-.3-.1-.6,0-.9,0-.3.2-.5.5-.7.2-.2.5-.3.8-.4.3,0,.6,0,.9.1l6.3,3.1L14.7,3.7c.1-.2.3-.4.6-.5.2-.1.5-.2.7-.2s.5,0,.7.2c.2.1.4.3.6.5l5.2,8.7,6.3-3.1c.3-.1.6-.2.9-.1.3,0,.6.2.8.4.2.2.4.5.5.7,0,.3,0,.6,0,.9h0Z"/>
    </g>
  </g>
</svg>