<svg width="256" height="256" viewBox="0 0 256 256" fill="none" xmlns="http://www.w3.org/2000/svg">
<path d="M246 98.73L190 34.73C189.251 33.8748 188.328 33.189 187.294 32.7183C186.259 32.2476 185.136 32.0027 184 32H71.9996C70.8629 32.0027 69.7399 32.2476 68.7053 32.7183C67.6707 33.189 66.7483 33.8748 65.9996 34.73L9.99956 98.73C8.69313 100.222 7.98717 102.145 8.01858 104.128C8.04999 106.11 8.81654 108.011 10.1696 109.46L122.17 229.46C122.918 230.262 123.824 230.902 124.83 231.34C125.837 231.777 126.922 232.003 128.02 232.003C129.117 232.003 130.203 231.777 131.209 231.34C132.215 230.902 133.121 230.262 133.87 229.46L245.87 109.46C247.217 108.006 247.976 106.103 248 104.12C248.024 102.137 247.311 100.217 246 98.73ZM222.37 96H180L144 48H180.37L222.37 96ZM74.5796 112L104.71 187.33L34.4096 112H74.5796ZM181.42 112H221.59L151.29 187.33L181.42 112ZM75.6296 48H112L75.9996 96H33.6296L75.6296 48Z" fill="white"/>
</svg>
