<?xml version="1.0" encoding="UTF-8"?>
<svg xmlns="http://www.w3.org/2000/svg" version="1.1" viewBox="0 0 256 256">
  <defs>
    <style>
      .cls-1 {
        fill: none;
      }

      .cls-2 {
        fill: #fff;
      }
    </style>
  </defs>
  <!-- Generator: Adobe Illustrator 28.7.1, SVG Export Plug-In . SVG Version: 1.2.0 Build 142)  -->
  <g>
    <g id="Layer_1">
      <rect class="cls-1" width="256" height="256"/>
      <path class="cls-2" d="M200,204.5v27.5c0,4.4-3.6,8-8,8s-8-3.6-8-8v-27.5c.1-24.3-13.6-46.5-35.4-57.2l-48.4-24.2c-27.2-13.5-44.3-41.3-44.2-71.6v-27.5c0-4.4,3.6-8,8-8s8,3.6,8,8v27.5c0,24.3,13.6,46.5,35.4,57.2l48.4,24.2c27.2,13.5,44.3,41.3,44.2,71.6ZM163.2,192h-80.2c-4.4,0-8-3.6-8-8v-.5c.4-4.3,4-7.5,8.2-7.5h66.4c2.2,0,4-1.8,4-4s-.5-2.1-1.2-2.9c-3.3-3-7-5.5-11-7.5l-44.4-22.3c-2.7-1.3-5.9-1.1-8.3.7h0c-20.5,15.1-32.6,39-32.7,64.5v27.2c0,4.3,3.2,7.9,7.5,8.3,4.4.3,8.2-3,8.5-7.5v-16.5h88c4.4,0,8-3.6,8-8v-3.5c0-3.1-.3-6.2-.9-9.3-.4-1.9-2-3.2-3.9-3.2ZM191.5,16c-4.3.4-7.5,4-7.5,8.3v15.7h-88c-4.4,0-8,3.6-8,8v3.5c0,3.1.3,6.2.9,9.3.4,1.9,2,3.2,3.9,3.2h79.9c4.3,0,7.9,3.2,8.2,7.5.3,4.4-3,8.2-7.5,8.5h-67.2c-2.2,0-4,1.8-4,4s.5,2.1,1.2,2.9c3.3,3,7,5.5,11,7.5l44.4,22.3c2.7,1.4,5.9,1.1,8.3-.7h0c20.5-15.1,32.6-39,32.7-64.5v-27.5c0-4.4-3.6-8-8-8h-.3Z"/>
    </g>
  </g>
</svg>