<?xml version="1.0" encoding="UTF-8"?>
<svg xmlns="http://www.w3.org/2000/svg" version="1.1" viewBox="0 0 32 32">
  <defs>
    <style>
      .cls-1 {
        fill: #fff;
      }
    </style>
  </defs>
  <!-- Generator: Adobe Illustrator 28.7.1, SVG Export Plug-In . SVG Version: 1.2.0 Build 142)  -->
  <g>
    <g id="Layer_1">
      <path class="cls-1" d="M27.4,5.1c-.2,0-.4-.1-.6,0-.2,0-.4.1-.5.2-3.5,3-6.5,1.6-9.9-.1-3.6-1.8-7.6-3.8-12.1.1-.1,0-.2.2-.3.3,0,.1,0,.3,0,.4v21c0,.3.1.5.3.7.2.2.4.3.7.3s.5-.1.7-.3c.2-.2.3-.4.3-.7v-5.5c3.3-2.6,6.2-1.2,9.6.4,2,1,4.3,2.1,6.6,2.1s3.6-.6,5.5-2.2c.1,0,.2-.2.3-.3,0-.1,0-.3,0-.4V6c0-.2,0-.4-.2-.5-.1-.2-.3-.3-.4-.4ZM6,19.1v-5.8c2.1-1.4,4.1-1.4,6-.9v6c-1.9-.5-3.9-.4-6,.8ZM26,20.5c-2.1,1.7-4,1.7-6,1.1v-6c-2.7-.8-5.3-2.6-8-3.4v-7c1.2.4,2.3.9,3.6,1.5,1.4.7,2.9,1.4,4.4,1.8v7c1.9.5,3.9.5,6-.9v5.8Z"/>
    </g>
  </g>
</svg>