<svg width="36" height="37" viewBox="0 0 36 37" fill="none" xmlns="http://www.w3.org/2000/svg">
<path d="M33.2152 3.80254C32.9824 3.69791 32.7243 3.66171 32.4714 3.69828C32.2185 3.73486 31.9815 3.84264 31.7887 4.00879C27.1228 8.00526 23.1701 6.06808 18.5892 3.82234C13.8432 1.49409 8.46234 -1.14107 2.45993 4.00879C2.31651 4.13189 2.20129 4.28389 2.12197 4.45463C2.04266 4.62537 2.00107 4.8109 2 4.99884V32.7199C2 33.07 2.14046 33.4058 2.39046 33.6534C2.64048 33.9009 2.97956 34.04 3.33313 34.04C3.6867 34.04 4.02578 33.9009 4.2758 33.6534C4.5258 33.4058 4.66626 33.07 4.66626 32.7199V25.4218C9.13057 21.9302 12.9766 23.8129 17.4059 25.9844C20.1388 27.3226 23.0817 28.7648 26.2379 28.7648C28.5592 28.7648 30.9939 27.9809 33.5402 25.7947C33.6835 25.6715 33.7988 25.5196 33.8782 25.3488C33.9575 25.1781 33.9989 24.9925 34 24.8046V4.99884C33.9987 4.74594 33.924 4.49875 33.7848 4.28667C33.6458 4.07457 33.448 3.90654 33.2152 3.80254ZM4.66626 22.2321V14.5494C7.47416 12.6881 10.1054 12.637 12.665 13.3382V21.2157C10.1437 20.5871 7.47749 20.6267 4.66626 22.2321ZM31.3288 24.1809C28.5175 26.3788 25.9512 26.4448 23.33 25.6511V17.7852C19.7273 16.7952 16.2678 14.3201 12.665 13.3382V4.15235C14.2064 4.61932 15.7661 5.38165 17.4059 6.18523C19.2823 7.10432 21.257 8.07126 23.33 8.58773V17.7852C25.8881 18.4865 28.5192 18.4354 31.3288 16.5724V24.1809Z" fill="white"/>
</svg>
