<svg width="32" height="32" viewBox="0 0 32 32" fill="none" xmlns="http://www.w3.org/2000/svg">
<path d="M31.2152 1.7625C30.9824 1.65787 30.7243 1.62167 30.4714 1.65824C30.2185 1.69482 29.9815 1.8026 29.7887 1.96875C25.1228 5.96522 21.1701 4.02804 16.5892 1.7823C11.8432 -0.545949 6.46234 -3.18111 0.459929 1.96875C0.316511 2.09185 0.201289 2.24385 0.121968 2.41459C0.0426598 2.58533 0.0010665 2.77086 0 2.9588V30.6799C0 31.03 0.140458 31.3658 0.39046 31.6134C0.640475 31.8609 0.979556 32 1.33313 32C1.6867 32 2.02578 31.8609 2.2758 31.6134C2.5258 31.3658 2.66626 31.03 2.66626 30.6799V23.3818C7.13057 19.8902 10.9766 21.7729 15.4059 23.9444C18.1388 25.2826 21.0817 26.7248 24.2379 26.7248C26.5592 26.7248 28.9939 25.9409 31.5402 23.7547C31.6835 23.6315 31.7988 23.4796 31.8782 23.3088C31.9575 23.1381 31.9989 22.9525 32 22.7646V2.9588C31.9987 2.7059 31.924 2.45871 31.7848 2.24663C31.6458 2.03453 31.448 1.8665 31.2152 1.7625ZM2.66626 20.1921V12.5094C5.47416 10.6481 8.10542 10.597 10.665 11.2982V19.1757C8.14368 18.5471 5.47749 18.5867 2.66626 20.1921ZM29.3288 22.1409C26.5175 24.3388 23.9512 24.4048 21.33 23.6111V15.7452C17.7273 14.7552 14.2678 12.2801 10.665 11.2982V2.11231C12.2064 2.57928 13.7661 3.34161 15.4059 4.14519C17.2823 5.06428 19.257 6.03122 21.33 6.54769V15.7452C23.8881 16.4465 26.5192 16.3954 29.3288 14.5324V22.1409Z" fill="#7537F8"/>
</svg>
