<?xml version="1.0" encoding="UTF-8"?>
<svg xmlns="http://www.w3.org/2000/svg" version="1.1" viewBox="0 0 32 32">
  <defs>
    <style>
      .cls-1 {
        fill: #fff;
      }
    </style>
  </defs>
  <!-- Generator: Adobe Illustrator 28.7.1, SVG Export Plug-In . SVG Version: 1.2.0 Build 142)  -->
  <g>
    <g id="Layer_1">
      <path class="cls-1" d="M31.2,1.8c-.2-.1-.5-.1-.7-.1-.3,0-.5.1-.7.3-4.7,4-8.6,2.1-13.2-.2C11.8-.5,6.5-3.2.5,2c-.1.1-.3.3-.3.4,0,.2-.1.4-.1.5v27.7c0,.4.1.7.4.9.3.2.6.4.9.4s.7-.1.9-.4c.2-.2.4-.6.4-.9v-7.3c4.5-3.5,8.3-1.6,12.7.6,2.7,1.3,5.7,2.8,8.8,2.8s4.8-.8,7.3-3c.1-.1.3-.3.3-.4,0-.2.1-.4.1-.5V3c0-.3,0-.5-.2-.7-.1-.2-.3-.4-.6-.5ZM2.7,20.2v-7.7c2.8-1.9,5.4-1.9,8-1.2v7.9c-2.5-.6-5.2-.6-8,1ZM29.3,22.1c-2.8,2.2-5.4,2.3-8,1.5v-7.9c-3.6-1-7.1-3.5-10.7-4.4V2.1c1.5.5,3.1,1.2,4.7,2,1.9.9,3.9,1.9,5.9,2.4v9.2c2.6.7,5.2.7,8-1.2v7.6Z"/>
    </g>
  </g>
</svg>