<?xml version="1.0" encoding="UTF-8"?>
<svg xmlns="http://www.w3.org/2000/svg" version="1.1" viewBox="0 0 256 256">
  <defs>
    <style>
      .cls-1 {
        fill: none;
      }

      .cls-2 {
        fill: #fff;
      }
    </style>
  </defs>
  <!-- Generator: Adobe Illustrator 28.7.1, SVG Export Plug-In . SVG Version: 1.2.0 Build 142)  -->
  <g>
    <g id="Layer_1">
      <rect class="cls-1" width="256" height="256"/>
      <path class="cls-2" d="M221.7,199.8l-61.7-102.9v-56.9h8c4.4,0,8-3.6,8-8s-3.6-8-8-8h-80c-4.4,0-8,3.6-8,8s3.6,8,8,8h8v56.9l-61.7,102.9c-4.5,7.6-2.1,17.4,5.5,22,2.5,1.5,5.3,2.3,8.2,2.3h160c8.8,0,16-7.2,16-16s-.8-5.8-2.3-8.3h0ZM131.6,156.9c-15.9-8.1-31.1-12.3-45.2-12.8l24.5-40.8c.7-1.2,1.1-2.7,1.1-4.1v-59.2h32v59.1c0,1.4.4,2.9,1.1,4.1l38.2,63.8c-11.9,2.3-29,1.3-51.7-10.1Z"/>
    </g>
  </g>
</svg>