<?xml version="1.0" encoding="UTF-8"?>
<svg xmlns="http://www.w3.org/2000/svg" version="1.1" viewBox="0 0 256 256">
  <defs>
    <style>
      .cls-1 {
        fill: none;
      }

      .cls-2 {
        fill: #fff;
      }
    </style>
  </defs>
  <!-- Generator: Adobe Illustrator 28.7.1, SVG Export Plug-In . SVG Version: 1.2.0 Build 142)  -->
  <g>
    <g id="Layer_1">
      <rect class="cls-1" width="256" height="256"/>
      <path class="cls-2" d="M128,24c-57.4,0-104,46.6-104,104s46.6,104,104,104,104-46.6,104-104c-.1-57.4-46.6-103.9-104-104ZM216,128c0,11.3-2.2,22.5-6.4,32.9l-44.7-27.5c-1.9-1.2-4-1.9-6.2-2.2l-22.8-3.1c-6.4-.8-12.7,2.3-16,7.9h-8.7l-3.8-7.9c-2.1-4.4-6.2-7.6-11-8.7l-8-1.7,7.8-13.7h16.7c2.7,0,5.4-.7,7.7-2l12.2-6.8c1.1-.6,2.1-1.3,3-2.1l26.9-24.3c5.6-5,6.9-13.2,3.3-19.7l-.4-.7c30.8,14.6,50.4,45.6,50.4,79.6ZM40,128c0-13.1,2.9-26,8.5-37.8l11.3,30.3c1.9,5.1,6.3,8.9,11.6,10l21.4,4.6,3.8,7.9c2.7,5.5,8.3,9,14.4,9h1.5l-7.2,16.2c-2.6,5.8-1.5,12.7,2.9,17.4h0c0,.1,19.6,20.3,19.6,20.3l-1.9,10c-47.7-1.1-85.9-40.1-86-87.9Z"/>
    </g>
  </g>
</svg>