<?xml version="1.0" encoding="UTF-8"?>
<svg xmlns="http://www.w3.org/2000/svg" version="1.1" viewBox="0 0 256 256">
  <defs>
    <style>
      .cls-1 {
        fill: none;
      }

      .cls-2 {
        fill: #fff;
      }
    </style>
  </defs>
  <!-- Generator: Adobe Illustrator 28.7.1, SVG Export Plug-In . SVG Version: 1.2.0 Build 142)  -->
  <g>
    <g id="Layer_1">
      <rect class="cls-1" width="256" height="256"/>
      <path class="cls-2" d="M128.1,57.4c1.4-19.8,18.7-34.7,38.5-33.3,5.9.4,11.7,2.3,16.7,5.5,1.8,1.2,2.4,3.7,1.2,5.5-.4.6-1,1.2-1.7,1.5-18.8,8.4-30.8,26.9-30.8,47.4s0,2.3.1,3.5c.2,2.2-1.5,4.1-3.7,4.3-.8,0-1.6,0-2.3-.5-12-6.9-19-20.1-18-33.9ZM240,160.6c0,9.3-5.2,17.9-13.6,22l-.4.2-38.8,16.5c-.4.2-.8.3-1.2.4l-64,16c-.6.2-1.3.2-1.9.2H16c-8.8,0-16-7.2-16-16v-40c0-8.8,7.2-16,16-16h28.7l22.6-22.6c6-6,14.1-9.4,22.6-9.4h50.1c15.5,0,28,12.5,28,28s-.3,4.3-.8,6.5l41.8-9.6c13.1-3.5,26.6,4.4,30.1,17.5.6,2.1.9,4.2.9,6.3ZM224,160.6c0-4.8-3.9-8.6-8.6-8.6s-1.5.1-2.3.3h-.3c0,.1-67,15.5-67,15.5-.6.1-1.2.2-1.8.2h-32c-4.4,0-8-3.6-8-8s3.6-8,8-8h28c6.6,0,12-5.4,12-12s-5.4-12-12-12h-50.1c-4.2,0-8.3,1.7-11.3,4.7l-22.6,22.6v44.7h63l62.4-15.6,38-16.2c2.8-1.5,4.6-4.4,4.6-7.6ZM168,84c0,19.9,16.1,36,36,36s36-16.1,36-36-16.1-36-36-36-36,16.1-36,36Z"/>
    </g>
  </g>
</svg>