<svg width="256" height="256" viewBox="0 0 256 256" fill="none" xmlns="http://www.w3.org/2000/svg">
<path d="M128 79.95C132.418 79.95 136 76.3683 136 71.95C136 67.5317 132.418 63.95 128 63.95C123.582 63.95 120 67.5317 120 71.95C120 76.3683 123.582 79.95 128 79.95Z" fill="white"/>
<path d="M152 143.95C156.418 143.95 160 140.368 160 135.95C160 131.532 156.418 127.95 152 127.95C147.582 127.95 144 131.532 144 135.95C144 140.368 147.582 143.95 152 143.95Z" fill="white"/>
<path d="M192.5 171.42C202.616 162.924 210.698 152.267 216.149 140.234C221.601 128.2 224.284 115.098 224 101.89C224 101.157 223.97 100.427 223.91 99.7C223.846 98.683 223.397 97.7287 222.654 97.0318C221.91 96.3349 220.929 95.948 219.91 95.95H195.75L172.62 123.7C175.509 128.569 176.584 134.303 175.654 139.888C174.724 145.472 171.85 150.549 167.54 154.22C163.229 157.89 157.76 159.919 152.098 159.947C146.436 159.974 140.947 158 136.601 154.372C132.254 150.744 129.33 145.696 128.346 140.121C127.361 134.545 128.379 128.801 131.22 123.904C134.061 119.007 138.542 115.271 143.871 113.358C149.199 111.445 155.033 111.478 160.34 113.45L185.85 82.83C186.606 81.9374 187.548 81.2213 188.611 80.7324C189.673 80.2434 190.83 79.9934 192 80H215.14C215.782 80.0007 216.414 79.8471 216.984 79.5519C217.554 79.2567 218.045 78.8287 218.414 78.3041C218.784 77.7794 219.022 77.1735 219.108 76.5376C219.195 75.9016 219.127 75.2542 218.91 74.65C207.27 42 176.86 18 140.74 16.08H140.15C139.612 16.0598 139.076 16.1484 138.573 16.3403C138.07 16.5323 137.612 16.8237 137.224 17.1972C136.837 17.5706 136.528 18.0185 136.318 18.5138C136.108 19.0091 136 19.5418 136 20.08V49.33C141.338 51.2172 145.836 54.9305 148.701 59.8138C151.566 64.6971 152.612 70.4359 151.654 76.0159C150.697 81.5958 147.798 86.6577 143.469 90.3068C139.141 93.956 133.661 95.9574 128 95.9574C122.338 95.9574 116.859 93.956 112.531 90.3068C108.202 86.6577 105.303 81.5958 104.346 76.0159C103.388 70.4359 104.434 64.6971 107.299 59.8138C110.164 54.9305 114.662 51.2172 120 49.33V22.33C120.002 21.7282 119.867 21.1338 119.607 20.5911C119.347 20.0485 118.968 19.5714 118.498 19.1956C118.028 18.8198 117.479 18.5549 116.893 18.4206C116.306 18.2863 115.697 18.2861 115.11 18.42C96.2941 23.041 79.5244 33.7318 67.3939 48.8394C55.2633 63.9471 48.4474 82.6301 48 102L25.55 145.14L25.33 145.59C23.6936 149.346 23.5604 153.586 24.9576 157.437C26.3548 161.289 29.176 164.457 32.84 166.29L33.09 166.41L56 176.9V207.9C56 212.143 57.6857 216.213 60.6863 219.214C63.6868 222.214 67.7565 223.9 72 223.9H112V231.9C112 234.022 112.843 236.057 114.343 237.557C115.843 239.057 117.878 239.9 120 239.9H191.77C193.186 239.918 194.584 239.574 195.83 238.9C197.238 238.132 198.383 236.959 199.116 235.532C199.849 234.106 200.136 232.492 199.94 230.9L192.5 171.42Z" fill="white"/>
</svg>
