<svg width="36" height="37" viewBox="0 0 36 37" fill="none" xmlns="http://www.w3.org/2000/svg">
<g clip-path="url(#clip0_1704_11515)">
<path d="M33.4208 19.026L28.9208 23.526C28.7635 23.6835 28.563 23.7908 28.3446 23.8342C28.1263 23.8777 27.8999 23.8554 27.6943 23.7702C27.4886 23.685 27.3128 23.5407 27.1892 23.3555C27.0656 23.1703 26.9997 22.9526 26.9999 22.73V19.355H8.99991V22.73C9.00008 22.9526 8.9342 23.1703 8.81059 23.3555C8.68699 23.5407 8.51122 23.685 8.30555 23.7702C8.09987 23.8554 7.87353 23.8777 7.65519 23.8342C7.43684 23.7908 7.23631 23.6835 7.07897 23.526L2.57897 19.026C2.47437 18.9215 2.39139 18.7974 2.33478 18.6608C2.27816 18.5242 2.24902 18.3779 2.24902 18.23C2.24902 18.0822 2.27816 17.9358 2.33478 17.7992C2.39139 17.6626 2.47437 17.5386 2.57897 17.4341L7.07897 12.9341C7.23631 12.7766 7.43684 12.6693 7.65519 12.6258C7.87353 12.5823 8.09987 12.6046 8.30555 12.6898C8.51122 12.775 8.68699 12.9194 8.81059 13.1045C8.9342 13.2897 9.00008 13.5074 8.99991 13.73V17.105H26.9999V13.73C26.9997 13.5074 27.0656 13.2897 27.1892 13.1045C27.3128 12.9194 27.4886 12.775 27.6943 12.6898C27.8999 12.6046 28.1263 12.5823 28.3446 12.6258C28.563 12.6693 28.7635 12.7766 28.9208 12.9341L33.4208 17.4341C33.5254 17.5386 33.6084 17.6626 33.665 17.7992C33.7217 17.9358 33.7508 18.0822 33.7508 18.23C33.7508 18.3779 33.7217 18.5242 33.665 18.6608C33.6084 18.7974 33.5254 18.9215 33.4208 19.026Z" fill="white"/>
</g>
<defs>
<clipPath id="clip0_1704_11515">
<rect width="36" height="36" fill="white" transform="translate(0 0.22998)"/>
</clipPath>
</defs>
</svg>
