<?xml version="1.0" encoding="UTF-8"?>
<svg id="Layer_1" data-name="Layer 1" xmlns="http://www.w3.org/2000/svg" version="1.1" viewBox="0 0 26 22">
  <defs>
    <style>
      .cls-1 {
        fill: #7537f8;
        stroke-width: 0px;
      }
    </style>
  </defs>
  <path class="cls-1" d="M24,0H2C.9,0,0,.9,0,2v18c0,1.1.9,2,2,2h22c1.1,0,2-.9,2-2V2c0-1.1-.9-2-2-2ZM22.5,14.5c-1.9,1.9-5.1,2-7,0l-6.3-5.6h0c-1.2-1.2-3.1-1.2-4.2,0-1.2,1.2-1.2,3.1,0,4.2,1.2,1.2,3.1,1.2,4.2,0,0,0,0,0,.1-.1.4-.4,1-.5,1.4,0s.5,1,0,1.4c0,0-.1.2-.2.2-2,2-5.1,2-7.1,0s-2-5.1,0-7.1c1.9-1.9,5.1-2,7.1,0l6.3,5.6h0c1.2,1.2,3.1,1.2,4.2,0,1.2-1.2,1.2-3.1,0-4.2-1.2-1.2-3.1-1.2-4.2,0,0,0,0,0-.1.1-.4.4-1,.5-1.4,0-.4-.4-.5-1,0-1.4,0,0,.1-.2.2-.2,2-1.9,5.1-1.9,7.1,0,1.9,1.9,1.9,5,0,7h0Z"/>
</svg>