<svg width="256" height="256" viewBox="0 0 256 256" fill="none" xmlns="http://www.w3.org/2000/svg">
<g clip-path="url(#clip0_11_67)">
<path d="M208 80H176V56C176 43.2696 170.943 31.0606 161.941 22.0589C152.939 13.0571 140.73 8 128 8C115.27 8 103.061 13.0571 94.0589 22.0589C85.0571 31.0606 80 43.2696 80 56V80H48C43.7565 80 39.6869 81.6857 36.6863 84.6863C33.6857 87.6869 32 91.7565 32 96V208C32 212.243 33.6857 216.313 36.6863 219.314C39.6869 222.314 43.7565 224 48 224H208C212.243 224 216.313 222.314 219.314 219.314C222.314 216.313 224 212.243 224 208V96C224 91.7565 222.314 87.6869 219.314 84.6863C216.313 81.6857 212.243 80 208 80ZM136 158.63V184C136 186.122 135.157 188.157 133.657 189.657C132.157 191.157 130.122 192 128 192C125.878 192 123.843 191.157 122.343 189.657C120.843 188.157 120 186.122 120 184V158.63C114.662 156.743 110.164 153.029 107.299 148.146C104.434 143.263 103.388 137.524 104.346 131.944C105.303 126.364 108.202 121.302 112.531 117.653C116.859 114.004 122.339 112.003 128 112.003C133.661 112.003 139.141 114.004 143.469 117.653C147.798 121.302 150.697 126.364 151.654 131.944C152.612 137.524 151.566 143.263 148.701 148.146C145.836 153.029 141.338 156.743 136 158.63ZM160 80H96V56C96 47.5131 99.3714 39.3737 105.373 33.3726C111.374 27.3714 119.513 24 128 24C136.487 24 144.626 27.3714 150.627 33.3726C156.629 39.3737 160 47.5131 160 56V80Z" fill="white"/>
</g>
<defs>
<clipPath id="clip0_11_67">
<rect width="256" height="256" fill="white"/>
</clipPath>
</defs>
</svg>
