<svg width="36" height="37" viewBox="0 0 36 37" fill="none" xmlns="http://www.w3.org/2000/svg">
<g id="Icons 2/Magnifying Glass">
<path id="Icon" d="M23.625 16.02C23.625 17.5776 23.1632 19.1001 22.2979 20.3952C21.4326 21.6902 20.2026 22.6996 18.7637 23.2956C17.3247 23.8916 15.7413 24.0476 14.2137 23.7437C12.6861 23.4399 11.2829 22.6898 10.1816 21.5885C9.08024 20.4872 8.33022 19.084 8.02636 17.5564C7.7225 16.0288 7.87845 14.4454 8.47449 13.0064C9.07053 11.5674 10.0799 10.3375 11.3749 9.47222C12.67 8.6069 14.1925 8.14504 15.75 8.14504C17.8386 8.14504 19.8417 8.97473 21.3185 10.4516C22.7954 11.9284 23.625 13.9315 23.625 16.02ZM32.296 32.566C32.1915 32.6706 32.0674 32.7536 31.9309 32.8102C31.7943 32.8668 31.6479 32.8959 31.5 32.8959C31.3522 32.8959 31.2058 32.8668 31.0692 32.8102C30.9327 32.7536 30.8086 32.6706 30.7041 32.566L23.6644 25.5249C21.2163 27.5616 18.0772 28.5761 14.9002 28.3574C11.7232 28.1387 8.75271 26.7036 6.60673 24.3507C4.46075 21.9978 3.30445 18.9082 3.37833 15.7245C3.45222 12.5408 4.75061 9.50812 7.00342 7.25729C9.25624 5.00646 12.2901 3.71075 15.4738 3.63968C18.6576 3.56861 21.7462 4.72765 24.0972 6.8757C26.4482 9.02376 27.8807 11.9955 28.0965 15.1727C28.3124 18.3499 27.2951 21.4881 25.2563 23.9344L32.296 30.9741C32.4006 31.0786 32.4836 31.2027 32.5402 31.3392C32.5968 31.4758 32.6259 31.6222 32.6259 31.77C32.6259 31.9179 32.5968 32.0643 32.5402 32.2009C32.4836 32.3374 32.4006 32.4615 32.296 32.566ZM15.75 26.145C17.7526 26.145 19.7101 25.5512 21.3752 24.4387C23.0402 23.3261 24.338 21.7448 25.1043 19.8947C25.8707 18.0446 26.0712 16.0088 25.6805 14.0448C25.2898 12.0807 24.3255 10.2766 22.9095 8.86059C21.4935 7.44458 19.6894 6.48027 17.7253 6.08959C15.7613 5.69892 13.7255 5.89943 11.8754 6.66576C10.0253 7.4321 8.44396 8.72985 7.33141 10.3949C6.21887 12.0599 5.62504 14.0175 5.62504 16.02C5.62802 18.7044 6.69572 21.2781 8.59388 23.1762C10.492 25.0744 13.0656 26.1421 15.75 26.145Z" fill="white"/>
</g>
</svg>
