<svg width="256" height="256" viewBox="0 0 256 256" fill="none" xmlns="http://www.w3.org/2000/svg">
<path d="M128 24C107.431 24 87.3235 30.0995 70.2207 41.5272C53.118 52.9548 39.7881 69.1974 31.9166 88.2009C24.0451 107.204 21.9855 128.115 25.9984 148.289C30.0112 168.463 39.9163 186.994 54.4609 201.539C69.0056 216.084 87.5366 225.989 107.711 230.002C127.885 234.015 148.796 231.955 167.799 224.083C186.803 216.212 203.045 202.882 214.473 185.779C225.901 168.677 232 148.569 232 128C231.966 100.428 220.997 73.9952 201.501 54.4989C182.005 35.0026 155.572 24.0344 128 24ZM112 160C112 162.122 111.157 164.157 109.657 165.657C108.157 167.157 106.122 168 104 168C101.878 168 99.8435 167.157 98.3432 165.657C96.8429 164.157 96 162.122 96 160V96C96 93.8783 96.8429 91.8434 98.3432 90.3431C99.8435 88.8429 101.878 88 104 88C106.122 88 108.157 88.8429 109.657 90.3431C111.157 91.8434 112 93.8783 112 96V160ZM160 160C160 162.122 159.157 164.157 157.657 165.657C156.157 167.157 154.122 168 152 168C149.878 168 147.843 167.157 146.343 165.657C144.843 164.157 144 162.122 144 160V96C144 93.8783 144.843 91.8434 146.343 90.3431C147.843 88.8429 149.878 88 152 88C154.122 88 156.157 88.8429 157.657 90.3431C159.157 91.8434 160 93.8783 160 96V160Z" fill="white"/>
</svg>
