<svg width="256" height="256" viewBox="0 0 256 256" fill="none" xmlns="http://www.w3.org/2000/svg">
<path d="M224 47.9999V208C224 212.243 222.314 216.313 219.314 219.314C216.313 222.314 212.243 224 208 224H160C155.757 224 151.687 222.314 148.686 219.314C145.686 216.313 144 212.243 144 208V180C144 178.939 144.421 177.922 145.172 177.172C145.922 176.421 146.939 176 148 176H184C185.097 176.002 186.182 175.779 187.189 175.344C188.196 174.91 189.103 174.273 189.853 173.473C190.603 172.673 191.181 171.727 191.55 170.694C191.92 169.662 192.073 168.564 192 167.47C191.821 165.414 190.871 163.501 189.341 162.116C187.811 160.73 185.814 159.974 183.75 160H148C146.939 160 145.922 159.579 145.172 158.828C144.421 158.078 144 157.061 144 156V140C144 138.939 144.421 137.922 145.172 137.172C145.922 136.421 146.939 136 148 136H184C185.097 136.002 186.182 135.779 187.189 135.344C188.196 134.91 189.103 134.273 189.853 133.473C190.603 132.673 191.181 131.727 191.55 130.694C191.92 129.662 192.073 128.564 192 127.47C191.821 125.414 190.871 123.501 189.341 122.116C187.811 120.73 185.814 119.975 183.75 120H148C146.939 120 145.922 119.579 145.172 118.828C144.421 118.078 144 117.061 144 116V99.9999C144 98.9391 144.421 97.9217 145.172 97.1715C145.922 96.4214 146.939 95.9999 148 95.9999H184C185.097 96.0024 186.182 95.7792 187.189 95.3445C188.196 94.9097 189.103 94.2726 189.853 93.4726C190.603 92.6727 191.181 91.727 191.55 90.6944C191.92 89.6618 192.073 88.5642 192 87.4699C191.821 85.4102 190.868 83.4947 189.334 82.1088C187.8 80.7229 185.797 79.9694 183.73 79.9999H148C146.939 79.9999 145.922 79.5785 145.172 78.8284C144.421 78.0782 144 77.0608 144 75.9999V47.9999C144 43.7565 145.686 39.6868 148.686 36.6862C151.687 33.6857 155.757 31.9999 160 31.9999H208C212.243 31.9999 216.313 33.6857 219.314 36.6862C222.314 39.6868 224 43.7565 224 47.9999ZM109.66 58.3399C110.403 59.0834 110.992 59.966 111.393 60.9371C111.795 61.9083 112.001 62.9491 112 63.9999V208C112 212.243 110.314 216.313 107.314 219.314C104.313 222.314 100.243 224 96 224H48C43.7565 224 39.6869 222.314 36.6863 219.314C33.6857 216.313 32 212.243 32 208V63.9999C31.9992 62.9491 32.2054 61.9083 32.6069 60.9371C33.0084 59.966 33.5973 59.0834 34.34 58.3399L66.34 26.3399C67.083 25.5961 67.9653 25.0061 68.9365 24.6035C69.9077 24.2009 70.9487 23.9937 72 23.9937C73.0513 23.9937 74.0923 24.2009 75.0635 24.6035C76.0347 25.0061 76.917 25.5961 77.66 26.3399L109.66 58.3399ZM48 79.9999V184H64V79.9999H48ZM80 79.9999V184H96V79.9999H80ZM51.31 63.9999H92.69L72 43.3099L51.31 63.9999Z" fill="white"/>
</svg>
