<svg width="37" height="37" viewBox="0 0 37 37" fill="none" xmlns="http://www.w3.org/2000/svg">
<g id="Icons 2/Pencil Circle">
<path id="Icon" d="M28.6757 7.92851C25.933 5.18576 22.213 3.6449 18.3342 3.6449C14.4553 3.6449 10.7354 5.18576 7.9926 7.92851C5.24985 10.6713 3.70898 14.3912 3.70898 18.2701C3.70898 22.1489 5.24985 25.8689 7.9926 28.6116C10.7354 31.3544 14.4553 32.8953 18.3342 32.8953C22.213 32.8953 25.933 31.3544 28.6757 28.6116C31.4185 25.8689 32.9593 22.1489 32.9593 18.2701C32.9593 14.3912 31.4185 10.6713 28.6757 7.92851ZM18.3342 24.2987C17.7808 23.668 17.0618 23.2051 16.2588 22.9622C15.4557 22.7194 14.6006 22.7064 13.7906 22.9248L15.9435 18.2701H20.7248L22.8721 22.9248C22.0629 22.7075 21.209 22.7211 20.407 22.9639C19.6051 23.2067 18.887 23.6691 18.3342 24.2987ZM23.9592 29.2909C22.5554 30.0055 21.028 30.4456 19.4592 30.5874V27.2701C19.4592 26.6733 19.6962 26.101 20.1182 25.6791C20.5401 25.2571 21.1124 25.0201 21.7092 25.0201C22.3059 25.0201 22.8782 25.2571 23.3002 25.6791C23.7221 26.101 23.9592 26.6733 23.9592 27.2701V29.2909ZM27.0839 27.0212C26.8026 27.3024 26.5101 27.5654 26.2092 27.8143V25.0201C26.2094 24.8573 26.1738 24.6965 26.1051 24.549L19.3551 9.92398C19.2649 9.72915 19.1209 9.56419 18.94 9.44858C18.7591 9.33297 18.5489 9.27154 18.3342 9.27154C18.1195 9.27154 17.9093 9.33297 17.7284 9.44858C17.5475 9.56419 17.4034 9.72915 17.3132 9.92398L10.5632 24.549C10.4945 24.6965 10.459 24.8573 10.4592 25.0201V27.8143C10.1582 27.5654 9.86572 27.3024 9.58447 27.0212C7.85359 25.2906 6.67477 23.0856 6.1971 20.685C5.71944 18.2844 5.96438 15.7961 6.90095 13.5348C7.83752 11.2734 9.42365 9.34055 11.4588 7.98068C13.4939 6.6208 15.8865 5.89496 18.3342 5.89496C20.7818 5.89496 23.1745 6.6208 25.2096 7.98068C27.2447 9.34055 28.8308 11.2734 29.7674 13.5348C30.7039 15.7961 30.9489 18.2844 30.4712 20.685C29.9936 23.0856 28.8147 25.2906 27.0839 27.0212Z" fill="white"/>
</g>
</svg>
