<?xml version="1.0" encoding="UTF-8"?>
<svg xmlns="http://www.w3.org/2000/svg" version="1.1" viewBox="0 0 24 25">
  <defs>
    <style>
      .cls-1 {
        fill: #fff;
      }
    </style>
  </defs>
  <!-- Generator: Adobe Illustrator 28.7.1, SVG Export Plug-In . SVG Version: 1.2.0 Build 142)  -->
  <g>
    <g id="Layer_1">
      <path class="cls-1" d="M24,3v20c0,1.1-.9,2-2,2h-6c-1.1,0-2-.9-2-2v-3.5c0-.3.2-.5.5-.5h4.5c.6,0,1-.4,1-1h0c0-.5-.5-.9-1-.9h-4.5c-.3,0-.5-.2-.5-.5v-2c0-.3.2-.5.5-.5h4.5c.6,0,1-.4,1-1h0c0-.5-.5-.9-1-.9h-4.5c-.3,0-.5-.2-.5-.5v-2c0-.3.2-.5.5-.5h4.5c.6,0,1-.4,1-1h0c0-.5-.5-.9-1-.9h-4.5c-.3,0-.5-.2-.5-.5v-3.5c0-1.1.9-2,2-2h6c1.1,0,2,.9,2,2v-.3ZM9.7,4.3c.2.2.3.4.3.7v18c0,1.1-.9,2-2,2H2c-1.1,0-2-.9-2-2V5c0-.3.1-.5.3-.7L4.3.3c.4-.4,1-.4,1.4,0h0s4,4,4,4ZM2,7v13h2V7h-2ZM6,7v13h2V7h-2ZM2.4,5h5.2l-2.6-2.6-2.6,2.6Z"/>
    </g>
  </g>
</svg>