<?xml version="1.0" encoding="UTF-8"?>
<svg xmlns="http://www.w3.org/2000/svg" version="1.1" viewBox="0 0 28 32">
  <defs>
    <style>
      .cls-1 {
        fill: #fff;
      }
    </style>
  </defs>
  <!-- Generator: Adobe Illustrator 28.7.1, SVG Export Plug-In . SVG Version: 1.2.0 Build 142)  -->
  <g>
    <g id="Layer_1">
      <path class="cls-1" d="M9.9,3.9c0-2.1,1.7-3.9,3.9-3.9s3.9,1.7,3.9,3.9-1.7,3.9-3.9,3.9-3.9-1.7-3.9-3.9ZM27.5,11.7c-.2-1-1.1-1.8-2.2-1.7H2.2c-1.2,0-2.2,1-2.2,2.2s.5,1.6,1.3,2h0l7.4,3.3-3,11.5c-.5,1.1,0,2.4,1.1,2.9.3.1.6.2.9.2.9,0,1.6-.5,2-1.3l4.1-7,4.1,7c.5,1.1,1.9,1.5,3,1,1-.5,1.5-1.8,1.1-2.9l-3-11.5,7.5-3.3c.9-.4,1.5-1.5,1.2-2.5Z"/>
    </g>
  </g>
</svg>