<svg width="28" height="32" viewBox="0 0 28 32" fill="none" xmlns="http://www.w3.org/2000/svg">
<path d="M9.93359 3.86306C9.93359 1.72458 11.6582 0 13.7967 0C15.9351 0 17.6597 1.72458 17.6597 3.86306C17.6597 6.00155 15.9351 7.72613 13.7967 7.72613C11.6582 7.72613 9.93359 6.00155 9.93359 3.86306ZM27.5381 11.672C27.3312 10.651 26.4206 9.9198 25.3858 9.93359H2.20747C0.993359 9.93359 0 10.927 0 12.1411C0 12.9965 0.49668 13.7829 1.28309 14.1416H1.29689L8.73328 17.4114L5.71182 28.904C5.22893 30.0077 5.71182 31.277 6.80175 31.7875C7.09148 31.9255 7.4088 31.9944 7.73992 31.9944C8.59532 31.9944 9.36793 31.5116 9.72664 30.739L13.7967 23.7303L17.8805 30.7665C18.4185 31.8565 19.743 32.3118 20.833 31.7737C21.8815 31.2494 22.3506 30.0077 21.8953 28.9178L18.8738 17.4252L26.324 14.1416C27.2622 13.7277 27.7865 12.6791 27.5381 11.672Z" fill="#7537F8"/>
</svg>
