<svg width="16" height="16" viewBox="0 0 16 16" fill="none" xmlns="http://www.w3.org/2000/svg">
<path d="M15.2316 10.7607L11.4637 9.07297L11.4557 9.06497C11.0557 8.89699 10.5997 8.93699 10.2397 9.17695C10.2157 9.19295 10.1997 9.20895 10.1757 9.22495L8.23178 10.8807C6.99982 10.2808 5.72786 9.01698 5.12788 7.80115L6.79183 5.82544C6.80783 5.80944 6.82382 5.78544 6.83982 5.76145C7.07182 5.4015 7.11182 4.95356 6.94382 4.55362V4.54562L5.23987 0.770164C5.01588 0.250239 4.47189 -0.0617162 3.91191 0.0102734C1.67198 0.306231 -0.00797131 2.21796 2.84502e-05 4.48163C2.84502e-05 10.8327 5.16787 16 11.5197 16C13.7836 16.008 15.6956 14.3282 15.9915 12.0885C16.0555 11.5206 15.7516 10.9847 15.2316 10.7607Z" fill="white"/>
</svg>
