<svg width="37" height="37" viewBox="0 0 37 37" fill="none" xmlns="http://www.w3.org/2000/svg">
<g id="Icons 2/Puzzle Piece">
<path id="Icon" d="M23.9788 31.77H29.916C30.5128 31.77 31.085 31.533 31.507 31.111C31.929 30.6891 32.166 30.1168 32.166 29.52V24.2255C32.1651 24.041 32.1187 23.8596 32.0311 23.6972C31.9435 23.5348 31.8174 23.3965 31.6637 23.2944C31.51 23.1923 31.3336 23.1295 31.15 23.1116C30.9664 23.0938 30.7812 23.1213 30.6107 23.1919C30.212 23.3566 29.7849 23.4411 29.3535 23.4408C27.493 23.4408 25.9785 21.8799 25.9785 19.9631C25.9785 18.0464 27.493 16.4855 29.3535 16.4855C29.7849 16.4852 30.212 16.5697 30.6107 16.7344C30.782 16.8053 30.9683 16.8328 31.1528 16.8144C31.3373 16.796 31.5144 16.7322 31.6684 16.6288C31.8223 16.5254 31.9483 16.3855 32.0351 16.2217C32.1219 16.0578 32.1669 15.875 32.166 15.6896V10.395C32.166 9.79828 31.929 9.22599 31.507 8.80403C31.085 8.38207 30.5128 8.14502 29.916 8.14502H24.8226C24.8435 7.95825 24.8538 7.77045 24.8535 7.58252C24.8535 6.23986 24.3201 4.95219 23.3707 4.00279C22.4213 3.05339 21.1337 2.52002 19.791 2.52002C18.4484 2.52002 17.1607 3.05339 16.2113 4.00279C15.2619 4.95219 14.7285 6.23986 14.7285 7.58252C14.7282 7.77045 14.7385 7.95825 14.7595 8.14502H9.66602C9.06928 8.14502 8.49698 8.38207 8.07503 8.80403C7.65307 9.22599 7.41602 9.79828 7.41602 10.395V14.926C7.22925 14.905 7.04145 14.8947 6.85352 14.895C5.51086 14.895 4.22319 15.4284 3.27379 16.3778C2.32438 17.3272 1.79102 18.6149 1.79102 19.9575C1.79102 21.3002 2.32438 22.5878 3.27379 23.5372C4.22319 24.4867 5.51086 25.02 6.85352 25.02C7.04145 25.0203 7.22925 25.01 7.41602 24.9891V29.52C7.41602 30.1168 7.65307 30.6891 8.07503 31.111C8.49698 31.533 9.06928 31.77 9.66602 31.77H15.6032" fill="white"/>
</g>
</svg>
