<svg width="256" height="256" viewBox="0 0 256 256" fill="none" xmlns="http://www.w3.org/2000/svg">
<path d="M144 120V208C144 210.122 143.157 212.157 141.657 213.657C140.157 215.157 138.122 216 136 216H48C45.8783 216 43.8434 215.157 42.3431 213.657C40.8429 212.157 40 210.122 40 208V120C40 117.878 40.8429 115.843 42.3431 114.343C43.8434 112.843 45.8783 112 48 112H136C138.122 112 140.157 112.843 141.657 114.343C143.157 115.843 144 117.878 144 120ZM208 176C205.878 176 203.843 176.843 202.343 178.343C200.843 179.843 200 181.878 200 184V200H176C173.878 200 171.843 200.843 170.343 202.343C168.843 203.843 168 205.878 168 208C168 210.122 168.843 212.157 170.343 213.657C171.843 215.157 173.878 216 176 216H200C204.243 216 208.313 214.314 211.314 211.314C214.314 208.313 216 204.243 216 200V184C216 181.878 215.157 179.843 213.657 178.343C212.157 176.843 210.122 176 208 176ZM208 104C205.878 104 203.843 104.843 202.343 106.343C200.843 107.843 200 109.878 200 112V144C200 146.122 200.843 148.157 202.343 149.657C203.843 151.157 205.878 152 208 152C210.122 152 212.157 151.157 213.657 149.657C215.157 148.157 216 146.122 216 144V112C216 109.878 215.157 107.843 213.657 106.343C212.157 104.843 210.122 104 208 104ZM200 40H184C181.878 40 179.843 40.8429 178.343 42.3431C176.843 43.8434 176 45.8783 176 48C176 50.1217 176.843 52.1566 178.343 53.6569C179.843 55.1571 181.878 56 184 56H200V72C200 74.1217 200.843 76.1566 202.343 77.6569C203.843 79.1571 205.878 80 208 80C210.122 80 212.157 79.1571 213.657 77.6569C215.157 76.1566 216 74.1217 216 72V56C216 51.7565 214.314 47.6869 211.314 44.6863C208.313 41.6857 204.243 40 200 40ZM144 40H112C109.878 40 107.843 40.8429 106.343 42.3431C104.843 43.8434 104 45.8783 104 48C104 50.1217 104.843 52.1566 106.343 53.6569C107.843 55.1571 109.878 56 112 56H144C146.122 56 148.157 55.1571 149.657 53.6569C151.157 52.1566 152 50.1217 152 48C152 45.8783 151.157 43.8434 149.657 42.3431C148.157 40.8429 146.122 40 144 40ZM48 88C50.1217 88 52.1566 87.1571 53.6569 85.6569C55.1571 84.1566 56 82.1217 56 80V56H72C74.1217 56 76.1566 55.1571 77.6569 53.6569C79.1571 52.1566 80 50.1217 80 48C80 45.8783 79.1571 43.8434 77.6569 42.3431C76.1566 40.8429 74.1217 40 72 40H56C51.7565 40 47.6869 41.6857 44.6863 44.6863C41.6857 47.6869 40 51.7565 40 56V80C40 82.1217 40.8429 84.1566 42.3431 85.6569C43.8434 87.1571 45.8783 88 48 88Z" fill="white"/>
</svg>
