<svg width="256" height="256" viewBox="0 0 256 256" fill="none" xmlns="http://www.w3.org/2000/svg">
<path d="M200 48H136V16C136 13.8783 135.157 11.8434 133.657 10.3431C132.157 8.84285 130.122 8 128 8C125.878 8 123.843 8.84285 122.343 10.3431C120.843 11.8434 120 13.8783 120 16V48H56C47.5131 48 39.3737 51.3714 33.3726 57.3726C27.3714 63.3737 24 71.5131 24 80V192C24 200.487 27.3714 208.626 33.3726 214.627C39.3737 220.629 47.5131 224 56 224H200C208.487 224 216.626 220.629 222.627 214.627C228.629 208.626 232 200.487 232 192V80C232 71.5131 228.629 63.3737 222.627 57.3726C216.626 51.3714 208.487 48 200 48ZM172 96C174.373 96 176.693 96.7038 178.667 98.0224C180.64 99.3409 182.178 101.215 183.087 103.408C183.995 105.601 184.232 108.013 183.769 110.341C183.306 112.669 182.164 114.807 180.485 116.485C178.807 118.164 176.669 119.306 174.341 119.769C172.013 120.232 169.601 119.995 167.408 119.087C165.215 118.178 163.341 116.64 162.022 114.667C160.704 112.693 160 110.373 160 108C160 104.817 161.264 101.765 163.515 99.5147C165.765 97.2643 168.817 96 172 96ZM96 184H80C75.7565 184 71.6869 182.314 68.6863 179.314C65.6857 176.313 64 172.243 64 168C64 163.757 65.6857 159.687 68.6863 156.686C71.6869 153.686 75.7565 152 80 152H96V184ZM84 120C81.6266 120 79.3066 119.296 77.3332 117.978C75.3598 116.659 73.8217 114.785 72.9134 112.592C72.0052 110.399 71.7676 107.987 72.2306 105.659C72.6936 103.331 73.8365 101.193 75.5147 99.5147C77.1929 97.8365 79.3311 96.6936 81.6589 96.2306C83.9867 95.7676 86.3995 96.0052 88.5922 96.9134C90.7849 97.8217 92.6591 99.3598 93.9776 101.333C95.2962 103.307 96 105.627 96 108C96 111.183 94.7357 114.235 92.4853 116.485C90.2348 118.736 87.1826 120 84 120ZM144 184H112V152H144V184ZM176 184H160V152H176C180.243 152 184.313 153.686 187.314 156.686C190.314 159.687 192 163.757 192 168C192 172.243 190.314 176.313 187.314 179.314C184.313 182.314 180.243 184 176 184Z" fill="white"/>
</svg>
