<svg width="256" height="256" viewBox="0 0 256 256" fill="none" xmlns="http://www.w3.org/2000/svg">
<path d="M225.86 102.82C222.09 98.88 218.19 94.82 216.72 91.25C215.36 87.98 215.28 82.56 215.2 77.31C215.05 67.55 214.89 56.49 207.2 48.8C199.51 41.11 188.45 40.95 178.69 40.8C173.44 40.72 168.02 40.64 164.75 39.28C161.19 37.81 157.12 33.91 153.18 30.14C146.28 23.51 138.44 16 128 16C117.56 16 109.73 23.51 102.82 30.14C98.88 33.91 94.82 37.81 91.25 39.28C88 40.64 82.56 40.72 77.31 40.8C67.55 40.95 56.49 41.11 48.8 48.8C41.11 56.49 41 67.55 40.8 77.31C40.72 82.56 40.64 87.98 39.28 91.25C37.81 94.81 33.91 98.88 30.14 102.82C23.51 109.72 16 117.56 16 128C16 138.44 23.51 146.27 30.14 153.18C33.91 157.12 37.81 161.18 39.28 164.75C40.64 168.02 40.72 173.44 40.8 178.69C40.95 188.45 41.11 199.51 48.8 207.2C56.49 214.89 67.55 215.05 77.31 215.2C82.56 215.28 87.98 215.36 91.25 216.72C94.81 218.19 98.88 222.09 102.82 225.86C109.72 232.49 117.56 240 128 240C138.44 240 146.27 232.49 153.18 225.86C157.12 222.09 161.18 218.19 164.75 216.72C168.02 215.36 173.44 215.28 178.69 215.2C188.45 215.05 199.51 214.89 207.2 207.2C214.89 199.51 215.05 188.45 215.2 178.69C215.28 173.44 215.36 168.02 216.72 164.75C218.19 161.19 222.09 157.12 225.86 153.18C232.49 146.28 240 138.44 240 128C240 117.56 232.49 109.73 225.86 102.82ZM173.66 109.66L117.66 165.66C116.917 166.404 116.035 166.994 115.064 167.396C114.092 167.799 113.051 168.006 112 168.006C110.949 168.006 109.908 167.799 108.936 167.396C107.965 166.994 107.083 166.404 106.34 165.66L82.34 141.66C80.8389 140.159 79.9956 138.123 79.9956 136C79.9956 133.877 80.8389 131.841 82.34 130.34C83.8411 128.839 85.8771 127.996 88 127.996C90.1229 127.996 92.1589 128.839 93.66 130.34L112 148.69L162.34 98.34C163.083 97.5967 163.966 97.0071 164.937 96.6049C165.908 96.2026 166.949 95.9956 168 95.9956C169.051 95.9956 170.092 96.2026 171.063 96.6049C172.034 97.0071 172.917 97.5967 173.66 98.34C174.403 99.0833 174.993 99.9657 175.395 100.937C175.797 101.908 176.004 102.949 176.004 104C176.004 105.051 175.797 106.092 175.395 107.063C174.993 108.034 174.403 108.917 173.66 109.66Z" fill="white"/>
</svg>
