<?xml version="1.0" encoding="UTF-8"?>
<svg xmlns="http://www.w3.org/2000/svg" version="1.1" viewBox="0 0 32 32">
  <defs>
    <style>
      .cls-1 {
        fill: #fff;
      }
    </style>
  </defs>
  <!-- Generator: Adobe Illustrator 28.7.1, SVG Export Plug-In . SVG Version: 1.2.0 Build 142)  -->
  <g>
    <g id="Layer_1">
      <path class="cls-1" d="M26,5H6c-.5,0-1,.2-1.4.6-.4.4-.6.9-.6,1.4v7.3c0,11.2,9.5,14.9,11.4,15.5.4.1.8.1,1.2,0,1.9-.6,11.4-4.3,11.4-15.5v-7.3c0-.5-.2-1-.6-1.4-.4-.4-.9-.6-1.4-.6ZM26,14.3c0,2.2-.4,4.1-1.1,5.7l-8.3-5.8c-.2-.1-.4-.2-.6-.2s-.4,0-.6.2l-8.3,5.8c-.7-1.6-1.1-3.5-1.1-5.7v-7.3h20v7.3Z"/>
    </g>
  </g>
</svg>