<svg width="256" height="256" viewBox="0 0 256 256" fill="none" xmlns="http://www.w3.org/2000/svg">
<path d="M208 40H48C43.7565 40 39.6869 41.6857 36.6863 44.6863C33.6857 47.6869 32 51.7565 32 56V112C32 164.72 57.52 196.67 78.93 214.19C101.99 233.05 124.93 239.45 125.93 239.72C127.305 240.094 128.755 240.094 130.13 239.72C131.13 239.45 154.04 233.05 177.13 214.19C198.48 196.67 224 164.72 224 112V56C224 51.7565 222.314 47.6869 219.314 44.6863C216.313 41.6857 212.243 40 208 40ZM173.68 109.66L117.68 165.66C116.937 166.404 116.055 166.994 115.084 167.396C114.112 167.799 113.071 168.006 112.02 168.006C110.969 168.006 109.928 167.799 108.956 167.396C107.985 166.994 107.103 166.404 106.36 165.66L82.36 141.66C80.8589 140.159 80.0155 138.123 80.0155 136C80.0155 133.877 80.8589 131.841 82.36 130.34C83.8611 128.839 85.8971 127.996 88.02 127.996C90.1429 127.996 92.1789 128.839 93.68 130.34L112 148.69L162.34 98.34C163.083 97.5967 163.966 97.0071 164.937 96.6049C165.908 96.2026 166.949 95.9956 168 95.9956C169.051 95.9956 170.092 96.2026 171.063 96.6049C172.034 97.0071 172.917 97.5967 173.66 98.34C174.403 99.0833 174.993 99.9657 175.395 100.937C175.797 101.908 176.004 102.949 176.004 104C176.004 105.051 175.797 106.092 175.395 107.063C174.993 108.034 174.403 108.917 173.66 109.66H173.68Z" fill="white"/>
</svg>
