<svg width="256" height="256" viewBox="0 0 256 256" fill="none" xmlns="http://www.w3.org/2000/svg">
<path d="M208 40H48C43.7565 40 39.6869 41.6857 36.6863 44.6863C33.6857 47.6869 32 51.7565 32 56V112C32 164.72 57.52 196.67 78.93 214.19C101.99 233.05 124.93 239.46 125.93 239.72C127.305 240.094 128.755 240.094 130.13 239.72C131.13 239.46 154.04 233.05 177.13 214.19C198.48 196.67 224 164.72 224 112V56C224 51.7565 222.314 47.6869 219.314 44.6863C216.313 41.6857 212.243 40 208 40ZM128 223.62C113.852 218.68 100.679 211.298 89.08 201.81C65.83 182.79 52.37 158 48.9 128H128V56H208V112C208.003 117.346 207.703 122.688 207.1 128H128V223.62Z" fill="white"/>
</svg>
