<svg width="40" height="37" viewBox="0 0 40 37" fill="none" xmlns="http://www.w3.org/2000/svg">
<g clip-path="url(#clip0_1706_6433)">
<path d="M9.38477 24.0758C9.38477 26.11 7.74066 27.7542 5.70642 27.7542C3.67219 27.7542 2.02808 26.11 2.02808 24.0758C2.02808 22.0416 3.67219 20.3975 5.70642 20.3975H9.38477V24.0758ZM11.2239 24.0758C11.2239 22.0416 12.868 20.3975 14.9023 20.3975C16.9365 20.3975 18.5806 22.0416 18.5806 24.0758V33.2717C18.5806 35.3059 16.9365 36.95 14.9023 36.95C12.868 36.95 11.2239 35.3059 11.2239 33.2717V24.0758Z" fill="white"/>
<path d="M14.9021 9.30664C12.8678 9.30664 11.2237 7.66253 11.2237 5.6283C11.2237 3.59406 12.8678 1.94995 14.9021 1.94995C16.9363 1.94995 18.5804 3.59406 18.5804 5.6283V9.30664H14.9021ZM14.9021 11.1737C16.9363 11.1737 18.5804 12.8178 18.5804 14.852C18.5804 16.8863 16.9363 18.5304 14.9021 18.5304H5.67835C3.64411 18.5304 2 16.8863 2 14.852C2 12.8178 3.64411 11.1737 5.67835 11.1737H14.9021Z" fill="white"/>
<path d="M29.6434 14.852C29.6434 12.8178 31.2875 11.1737 33.3217 11.1737C35.356 11.1737 37.0001 12.8178 37.0001 14.852C37.0001 16.8863 35.356 18.5304 33.3217 18.5304H29.6434V14.852ZM27.8042 14.852C27.8042 16.8863 26.1601 18.5304 24.1259 18.5304C22.0916 18.5304 20.4475 16.8863 20.4475 14.852V5.6283C20.4475 3.59406 22.0916 1.94995 24.1259 1.94995C26.1601 1.94995 27.8042 3.59406 27.8042 5.6283V14.852Z" fill="white"/>
<path d="M24.1259 29.5933C26.1601 29.5933 27.8042 31.2374 27.8042 33.2717C27.8042 35.3059 26.1601 36.95 24.1259 36.95C22.0916 36.95 20.4475 35.3059 20.4475 33.2717V29.5933H24.1259ZM24.1259 27.7542C22.0916 27.7542 20.4475 26.11 20.4475 24.0758C20.4475 22.0416 22.0916 20.3975 24.1259 20.3975H33.3496C35.3838 20.3975 37.0279 22.0416 37.0279 24.0758C37.0279 26.11 35.3838 27.7542 33.3496 27.7542H24.1259Z" fill="white"/>
</g>
<defs>
<clipPath id="clip0_1706_6433">
<rect width="40" height="36" fill="white" transform="translate(0 0.949951)"/>
</clipPath>
</defs>
</svg>
