<svg width="37" height="37" viewBox="0 0 37 37" fill="none" xmlns="http://www.w3.org/2000/svg">
<g id="Icons 2/Storefront">
<path id="Icon" d="M33.2474 13.4621L31.2309 6.40127C31.0952 5.93287 30.8117 5.52091 30.4227 5.2269C30.0336 4.9329 29.5599 4.77263 29.0723 4.77002H8.25977C7.77213 4.77263 7.29841 4.9329 6.90937 5.2269C6.52032 5.52091 6.23681 5.93287 6.10117 6.40127L4.08461 13.4621C4.05578 13.5622 4.04111 13.6658 4.04102 13.77V16.02C4.04102 16.8933 4.24433 17.7545 4.63486 18.5356C5.02539 19.3167 5.59241 19.9961 6.29102 20.52V30.645C6.29102 30.9434 6.40954 31.2295 6.62052 31.4405C6.8315 31.6515 7.11765 31.77 7.41602 31.77H29.916C30.2144 31.77 30.5005 31.6515 30.7115 31.4405C30.9225 31.2295 31.041 30.9434 31.041 30.645V20.52C31.7396 19.9961 32.3066 19.3167 32.6972 18.5356C33.0877 17.7545 33.291 16.8933 33.291 16.02V13.77C33.2909 13.6658 33.2763 13.5622 33.2474 13.4621ZM13.041 16.02C13.0408 16.6004 12.891 17.1709 12.6059 17.6764C12.3209 18.182 11.9103 18.6055 11.4138 18.906C10.9173 19.2066 10.3517 19.374 9.77163 19.3922C9.19154 19.4103 8.61658 19.2786 8.10227 19.0097C8.02401 18.9488 7.93793 18.8987 7.84633 18.8606C7.36972 18.5555 6.97748 18.1355 6.7057 17.6391C6.43392 17.1427 6.29132 16.5859 6.29102 16.02V14.895H13.041V16.02ZM22.041 16.02C22.041 16.9151 21.6854 17.7736 21.0525 18.4065C20.4196 19.0394 19.5611 19.395 18.666 19.395C17.7709 19.395 16.9125 19.0394 16.2795 18.4065C15.6466 17.7736 15.291 16.9151 15.291 16.02V14.895H22.041V16.02ZM31.041 16.02C31.0406 16.5861 30.8978 17.1429 30.6257 17.6393C30.3537 18.1357 29.9612 18.5557 29.4843 18.8606C29.3939 18.8987 29.3088 18.9484 29.2312 19.0083C28.7169 19.2775 28.1419 19.4095 27.5618 19.3916C26.9816 19.3736 26.4159 19.2064 25.9192 18.9059C25.4226 18.6055 25.0118 18.1821 24.7266 17.6766C24.4413 17.171 24.2913 16.6005 24.291 16.02V14.895H31.041V16.02Z" fill="white"/>
</g>
</svg>
