<svg width="256" height="256" viewBox="0 0 256 256" fill="none" xmlns="http://www.w3.org/2000/svg">
<path d="M231.69 93.81L217.35 43.6C216.385 40.2691 214.369 37.3396 211.603 35.2489C208.836 33.1582 205.468 32.0185 202 32H54C50.5324 32.0185 47.1637 33.1582 44.3972 35.2489C41.6306 37.3396 39.6145 40.2691 38.65 43.6L24.31 93.81C24.105 94.522 24.0007 95.2591 24 96V112C24 118.21 25.4458 124.334 28.2229 129.889C31 135.443 35.0322 140.274 40 144V216C40 218.122 40.8429 220.157 42.3431 221.657C43.8434 223.157 45.8783 224 48 224H208C210.122 224 212.157 223.157 213.657 221.657C215.157 220.157 216 218.122 216 216V144C220.968 140.274 225 135.443 227.777 129.889C230.554 124.334 232 118.21 232 112V96C231.999 95.2591 231.895 94.522 231.69 93.81ZM88 112C87.9986 116.127 86.9329 120.184 84.9059 123.779C82.8789 127.374 79.9592 130.386 76.4286 132.523C72.8981 134.66 68.876 135.851 64.751 135.98C60.626 136.109 56.5373 135.172 52.88 133.26C52.3235 132.827 51.7114 132.47 51.06 132.2C47.6708 130.03 44.8815 127.043 42.9488 123.513C41.0162 119.983 40.0021 116.024 40 112V104H88V112ZM152 112C152 118.365 149.471 124.47 144.971 128.971C140.47 133.471 134.365 136 128 136C121.635 136 115.53 133.471 111.029 128.971C106.529 124.47 104 118.365 104 112V104H152V112ZM216 112C215.997 116.025 214.981 119.985 213.047 123.515C211.112 127.045 208.321 130.031 204.93 132.2C204.287 132.471 203.682 132.824 203.13 133.25C199.473 135.164 195.384 136.103 191.259 135.975C187.133 135.848 183.11 134.658 179.578 132.522C176.047 130.386 173.125 127.375 171.097 123.78C169.069 120.185 168.002 116.128 168 112V104H216V112Z" fill="white"/>
</svg>
