<svg width="37" height="37" viewBox="0 0 37 37" fill="none" xmlns="http://www.w3.org/2000/svg">
<g clip-path="url(#clip0_1721_8838)">
<path d="M36.1493 32.4951C35.803 33.0963 35.303 33.5946 34.7006 33.9389C34.0982 34.2832 33.415 34.4611 32.7212 34.4542H4.61119C3.91736 34.4611 3.23421 34.2832 2.63178 33.9389C2.02936 33.5946 1.52935 33.0963 1.18302 32.4951C0.845084 31.9167 0.666992 31.2588 0.666992 30.5889C0.666992 29.919 0.845084 29.2612 1.18302 28.6828L15.2348 4.27417C15.586 3.67617 16.0874 3.18033 16.6893 2.83582C17.2912 2.4913 17.9727 2.31006 18.6662 2.31006C19.3597 2.31006 20.0412 2.4913 20.6431 2.83582C21.2449 3.18033 21.7463 3.67617 22.0976 4.27417L36.1526 28.6828C36.49 29.2615 36.6676 29.9195 36.667 30.5894C36.6664 31.2592 36.4878 31.9169 36.1493 32.4951Z" fill="white"/>
</g>
<defs>
<clipPath id="clip0_1721_8838">
<rect width="36" height="36" fill="white" transform="translate(0.666992 0.310059)"/>
</clipPath>
</defs>
</svg>
