<svg width="256" height="256" viewBox="0 0 256 256" fill="none" xmlns="http://www.w3.org/2000/svg">
<path d="M64.1201 147.8C64.1472 148.342 64.0638 148.884 63.875 149.392C63.6862 149.901 63.3958 150.366 63.0217 150.759C62.6475 151.152 62.1973 151.464 61.6985 151.678C61.1997 151.891 60.6627 152.001 60.1201 152H16.0001C14.1945 152.003 12.441 151.395 11.0248 150.274C9.60869 149.154 8.61315 147.588 8.20011 145.83C7.94292 144.627 7.95478 143.382 8.23483 142.184C8.51489 140.986 9.05622 139.864 9.82011 138.9C16.8782 129.54 26.243 122.17 37.0001 117.51C32.2774 113.204 28.6552 107.829 26.4369 101.835C24.2186 95.8416 23.4688 89.4036 24.2502 83.0605C25.0317 76.7174 27.3217 70.6539 30.9285 65.3778C34.5353 60.1018 39.3537 55.7667 44.9804 52.7358C50.6071 49.7049 56.8781 48.0664 63.2682 47.9574C69.6583 47.8485 75.9815 49.2723 81.7082 52.1096C87.4349 54.947 92.3984 59.1152 96.1829 64.2653C99.9675 69.4153 102.463 75.3972 103.46 81.71C103.589 82.5589 103.437 83.4267 103.027 84.1812C102.617 84.9357 101.972 85.5358 101.19 85.89C90.094 91.0198 80.6968 99.2164 74.1072 109.513C67.5176 119.809 64.0106 131.776 64.0001 144C64.0001 145.28 64.0001 146.54 64.1201 147.8ZM246.12 138.89C239.078 129.541 229.735 122.175 219 117.51C223.723 113.204 227.345 107.829 229.563 101.835C231.782 95.8416 232.531 89.4036 231.75 83.0605C230.968 76.7174 228.678 70.6539 225.072 65.3778C221.465 60.1018 216.646 55.7667 211.02 52.7358C205.393 49.7049 199.122 48.0664 192.732 47.9574C186.342 47.8485 180.019 49.2723 174.292 52.1096C168.565 54.947 163.602 59.1152 159.817 64.2653C156.033 69.4153 153.537 75.3972 152.54 81.71C152.411 82.5589 152.563 83.4267 152.973 84.1812C153.383 84.9357 154.028 85.5358 154.81 85.89C165.906 91.0198 175.303 99.2164 181.893 109.513C188.483 119.809 191.99 131.776 192 144C192 145.28 192 146.54 191.88 147.8C191.853 148.342 191.936 148.884 192.125 149.392C192.314 149.901 192.604 150.366 192.979 150.759C193.353 151.152 193.803 151.464 194.302 151.678C194.801 151.891 195.338 152.001 195.88 152H240C241.806 152.003 243.559 151.395 244.975 150.274C246.392 149.154 247.387 147.588 247.8 145.83C248.059 144.625 248.047 143.377 247.765 142.177C247.483 140.977 246.938 139.854 246.17 138.89H246.12ZM157.12 182.07C165.086 175.97 170.939 167.527 173.858 157.928C176.778 148.329 176.616 138.056 173.395 128.554C170.174 119.052 164.057 110.798 155.903 104.952C147.749 99.1057 137.968 95.9618 127.935 95.9618C117.902 95.9618 108.121 99.1057 99.9671 104.952C91.8131 110.798 85.6959 119.052 82.4753 128.554C79.2547 138.056 79.0926 148.329 82.0117 157.928C84.9309 167.527 90.7846 175.97 98.7501 182.07C84.6155 188.194 72.8128 198.683 65.0701 212C64.3679 213.216 63.9982 214.596 63.9983 216C63.9984 217.405 64.3682 218.785 65.0706 220.001C65.7729 221.217 66.7831 222.227 67.9995 222.929C69.2159 223.631 70.5957 224 72.0001 224H184C185.405 224 186.784 223.631 188.001 222.929C189.217 222.227 190.227 221.217 190.93 220.001C191.632 218.785 192.002 217.405 192.002 216C192.002 214.596 191.632 213.216 190.93 212C183.171 198.674 171.346 188.185 157.19 182.07H157.12Z" fill="white"/>
</svg>
