<?xml version="1.0" encoding="UTF-8"?>
<svg id="Layer_1" data-name="Layer 1" xmlns="http://www.w3.org/2000/svg" version="1.1" viewBox="0 0 24 24">
  <defs>
    <style>
      .cls-1 {
        fill: #7537f8;
        stroke-width: 0px;
      }
    </style>
  </defs>
  <path class="cls-1" d="M24,1v4.5c0,.6-.4,1-1,1s-1-.4-1-1v-3.5h-3.5c-.6,0-1-.4-1-1s.4-1,1-1h4.5c.6,0,1,.4,1,1ZM23,17.5c-.6,0-1,.4-1,1v3.5h-3.5c-.6,0-1,.4-1,1s.4,1,1,1h4.5c.6,0,1-.4,1-1v-4.5c0-.6-.4-1-1-1ZM5.5,22h-3.5v-3.5c0-.6-.4-1-1-1s-1,.4-1,1v4.5c0,.6.4,1,1,1h4.5c.6,0,1-.4,1-1s-.4-1-1-1ZM1,6.5c.6,0,1-.4,1-1v-3.5h3.5c.6,0,1-.4,1-1s-.4-1-1-1H1C.4,0,0,.4,0,1v4.5c0,.6.4,1,1,1ZM8.6,13.7c-1.4.6-2.5,1.5-3.4,2.7-.3.4-.2,1.1.2,1.4.2.1.4.2.6.2h12c.6,0,1-.4,1-1,0-.2,0-.4-.2-.6-.9-1.2-2.1-2.1-3.4-2.7,2-1.9,2.2-5,.3-7.1-1.9-2-5-2.2-7.1-.3s-2.2,5-.3,7.1c.1.1.2.2.3.3h0Z"/>
</svg>