<?xml version="1.0" encoding="UTF-8"?>
<svg id="Layer_1" data-name="Layer 1" xmlns="http://www.w3.org/2000/svg" version="1.1" viewBox="0 0 26 22">
  <defs>
    <style>
      .cls-1 {
        fill: #7537f8;
        stroke-width: 0px;
      }
    </style>
  </defs>
  <path class="cls-1" d="M22.5,6c0,.8-.7,1.5-1.5,1.5s-1.5-.7-1.5-1.5.7-1.5,1.5-1.5,1.5.7,1.5,1.5ZM21,14.5c-.8,0-1.5.7-1.5,1.5s.7,1.5,1.5,1.5,1.5-.7,1.5-1.5-.7-1.5-1.5-1.5ZM9,8c-1.1,0-2,.9-2,2s.9,2,2,2,2-.9,2-2-.9-2-2-2ZM26,2v18c0,1.1-.9,2-2,2H2c-1.1,0-2-.9-2-2V2C0,.9.9,0,2,0h22c1.1,0,2,.9,2,2ZM18,10h6V2h-6v8ZM14,15.8c-.3-1.2-1.1-2.3-2.1-2.9,1.6-1.6,1.6-4.1,0-5.7-1.6-1.6-4.1-1.6-5.7,0-1.6,1.6-1.6,4.1,0,5.7,0,0,0,0,0,0-1.1.7-1.8,1.7-2.1,2.9-.1.5.2,1.1.7,1.2.5.1,1.1-.2,1.2-.7h0c.3-1.3,1.6-2.2,3-2.2s2.7,1,3,2.2c.1.5.7.9,1.2.7.5-.1.9-.7.7-1.2h0ZM24,20v-8h-6v8h6Z"/>
</svg>