<svg width="256" height="256" viewBox="0 0 256 256" fill="none" xmlns="http://www.w3.org/2000/svg">
<path d="M216 64H56C53.8783 64 51.8434 63.1571 50.3431 61.6569C48.8429 60.1566 48 58.1217 48 56C48 53.8783 48.8429 51.8434 50.3431 50.3431C51.8434 48.8429 53.8783 48 56 48H192C194.122 48 196.157 47.1571 197.657 45.6569C199.157 44.1566 200 42.1217 200 40C200 37.8783 199.157 35.8434 197.657 34.3431C196.157 32.8429 194.122 32 192 32H56C49.6348 32 43.5303 34.5286 39.0294 39.0294C34.5286 43.5303 32 49.6348 32 56V184C32 190.365 34.5286 196.47 39.0294 200.971C43.5303 205.471 49.6348 208 56 208H216C220.243 208 224.313 206.314 227.314 203.314C230.314 200.313 232 196.243 232 192V80C232 75.7565 230.314 71.6869 227.314 68.6863C224.313 65.6857 220.243 64 216 64ZM180 144C177.627 144 175.307 143.296 173.333 141.978C171.36 140.659 169.822 138.785 168.913 136.592C168.005 134.399 167.768 131.987 168.231 129.659C168.694 127.331 169.836 125.193 171.515 123.515C173.193 121.836 175.331 120.694 177.659 120.231C179.987 119.768 182.399 120.005 184.592 120.913C186.785 121.822 188.659 123.36 189.978 125.333C191.296 127.307 192 129.627 192 132C192 135.183 190.736 138.235 188.485 140.485C186.235 142.736 183.183 144 180 144Z" fill="white"/>
</svg>
